if (_typeface_js && _typeface_js.loadFace) _typeface_js.loadFace({"glyphs":{"0":{"ha":683,"x_min":7,"x_max":679,"o":"m 679 331 q 572 128 679 228 q 400 15 500 60 q 201 -33 293 -33 q 65 13 119 -33 q 7 142 7 63 q 124 372 7 272 q 291 465 185 422 q 472 507 397 507 q 508 500 508 507 q 497 494 508 496 q 174 372 289 474 q 82 256 119 322 q 40 115 40 182 q 201 -17 40 -17 q 529 136 360 -17 q 607 232 575 178 q 646 347 646 296 q 528 438 646 438 q 246 328 374 438 q 240 325 244 325 q 235 331 235 325 q 310 392 235 350 q 519 454 419 454 q 679 331 679 454 z "},"1":{"ha":306,"x_min":33,"x_max":336,"o":"m 336 489 q 335 486 336 489 q 236 326 299 438 q 96 53 157 186 q 56 -42 83 21 q 43 -46 53 -46 q 33 -37 33 -46 q 35 -31 33 -35 q 138 189 86 79 q 231 411 197 318 q 213 403 224 411 q 196 394 201 394 q 190 401 190 394 q 200 418 190 408 q 300 511 233 450 q 307 513 303 513 q 326 505 315 513 q 336 489 336 497 z "},"2":{"ha":472,"x_min":-7,"x_max":526,"o":"m 526 426 q 485 325 526 375 q 401 247 461 297 q 263 153 393 240 q 147 64 150 76 q 186 64 158 64 q 226 65 213 65 q 351 39 318 65 q 358 28 358 33 q 354 24 358 24 q 344 26 351 24 q 256 50 299 50 q 75 13 183 50 q 7 -11 4 -11 q -7 14 -7 -11 q 57 51 -7 29 q 165 106 106 69 q 360 251 260 163 q 497 436 497 372 q 443 492 497 492 q 201 311 350 492 q 192 306 197 306 q 185 314 185 306 l 185 317 q 263 428 194 365 q 378 499 326 486 q 439 506 411 506 q 526 426 526 506 z "},"3":{"ha":472,"x_min":-4,"x_max":467,"o":"m 467 442 q 319 308 467 382 q 400 186 400 260 q 308 26 400 99 q 132 -40 222 -40 q 7 28 29 -40 q -4 92 -4 64 q 8 115 -4 115 q 17 108 17 115 q 125 -22 17 -22 q 290 47 217 -22 q 363 208 363 117 q 283 297 363 297 q 260 291 276 297 q 235 285 243 285 q 224 294 224 285 q 254 315 224 315 q 267 314 258 315 q 281 314 275 314 q 369 358 315 314 q 424 435 424 401 q 378 469 424 469 q 294 443 332 469 q 258 417 256 417 q 254 422 254 417 q 260 433 254 426 q 325 476 279 457 q 404 494 371 494 q 447 480 428 494 q 467 442 467 465 z "},"4":{"ha":460,"x_min":17,"x_max":458,"o":"m 458 496 l 458 474 q 377 352 443 457 q 311 236 311 247 q 355 224 311 231 q 399 207 399 218 q 390 199 399 199 q 356 203 379 199 q 319 208 332 208 q 294 207 306 208 q 174 -40 247 124 q 164 -24 164 -39 q 207 86 164 -6 q 261 207 257 194 q 251 210 260 210 q 128 194 210 210 q 28 178 46 178 q 17 192 17 178 q 47 221 17 200 q 89 247 68 233 q 275 378 182 313 q 440 533 381 457 q 458 496 458 533 m 394 456 q 268 354 332 401 q 118 240 217 318 q 272 236 172 236 q 335 335 282 236 q 394 456 374 410 z "},"5":{"ha":458,"x_min":7,"x_max":499,"o":"m 499 456 q 396 450 410 451 q 294 436 338 446 q 253 424 281 432 q 231 417 246 424 q 168 315 210 401 q 278 339 222 339 q 401 238 401 339 q 314 57 401 144 q 133 -31 226 -31 q 44 3 82 -31 q 7 86 7 36 q 17 123 7 94 q 33 151 28 151 q 42 143 42 151 q 34 124 42 142 q 26 93 26 107 q 126 -7 26 -7 q 227 20 179 -7 q 317 111 275 47 q 358 228 358 175 q 337 297 358 278 q 265 315 315 315 q 147 254 217 315 q 124 231 139 244 q 113 226 118 226 q 93 243 93 226 q 138 315 93 247 q 189 407 182 383 q 169 424 169 419 q 215 458 213 458 q 233 457 221 458 q 251 457 246 457 q 347 465 283 457 q 442 472 410 472 q 499 467 474 472 l 499 456 z "},"6":{"ha":410,"x_min":25,"x_max":379,"o":"m 379 542 q 361 519 379 533 q 286 464 336 501 q 136 299 199 389 q 61 93 61 186 q 142 -17 61 -17 q 275 60 214 -17 q 336 210 336 136 q 268 289 336 289 q 197 264 233 289 q 156 239 161 239 q 151 244 151 242 q 199 288 151 263 q 261 311 242 311 q 342 276 310 311 q 374 192 374 240 q 292 40 374 114 q 133 -35 211 -35 q 51 14 81 -35 q 25 111 25 56 q 143 358 25 219 q 360 539 249 483 q 376 543 371 543 q 379 542 379 543 z "},"7":{"ha":414,"x_min":33,"x_max":410,"o":"m 410 457 q 233 249 410 426 q 64 -24 83 97 q 56 -25 58 -25 q 40 -4 47 -25 q 33 24 33 13 q 82 118 33 56 q 165 217 110 156 q 275 343 219 279 q 365 472 365 449 q 338 485 365 485 q 229 461 297 485 q 128 415 168 439 q 107 397 117 406 q 82 386 93 386 q 69 404 69 386 q 107 456 69 440 q 340 506 231 506 q 385 490 360 506 q 410 457 410 475 z "},"8":{"ha":431,"x_min":-22,"x_max":554,"o":"m 554 526 q 505 490 554 521 q 440 451 456 458 q 458 390 458 410 q 451 378 458 378 q 410 432 443 378 q 304 365 396 431 q 211 289 213 299 q 244 183 244 231 q 186 46 244 108 q 53 -17 128 -17 q -22 60 -22 -17 q 49 189 -22 118 q 167 292 60 201 q 144 376 144 338 q 200 479 144 438 q 314 518 251 518 q 378 506 346 518 q 431 468 417 492 q 551 528 532 528 q 554 526 554 528 m 401 453 q 310 500 379 500 q 221 472 260 500 q 176 394 176 442 q 201 314 176 368 q 401 453 251 351 m 214 165 q 175 265 214 199 q 74 169 128 238 q 11 50 11 94 q 58 -1 11 -1 q 165 53 115 -1 q 214 165 214 108 z "},"9":{"ha":425,"x_min":31,"x_max":425,"o":"m 425 469 q 397 403 425 418 q 392 411 392 408 q 398 439 392 418 q 404 471 404 460 q 342 519 404 519 q 165 426 264 519 q 67 256 67 332 q 110 208 67 208 q 189 231 139 208 q 261 275 233 251 q 356 374 292 308 q 363 376 358 376 q 380 367 369 376 q 390 350 390 357 q 324 242 390 346 q 186 -33 201 49 q 172 -65 182 -65 q 167 -53 167 -65 q 290 281 167 33 q 199 219 251 247 q 94 189 136 189 q 31 265 31 189 q 143 444 31 351 q 340 535 251 535 q 425 469 425 535 z "}," ":{"ha":204,"x_min":0,"x_max":0,"o":""},"!":{"ha":347,"x_min":81,"x_max":483,"o":"m 483 644 q 475 632 483 644 l 438 574 q 221 208 288 338 q 194 153 213 190 q 174 135 186 135 q 164 144 164 135 q 285 403 164 168 q 432 676 397 621 q 436 679 433 679 q 464 665 444 679 q 483 644 483 651 m 151 11 q 117 -22 151 -22 q 81 11 81 -22 q 117 44 81 44 q 151 11 151 44 z "},"\"":{"ha":217,"x_min":75,"x_max":217,"o":"m 217 582 q 206 500 217 564 q 190 425 196 436 q 182 419 188 419 q 178 431 178 419 q 171 582 178 525 q 213 586 200 586 q 217 585 215 586 l 217 582 m 121 582 q 110 500 121 564 q 94 425 100 436 q 86 419 92 419 q 82 431 82 419 q 75 582 82 525 q 117 586 104 586 q 121 585 119 586 l 121 582 z "},"#":{"ha":881,"x_min":3,"x_max":874,"o":"m 874 443 q 863 426 874 426 q 790 438 865 426 q 632 458 707 450 q 533 268 572 357 q 797 238 743 263 q 814 203 814 229 q 801 186 814 186 q 706 201 808 186 q 514 224 603 217 q 460 -26 460 88 q 450 -33 460 -33 q 435 -10 435 -33 q 485 226 435 82 q 342 232 408 232 q 261 229 299 232 q 204 -26 204 89 q 194 -33 204 -33 q 179 -10 179 -33 q 229 226 179 82 q 117 198 197 224 q 11 172 38 172 q 3 186 3 172 q 7 196 3 193 q 239 256 69 235 q 331 471 276 361 q 197 440 289 468 q 72 413 104 413 q 64 426 64 413 q 68 436 64 433 q 346 501 143 482 q 481 713 444 692 q 493 715 485 715 q 526 697 526 715 q 404 506 469 608 q 606 508 503 511 q 736 713 700 692 q 749 715 740 715 q 782 697 782 715 q 660 506 725 608 q 857 478 818 496 q 874 443 874 469 m 583 464 q 403 472 481 472 l 383 472 q 274 260 317 357 q 499 268 379 271 q 583 464 535 364 z "},"$":{"ha":506,"x_min":110,"x_max":549,"o":"m 549 579 q 536 554 549 567 q 463 481 511 532 q 435 457 446 457 q 426 467 426 457 q 463 520 426 474 q 499 590 499 567 q 451 625 499 619 q 308 371 365 492 q 378 314 364 329 q 419 239 419 275 q 360 153 419 188 q 253 122 308 122 q 217 125 233 122 q 201 57 207 90 q 197 25 201 46 q 188 17 194 17 q 182 25 182 17 q 203 128 182 46 q 113 196 135 142 q 110 208 110 204 q 111 211 110 211 q 119 200 115 208 q 208 151 149 156 q 283 365 236 253 q 174 493 174 432 q 274 606 174 556 q 431 649 357 646 q 479 710 468 710 q 496 694 496 710 q 465 644 496 690 q 518 576 519 633 q 538 588 528 582 q 549 579 549 588 m 417 625 q 289 592 351 622 q 208 500 208 554 q 292 383 208 447 q 417 625 347 510 m 399 249 q 300 354 399 294 q 224 150 250 247 l 232 150 q 336 172 286 150 q 399 249 399 201 z "},"%":{"ha":517,"x_min":26,"x_max":615,"o":"m 615 728 q 613 721 615 725 q 511 619 578 688 q 78 76 176 281 q 50 3 69 60 q 38 -4 47 -4 q 26 6 26 -4 q 42 47 26 11 q 371 532 118 235 q 332 525 351 525 q 289 536 308 525 q 178 453 236 453 q 138 499 138 453 q 196 654 138 565 q 194 681 194 667 q 222 762 194 722 q 290 801 250 801 q 332 768 317 801 q 346 714 346 742 q 297 556 346 651 q 336 544 314 544 q 401 568 375 544 q 433 603 413 581 q 569 739 481 657 q 588 744 578 744 q 615 728 615 744 m 392 242 q 344 83 392 179 q 356 72 356 76 q 336 65 356 65 q 225 -19 282 -19 q 185 28 185 -19 q 243 183 185 93 q 240 208 240 196 q 268 290 240 250 q 338 329 296 329 q 379 297 363 329 q 392 242 392 271 m 311 685 q 303 738 311 710 q 272 774 292 774 q 231 742 246 774 q 219 686 219 715 q 257 708 240 708 q 282 697 275 708 q 283 691 282 694 q 285 685 285 688 q 272 681 285 681 q 229 636 251 681 q 282 565 244 593 q 311 685 311 638 m 272 550 q 214 608 235 575 q 179 503 179 535 q 197 481 179 481 q 240 507 214 481 q 272 550 263 531 m 357 214 q 349 265 357 239 q 319 301 338 301 q 278 269 293 301 q 267 214 267 244 q 304 236 286 236 q 329 225 322 236 q 331 219 329 224 q 331 213 331 215 q 319 210 331 210 q 275 165 299 210 q 329 93 290 121 q 357 214 357 167 m 319 78 q 261 136 281 103 q 226 31 226 64 q 244 8 226 8 q 288 35 261 8 q 319 78 310 58 z "},"&":{"ha":761,"x_min":10,"x_max":758,"o":"m 758 388 q 647 300 758 333 q 664 219 664 258 q 500 18 664 94 q 226 -43 369 -43 q 82 -10 140 -43 q 10 111 10 31 q 122 301 10 219 q 332 406 190 351 q 206 474 206 414 q 342 621 206 563 q 554 669 450 669 q 654 650 610 669 q 713 578 713 626 q 706 543 713 558 q 669 522 694 522 q 664 529 664 522 q 671 548 664 532 q 678 576 678 564 q 625 632 678 614 q 539 644 588 644 q 360 603 451 644 q 250 474 250 551 q 333 428 250 428 q 404 437 358 428 q 465 446 450 446 q 485 435 485 446 q 458 417 485 425 q 376 393 432 410 q 53 115 53 292 q 110 15 53 50 q 226 -15 157 -15 q 483 46 358 -15 q 636 236 636 119 q 626 293 636 264 q 510 271 568 282 q 396 228 435 254 q 344 132 344 193 q 339 124 344 124 q 328 135 328 124 q 408 282 328 240 q 576 321 446 300 q 726 379 688 339 q 739 401 739 392 q 727 419 739 411 q 715 431 715 426 q 721 438 715 438 q 747 420 735 438 q 758 388 758 403 z "},"'":{"ha":119,"x_min":75,"x_max":121,"o":"m 121 582 q 110 500 121 564 q 94 425 100 436 q 86 419 92 419 q 82 431 82 419 q 75 582 82 525 q 117 586 104 586 q 121 585 119 586 l 121 582 z "},"(":{"ha":442,"x_min":53,"x_max":504,"o":"m 503 710 q 219 471 342 643 q 94 124 94 294 q 119 -86 94 -46 q 125 -100 125 -94 q 117 -108 125 -108 q 67 -8 86 -108 q 53 118 53 64 q 154 458 53 313 q 419 697 242 586 q 488 726 468 726 q 503 710 504 726 z "},")":{"ha":514,"x_min":11,"x_max":461,"o":"m 461 497 q 361 156 461 303 q 94 -83 274 28 q 26 -112 47 -112 q 11 -97 11 -112 q 293 140 169 -32 q 422 482 422 315 q 394 700 422 656 q 390 714 390 708 q 399 722 390 722 q 447 622 429 722 q 461 497 461 550 z "},"*":{"ha":832,"x_min":85,"x_max":785,"o":"m 785 368 l 785 367 q 467 357 767 356 q 611 226 515 314 q 654 189 632 207 q 682 146 682 161 q 674 115 682 115 q 456 321 658 115 q 461 183 456 283 q 465 47 465 97 q 453 30 465 40 q 433 19 440 19 l 431 19 q 422 331 419 38 q 289 183 378 281 q 251 140 271 163 q 208 113 225 113 q 179 121 179 113 q 403 358 179 138 q 90 372 113 363 q 85 376 85 375 q 94 385 85 385 q 389 389 174 385 q 186 618 186 599 q 192 621 186 621 q 422 399 193 621 q 438 714 428 692 q 442 719 440 719 q 450 710 450 719 q 454 407 450 626 q 681 608 661 608 q 683 603 683 608 q 481 390 683 600 q 618 397 518 392 q 757 401 707 401 q 774 389 764 401 q 785 368 785 376 z "},"+":{"ha":628,"x_min":85,"x_max":561,"o":"m 561 419 l 561 414 l 549 406 q 339 404 492 406 q 329 200 336 215 q 318 192 325 192 q 313 203 315 192 q 304 331 304 232 q 304 363 304 340 q 304 399 304 386 l 304 403 q 208 399 278 403 q 111 396 147 396 q 94 406 103 396 q 85 425 86 415 l 92 432 q 304 438 149 439 q 300 533 303 464 q 296 629 296 593 q 306 646 296 638 q 326 654 317 654 l 333 647 q 339 438 340 592 q 553 428 436 436 q 561 419 561 424 z "},",":{"ha":267,"x_min":94,"x_max":224,"o":"m 224 28 q 173 -61 224 -1 q 97 -121 122 -121 q 94 -119 94 -121 q 104 -104 94 -114 q 174 -7 114 -94 l 169 -7 q 149 24 149 -8 q 193 61 149 61 q 224 28 224 61 z "},"-":{"ha":317,"x_min":26,"x_max":303,"o":"m 303 168 q 267 157 303 158 q 192 153 242 156 q 61 140 150 147 l 54 140 q 26 150 26 139 q 75 185 26 169 q 138 193 97 193 q 267 182 186 193 q 303 168 303 176 z "},".":{"ha":257,"x_min":151,"x_max":224,"o":"m 224 11 q 189 -22 224 -22 q 151 11 151 -22 q 189 44 151 44 q 224 11 224 44 z "},"/":{"ha":411,"x_min":53,"x_max":642,"o":"m 642 699 q 639 692 642 696 q 536 590 604 658 q 104 47 201 251 q 75 -26 96 31 q 64 -33 72 -33 q 53 -24 53 -33 q 78 42 53 -12 q 479 596 188 281 q 594 710 515 636 q 614 715 603 715 q 642 699 642 715 z "},":":{"ha":200,"x_min":86,"x_max":235,"o":"m 235 185 q 200 151 235 151 q 165 185 165 151 q 200 218 165 218 q 235 185 235 218 m 158 33 q 124 0 158 0 q 86 33 86 0 q 124 67 86 67 q 158 33 158 67 z "},";":{"ha":193,"x_min":28,"x_max":267,"o":"m 267 211 q 231 176 267 176 q 194 211 194 176 q 231 244 194 244 q 267 211 267 244 m 157 28 q 106 -61 157 -1 q 31 -121 56 -121 q 28 -119 29 -121 q 38 -104 28 -114 q 107 -7 47 -94 l 103 -7 q 82 24 82 -8 q 126 61 82 61 q 157 28 157 61 z "},"<":{"ha":442,"x_min":118,"x_max":318,"o":"m 318 606 q 181 393 318 585 q 315 207 315 222 q 301 189 315 188 l 290 194 q 211 276 260 236 q 122 347 167 313 q 118 356 118 350 q 190 475 118 371 q 282 599 254 565 q 308 614 294 614 q 318 606 318 614 z "},"=":{"ha":317,"x_min":26,"x_max":328,"o":"m 328 275 q 292 264 328 264 q 217 260 267 263 q 86 247 175 254 l 79 246 q 51 257 51 246 q 100 292 51 275 q 163 299 122 299 q 292 289 211 299 q 328 275 328 283 m 303 168 q 267 157 303 158 q 192 153 242 156 q 61 140 150 147 l 54 140 q 26 150 26 139 q 75 185 26 169 q 138 193 97 193 q 267 182 186 193 q 303 168 303 176 z "},">":{"ha":442,"x_min":118,"x_max":318,"o":"m 318 438 q 244 318 318 422 q 153 194 182 228 q 126 179 140 179 q 118 188 118 179 q 256 400 118 208 q 119 586 119 572 q 135 604 119 606 l 146 599 q 223 519 176 557 q 314 446 269 481 q 318 438 318 443 z "},"?":{"ha":590,"x_min":200,"x_max":628,"o":"m 628 592 q 539 440 628 521 q 371 310 456 375 q 282 178 282 236 q 290 164 282 167 q 274 140 289 140 q 249 174 249 140 q 336 319 249 232 q 497 469 417 394 q 585 601 585 553 q 540 644 585 644 q 365 594 456 644 q 222 481 285 550 q 207 474 215 474 q 201 479 201 474 q 210 499 201 485 q 263 551 222 518 q 532 672 404 672 q 597 649 567 672 q 628 592 628 626 m 272 11 q 236 -22 272 -22 q 200 11 200 -22 q 236 44 200 44 q 272 11 272 44 z "},"@":{"ha":760,"x_min":38,"x_max":719,"o":"m 719 349 q 635 169 719 274 q 482 36 557 74 q 336 4 415 4 q 129 71 215 4 q 38 261 38 143 q 126 468 38 365 q 311 606 206 560 q 453 635 381 635 q 606 589 544 635 q 674 450 674 539 q 663 378 674 417 q 582 246 643 310 q 450 174 514 174 q 374 274 374 174 q 376 311 374 292 q 239 174 300 174 q 203 214 203 174 q 260 358 203 272 q 374 463 318 444 q 413 469 394 469 q 451 459 428 469 q 475 433 475 449 q 456 422 468 431 q 432 353 443 406 q 422 278 422 306 q 468 204 422 204 q 514 218 486 204 q 613 319 571 249 q 656 454 656 389 q 594 561 656 525 q 468 590 544 590 q 311 558 383 590 q 136 436 204 510 q 54 246 54 347 q 140 94 54 147 q 318 50 214 50 q 493 86 415 50 q 707 350 638 154 q 714 360 711 360 q 719 349 719 360 m 419 432 q 410 433 415 433 q 301 359 360 433 q 243 233 243 285 q 260 210 243 210 q 353 301 296 210 q 419 432 394 368 z "},"A":{"ha":1042,"x_min":19,"x_max":1114,"o":"m 1114 794 q 1107 779 1114 790 q 911 293 989 582 q 974 257 974 274 q 958 243 974 243 q 933 252 957 243 q 903 263 910 261 q 863 -1 863 96 q 876 -49 863 -49 q 910 -31 889 -49 q 936 -14 932 -14 q 949 -29 949 -14 q 922 -60 949 -44 q 876 -76 894 -76 q 824 11 824 -76 q 858 271 824 100 q 694 282 788 281 q 585 157 653 231 q 414 -7 474 38 q 194 -85 307 -85 q 74 -51 119 -85 q 19 57 19 -15 q 88 206 19 138 q 232 289 149 267 q 675 326 371 328 q 857 550 765 432 q 935 654 882 586 q 947 661 940 661 q 965 644 965 661 q 963 635 965 640 q 876 519 954 622 q 729 325 786 399 q 865 306 799 321 q 965 636 904 482 q 1021 758 982 679 q 1058 788 1026 768 q 1101 807 1090 807 q 1114 794 1114 807 m 636 282 l 597 282 q 236 250 358 282 q 115 182 167 231 q 57 60 57 126 q 96 -10 57 14 q 178 -31 128 -31 q 385 39 283 -31 q 550 189 450 83 q 636 282 592 231 z "},"B":{"ha":875,"x_min":1,"x_max":892,"o":"m 892 631 q 783 510 892 564 q 615 454 703 468 q 785 389 715 431 q 882 249 882 329 q 814 106 882 183 q 854 35 854 57 q 839 15 854 15 q 828 22 832 15 q 789 79 807 60 q 553 -49 699 -4 q 286 -86 425 -86 q 110 -50 193 -86 q 1 76 1 -4 q 90 229 1 169 q 264 285 165 279 q 393 551 324 422 q 465 674 415 594 q 536 704 488 704 q 556 693 556 704 q 553 685 556 689 q 311 285 422 508 q 776 144 624 278 q 821 254 821 203 q 703 392 821 342 q 508 429 611 429 q 493 429 504 429 q 476 429 482 429 q 458 442 458 429 q 499 474 458 467 q 565 483 521 476 q 811 590 733 518 q 843 643 843 621 q 714 718 843 693 q 533 735 626 735 q 67 644 283 735 q 56 642 60 642 q 44 653 44 642 q 63 690 44 669 q 99 717 82 710 q 467 775 243 775 q 714 750 600 775 q 892 631 892 713 m 751 114 q 556 217 674 179 q 335 251 443 251 q 294 250 314 251 q 211 13 211 72 q 213 1 211 8 q 214 -10 214 -6 q 199 -28 214 -28 q 176 10 176 -28 q 247 244 176 72 q 63 74 63 214 q 147 -26 63 10 q 286 -56 214 -56 q 751 114 594 -56 z "},"C":{"ha":717,"x_min":-7,"x_max":897,"o":"m 897 642 q 793 468 897 547 q 597 392 696 392 q 496 469 496 392 q 521 525 496 525 q 531 513 531 525 q 529 500 531 508 q 528 488 528 492 q 599 433 528 433 q 765 504 672 433 q 858 644 858 575 q 743 713 858 713 q 697 710 719 713 q 425 609 578 697 q 171 403 272 521 q 58 147 58 269 q 110 31 58 71 q 235 -6 156 -6 q 725 192 488 -6 q 736 196 731 196 q 753 178 753 196 q 747 165 753 171 q 507 7 646 72 q 231 -65 354 -65 q 67 -24 129 -65 q -7 121 -7 25 q 86 369 -7 235 q 371 635 196 529 q 740 750 558 750 q 897 642 897 750 z "},"D":{"ha":1042,"x_min":-29,"x_max":1063,"o":"m 1063 432 q 986 215 1063 322 q 817 54 921 124 q 822 35 822 42 q 808 15 822 15 q 789 38 803 15 q 310 -87 581 -87 q 254 -86 281 -87 q 79 -47 160 -82 q -29 76 -29 -1 q 58 229 -29 169 q 233 285 135 279 q 369 564 296 431 q 435 674 392 607 q 506 704 458 704 q 525 693 525 704 q 522 685 525 689 q 281 285 392 508 q 790 97 654 276 q 940 244 882 161 q 1008 439 1008 342 q 832 679 1008 596 q 519 742 696 742 q 103 639 285 742 q 85 633 92 633 q 67 654 67 633 q 110 708 67 685 q 300 763 172 742 q 499 779 407 779 q 860 707 704 779 q 1063 432 1063 614 m 760 76 q 549 206 696 156 q 300 251 417 251 q 264 250 282 251 q 181 13 181 72 q 182 1 181 8 q 183 -10 183 -6 q 168 -28 183 -28 q 146 10 146 -28 q 217 244 146 72 q 32 74 32 214 q 117 -25 32 11 q 256 -56 181 -53 q 290 -56 271 -56 q 760 76 554 -56 z "},"E":{"ha":815,"x_min":42,"x_max":950,"o":"m 824 457 q 653 388 744 408 q 481 367 561 367 q 179 342 351 367 q 110 149 110 236 q 172 22 110 65 q 314 -17 225 -17 q 778 192 525 -17 q 788 196 783 196 q 806 178 806 196 q 800 165 806 171 q 558 7 697 71 q 282 -65 408 -65 q 118 -24 181 -65 q 46 121 46 24 q 114 332 46 218 q 51 319 44 319 q 42 329 42 319 q 71 374 42 363 q 150 388 78 376 q 276 526 206 464 q 432 640 346 589 q 793 750 617 750 q 885 734 851 750 q 935 692 919 718 q 947 633 950 665 q 928 568 944 600 q 885 506 913 536 q 824 457 858 476 m 781 478 q 910 644 910 578 q 794 713 910 713 q 476 610 653 713 q 218 394 321 518 q 332 405 278 401 q 438 408 386 408 q 626 425 543 408 q 781 478 710 442 z "},"F":{"ha":878,"x_min":-14,"x_max":1174,"o":"m 1174 646 q 996 599 1174 599 q 779 611 904 599 q 618 329 683 471 q 772 349 663 332 q 924 364 872 364 q 936 356 936 364 q 913 332 936 339 q 826 317 901 329 q 601 292 708 299 q 514 4 514 96 q 543 -46 514 -46 q 578 -30 556 -46 q 604 -14 600 -14 q 615 -26 615 -14 q 587 -58 615 -42 q 542 -74 558 -74 q 478 11 478 -74 q 554 290 478 101 q 493 289 524 289 q 21 404 146 289 q -14 467 -14 436 q 63 578 -14 532 q 469 678 229 678 q 739 658 557 678 q 783 722 753 681 q 850 743 801 743 q 868 736 868 743 q 808 651 868 736 q 1025 639 942 639 q 1144 654 1113 639 q 1161 660 1156 660 q 1174 646 1174 660 m 714 618 q 490 628 599 628 q 49 460 49 628 q 253 347 49 381 q 514 326 374 326 q 569 328 542 326 q 714 618 640 493 z "},"G":{"ha":761,"x_min":-182,"x_max":954,"o":"m 954 660 q 935 615 954 642 q 899 589 917 589 q 889 599 889 589 q 899 621 889 600 q 908 657 908 642 q 860 696 908 696 q 847 694 854 696 q 825 563 844 658 q 782 358 808 476 q 814 360 799 360 q 885 336 885 360 q 863 322 885 322 q 841 324 856 322 q 818 325 826 325 q 772 322 792 325 q 306 -310 656 -133 q 24 -376 175 -376 q -182 -207 -182 -376 q 260 203 -182 22 q 243 251 243 231 q 440 560 243 411 q 785 735 599 679 q 806 760 789 760 q 846 729 831 760 q 954 660 954 719 m 746 488 q 626 324 693 399 q 718 346 669 335 q 746 488 728 393 m 785 699 q 418 482 557 633 q 342 374 375 433 q 300 249 300 300 q 306 221 300 233 q 561 306 422 265 q 704 485 643 382 q 785 699 772 600 m 494 250 q 336 197 410 225 q 351 196 343 196 q 494 250 415 196 m 708 310 q 581 275 633 290 q 346 150 453 150 q 281 175 306 150 q -126 -189 -126 13 q 61 -331 -126 -331 q 296 -283 185 -331 q 708 310 597 -153 z "},"H":{"ha":1126,"x_min":-25,"x_max":1324,"o":"m 1324 736 q 1321 729 1324 733 q 1058 296 1147 499 q 1147 204 1147 253 q 1140 181 1147 193 q 1122 168 1132 168 q 1106 185 1106 168 q 1110 194 1106 189 q 1114 206 1114 200 q 1044 265 1114 233 q 969 4 969 89 q 999 -46 969 -46 q 1033 -30 1011 -46 q 1058 -14 1056 -14 q 1071 -26 1071 -14 q 1042 -58 1071 -42 q 996 -74 1014 -74 q 932 11 932 -74 q 1006 281 932 99 q 813 317 932 304 q 564 18 724 150 q 217 -133 382 -133 q 53 -87 121 -133 q -25 57 -25 -35 q 257 307 -25 228 q 679 360 447 360 q 767 357 729 360 q 839 622 839 536 q 804 676 839 676 q 758 661 786 676 q 728 646 731 646 q 719 658 719 646 q 765 694 719 676 q 832 711 807 711 q 896 621 896 711 q 829 351 896 525 q 1018 313 951 335 q 1063 413 1039 361 q 1239 722 1165 638 q 1306 743 1257 743 q 1324 736 1324 743 m 749 321 q 676 324 717 324 q 288 274 467 324 q 24 47 24 200 q 88 -65 24 -25 q 217 -100 142 -100 q 531 43 367 -100 q 749 321 669 165 z "},"I":{"ha":635,"x_min":7,"x_max":938,"o":"m 938 683 q 922 672 938 672 l 918 674 q 690 693 843 682 q 490 393 565 535 q 358 64 382 188 q 486 72 429 72 q 639 43 613 72 q 647 15 647 33 q 633 -8 647 -8 q 551 5 610 -8 q 463 18 492 18 q 354 13 413 18 q 382 -28 356 -28 q 417 -12 394 -28 q 443 3 439 3 q 454 -10 454 3 q 426 -41 454 -26 q 379 -56 397 -56 q 318 10 324 -56 q 164 -19 282 6 q 24 -43 57 -43 q 7 -25 7 -43 q 21 -8 7 -14 q 106 15 31 -4 q 319 58 218 43 q 436 385 335 175 q 614 694 528 575 l 590 694 q 451 689 510 696 q 278 622 278 668 q 317 581 278 603 q 356 550 356 558 q 342 539 356 539 q 332 540 338 539 q 221 633 221 593 q 281 693 221 664 q 539 731 360 731 q 639 728 586 731 q 707 751 656 751 q 728 743 728 751 q 714 722 728 740 q 874 706 793 717 q 922 699 890 704 q 938 683 938 694 z "},"J":{"ha":767,"x_min":-139,"x_max":761,"o":"m 761 74 q 750 64 760 64 q 724 74 742 64 q 700 86 706 85 q 644 99 686 90 q 118 -387 475 -250 q -18 -418 40 -418 q -139 -304 -139 -418 q -90 -156 -139 -236 q 153 68 -7 -14 q 476 146 306 146 q 594 136 535 146 q 689 550 689 340 q 536 721 689 721 q 225 593 397 721 q 42 328 42 458 q 125 239 42 239 q 250 272 174 239 q 328 306 326 306 q 336 296 336 306 q 322 274 336 285 q 133 210 238 210 q 3 346 3 210 q 197 631 3 500 q 539 750 375 750 q 744 551 744 750 q 656 124 744 324 q 715 108 700 114 q 761 74 757 93 m 581 108 q 494 114 536 114 q 192 46 333 114 q -42 -157 36 -28 q -87 -292 -87 -233 q 4 -379 -87 -379 q 103 -358 44 -379 q 382 -168 250 -303 q 581 108 503 -46 z "},"K":{"ha":1015,"x_min":-42,"x_max":1044,"o":"m 1043 664 l 1043 660 q 624 310 1033 488 q 772 128 682 224 q 954 -1 894 -1 q 986 33 986 -1 q 983 58 986 42 q 979 78 979 74 q 990 90 979 90 q 1014 35 1014 90 q 996 -14 1014 6 q 950 -33 978 -33 q 754 88 878 -33 q 594 271 674 167 q 397 26 511 125 q 115 -94 256 -94 q 8 -65 50 -94 q -42 29 -42 -32 q 90 244 -42 126 q 313 360 218 360 q 325 350 325 360 q 306 335 325 342 q 57 158 149 275 q 1 19 1 88 q 101 -68 1 -68 q 375 65 239 -68 q 558 319 476 167 q 493 435 493 413 q 501 477 493 449 q 519 506 510 506 q 526 499 524 506 q 585 374 557 422 q 654 647 654 540 q 614 714 654 714 q 568 699 596 714 q 539 683 540 683 q 529 696 529 683 q 576 733 529 714 q 642 749 617 749 q 713 647 713 749 q 631 342 713 522 q 996 625 917 472 q 1014 671 1003 638 q 1028 685 1018 685 q 1043 664 1044 685 z "},"L":{"ha":935,"x_min":14,"x_max":921,"o":"m 921 40 q 842 -61 921 -28 q 703 -85 782 -85 q 382 8 564 -85 q 229 -43 300 -43 q 79 15 144 -43 q 14 156 14 72 q 32 229 14 197 q 93 268 54 268 q 238 172 135 268 q 381 46 365 56 q 521 335 451 136 q 401 315 457 315 q 297 333 340 315 q 240 413 240 360 q 343 528 240 471 q 499 579 436 579 q 514 567 514 579 q 499 554 514 558 q 449 540 483 550 q 281 415 281 483 q 404 350 281 350 q 535 372 465 350 q 594 533 572 481 q 685 678 635 621 q 824 767 760 767 q 911 692 911 767 q 821 517 911 613 q 660 390 749 442 q 575 347 632 376 q 508 179 535 236 q 414 31 461 76 q 553 -20 465 1 q 701 -42 640 -42 q 818 -25 768 -42 q 889 50 889 -1 q 869 88 889 69 q 849 114 849 107 q 860 125 849 125 q 871 121 865 125 q 921 40 921 85 m 874 700 q 850 728 874 728 q 828 724 840 728 q 597 401 704 681 q 764 531 661 426 q 874 700 874 643 m 339 24 q 201 132 269 78 q 78 219 90 219 q 47 164 47 219 q 103 44 47 97 q 225 -8 158 -8 q 339 24 285 -8 z "},"M":{"ha":1547,"x_min":-71,"x_max":1529,"o":"m 1529 507 q 1501 394 1529 461 q 1414 183 1458 289 q 1358 -28 1358 38 q 1396 -78 1358 -78 q 1449 -54 1417 -78 q 1488 -31 1482 -31 q 1493 -37 1493 -31 q 1455 -86 1493 -65 q 1388 -107 1417 -107 q 1308 -14 1308 -107 q 1342 149 1308 47 q 1418 338 1368 224 q 1468 451 1438 375 q 1481 507 1481 489 q 1471 522 1481 522 q 1218 324 1400 522 q 999 54 1086 179 q 953 -15 971 14 q 931 -49 946 -31 q 919 -50 925 -50 q 878 -17 878 -50 q 883 -3 878 -10 q 935 103 888 4 q 1075 522 1075 394 q 1039 581 1075 581 q 844 432 981 581 q 556 39 690 263 q 525 -12 540 13 q 489 -58 503 -47 q 457 -28 457 -58 q 463 -11 457 -18 q 628 283 539 82 q 725 603 725 500 q 572 742 725 742 q 378 701 492 742 q 222 631 301 674 q 71 533 142 588 q -35 399 -35 451 q 117 321 -35 321 q 207 330 147 321 q 296 339 267 339 q 307 333 307 339 q 300 324 307 328 q 143 290 253 290 q 7 313 64 290 q -71 411 -71 343 q 33 567 -71 483 q 201 671 104 624 q 369 736 283 710 q 588 772 492 772 q 790 618 790 772 q 690 300 790 493 q 849 490 769 394 q 1036 619 968 619 q 1119 494 1119 619 q 1035 181 1119 386 q 1236 389 1126 283 q 1456 557 1392 536 q 1486 563 1474 563 q 1529 507 1529 563 z "},"N":{"ha":1228,"x_min":10,"x_max":1218,"o":"m 1218 522 q 1138 264 1218 440 q 1057 36 1057 88 q 1096 -6 1057 -6 q 1151 18 1118 -6 q 1189 42 1183 42 q 1194 35 1194 42 q 1156 -14 1194 7 q 1088 -35 1118 -35 q 1014 43 1014 -35 q 1056 196 1014 100 q 1108 317 1106 308 q 1153 442 1138 386 q 1169 531 1169 499 q 1135 579 1169 579 q 1092 568 1118 579 q 840 332 992 522 q 638 39 729 192 q 569 -58 615 -1 q 539 -28 539 -58 q 543 -11 539 -18 q 713 290 619 82 q 813 615 813 514 q 635 765 813 765 q 442 728 550 765 q 200 606 317 686 q 46 403 46 500 q 153 324 46 324 q 307 351 210 324 q 321 354 317 354 q 332 346 332 354 q 260 306 332 322 q 165 292 203 292 q 10 414 10 292 q 168 638 10 528 q 429 764 288 719 q 643 799 546 799 q 872 618 872 799 q 771 300 872 492 q 929 490 850 394 q 1117 619 1049 619 q 1218 522 1218 619 z "},"O":{"ha":897,"x_min":0,"x_max":974,"o":"m 974 499 q 896 289 974 400 q 612 51 797 146 q 253 -43 426 -43 q 71 103 71 -43 q 92 200 71 147 q 0 335 0 243 q 117 556 0 454 q 343 683 208 635 q 632 736 488 736 q 858 686 767 736 q 974 499 974 622 m 928 519 q 839 665 928 617 q 661 704 768 704 q 364 642 522 704 q 156 526 246 594 q 32 336 32 431 q 104 229 32 254 q 297 460 168 342 q 540 626 425 579 q 640 653 599 650 l 643 653 q 660 640 660 654 q 640 622 660 626 q 544 590 588 614 q 429 513 493 563 q 278 376 354 456 q 160 215 176 272 q 211 210 186 210 q 460 326 335 210 q 508 372 510 372 q 518 361 518 372 q 381 235 464 283 q 201 182 292 182 q 150 189 172 182 q 126 103 126 143 q 167 17 126 47 q 264 -14 207 -14 q 597 86 431 -14 q 853 324 753 179 q 928 519 928 432 z "},"P":{"ha":642,"x_min":-53,"x_max":800,"o":"m 800 543 q 781 468 800 507 q 611 322 735 376 q 389 275 503 275 q 263 282 328 275 q 122 -67 122 18 q 124 -78 122 -71 q 125 -87 125 -85 q 110 -107 125 -107 q 88 -69 88 -107 q 213 290 88 25 q 97 356 97 313 q 132 401 97 383 q 192 417 161 417 q 207 407 207 417 q 173 390 207 397 q 139 365 139 382 q 225 318 139 342 q 329 519 278 428 q 376 596 344 546 q 447 625 397 625 q 467 615 467 625 q 464 606 467 611 q 276 308 365 472 q 338 304 307 304 q 567 356 451 304 q 732 510 699 417 q 739 553 739 532 q 617 668 739 644 q 425 685 532 685 q -28 604 194 685 q -43 601 -37 601 q -53 610 -53 601 q -29 647 -53 626 q 10 672 -10 665 q 365 722 161 722 q 643 693 510 722 q 800 543 800 658 z "},"Q":{"ha":974,"x_min":0,"x_max":974,"o":"m 974 499 q 896 289 974 400 q 457 -10 749 76 q 610 -201 514 -97 q 797 -336 735 -336 q 829 -303 829 -336 q 826 -278 829 -293 q 822 -257 822 -262 q 835 -244 822 -244 q 857 -300 857 -244 q 839 -349 857 -329 q 793 -368 821 -368 q 581 -231 717 -368 q 407 -22 488 -136 q 253 -43 321 -43 q 71 103 71 -43 q 92 200 71 147 q 0 335 0 243 q 117 556 0 454 q 343 683 208 635 q 632 736 488 736 q 858 686 767 736 q 974 499 974 622 m 928 519 q 839 665 928 617 q 661 704 768 704 q 364 642 522 704 q 156 526 246 594 q 32 336 32 431 q 104 229 32 254 q 297 460 168 342 q 540 626 425 579 q 640 653 599 650 l 643 653 q 660 640 660 654 q 640 622 660 626 q 564 600 594 615 q 450 529 513 576 q 288 386 372 471 q 161 217 181 278 q 174 218 168 218 q 201 204 201 218 q 167 186 201 186 q 150 189 158 186 q 126 103 126 143 q 167 17 126 47 q 264 -14 207 -14 q 390 3 317 -14 q 338 100 338 81 q 345 142 338 114 q 363 171 353 171 q 369 164 367 171 q 440 17 404 78 q 853 324 694 96 q 928 519 928 432 z "},"R":{"ha":683,"x_min":-53,"x_max":800,"o":"m 800 543 q 781 468 800 507 q 621 326 736 379 q 410 275 526 283 q 342 274 376 272 q 501 69 399 183 q 693 -75 633 -75 q 726 -39 726 -75 q 723 -14 726 -29 q 719 7 719 1 q 731 19 719 19 q 754 -36 754 19 q 733 -89 754 -67 q 682 -111 713 -111 q 460 46 600 -111 q 285 276 363 153 q 229 286 254 279 q 88 -67 88 18 q 89 -78 88 -71 q 89 -87 89 -85 q 75 -107 89 -107 q 53 -69 53 -107 q 182 301 53 28 q 115 388 115 333 q 138 443 115 418 q 190 468 160 468 q 249 435 224 468 q 340 596 278 492 q 413 625 363 625 q 432 615 432 625 q 428 606 432 611 q 282 379 347 496 l 328 297 q 561 354 451 306 q 732 510 696 414 q 739 553 739 532 q 617 668 739 644 q 425 685 532 685 q -28 604 194 685 q -43 601 -37 601 q -53 610 -53 601 q -29 647 -53 626 q 10 672 -10 665 q 365 722 161 722 q 643 693 510 722 q 800 543 800 658 m 272 296 q 253 329 263 313 l 238 301 q 272 296 253 297 m 224 386 q 190 413 208 413 q 160 372 160 413 q 190 319 160 340 q 224 386 207 353 z "},"S":{"ha":792,"x_min":8,"x_max":838,"o":"m 838 681 q 813 604 838 646 q 753 558 786 558 q 740 568 740 558 q 765 599 740 569 q 789 651 789 628 q 692 707 789 707 q 569 692 639 707 q 418 640 493 674 q 308 542 308 590 q 436 461 308 497 q 675 390 658 396 q 804 254 804 338 q 744 142 804 199 q 494 0 656 56 q 210 -53 344 -53 q 8 61 8 -53 q 133 253 8 161 q 354 338 250 338 q 399 308 399 338 q 260 150 399 229 q 208 128 222 128 q 197 133 197 128 q 226 160 197 143 q 336 261 304 203 q 346 285 346 278 q 335 292 346 292 q 151 226 251 292 q 43 75 43 154 q 213 0 43 0 q 500 46 342 0 q 742 181 689 100 q 757 226 757 204 q 525 383 757 315 q 426 411 476 397 q 332 449 369 429 q 274 532 274 482 q 442 696 274 628 q 693 753 581 753 q 838 681 838 753 z "},"T":{"ha":649,"x_min":32,"x_max":1100,"o":"m 1100 561 q 1086 539 1100 539 q 1076 551 1079 539 q 1065 588 1072 575 q 976 654 1042 629 q 864 675 921 675 q 660 650 775 675 q 479 344 556 501 q 378 8 378 138 q 396 -46 378 -46 q 431 -30 408 -46 q 456 -14 453 -14 q 468 -26 468 -14 q 440 -58 468 -42 q 393 -74 411 -74 q 325 13 325 -74 q 421 329 325 117 q 576 629 489 483 q 368 569 472 600 q 158 538 243 538 q 32 603 32 538 q 46 644 32 622 q 189 738 85 704 q 363 764 274 764 q 482 753 446 764 q 500 735 500 747 q 489 724 500 724 l 485 724 q 367 735 371 735 q 221 715 294 735 q 93 649 128 692 q 79 621 79 632 q 164 586 79 586 q 386 622 246 586 q 610 683 499 653 q 636 722 618 697 q 703 743 654 743 q 721 736 721 743 q 697 701 721 733 q 856 717 782 717 q 1010 676 932 717 q 1100 561 1100 629 z "},"U":{"ha":957,"x_min":-22,"x_max":1082,"o":"m 1082 724 q 1079 718 1082 721 q 893 344 946 488 q 815 4 815 132 q 851 -79 815 -79 q 887 -60 865 -79 q 913 -40 908 -40 q 925 -53 925 -40 q 888 -92 925 -71 q 832 -114 851 -114 q 767 -10 767 -114 q 851 363 767 110 q 686 138 768 250 q 488 -19 558 -19 q 399 67 399 -19 q 465 286 399 140 q 572 499 519 392 q 601 603 601 561 q 499 685 601 685 q 244 602 385 685 q 58 418 104 519 q 33 331 33 364 q 82 288 33 288 q 115 292 93 288 q 146 296 136 296 q 157 289 157 296 q 118 261 157 272 q 65 254 89 254 q -22 326 -22 254 q -4 397 -22 358 q 218 619 53 519 q 517 718 379 718 q 653 607 653 718 q 614 471 653 553 q 481 192 567 379 q 447 61 447 104 q 476 21 447 21 q 675 178 549 21 q 867 456 767 293 q 925 557 888 489 q 999 703 947 608 q 1031 722 1007 714 q 1069 731 1054 731 q 1082 724 1082 731 z "},"V":{"ha":828,"x_min":-1,"x_max":1258,"o":"m 1258 838 q 1242 826 1258 826 q 1183 799 1214 826 q 1083 678 1153 772 q 874 363 979 535 q 715 139 796 238 q 508 -19 585 -19 q 454 64 454 -19 q 489 231 454 133 q 554 392 497 254 q 624 590 624 560 q 514 685 624 685 q 264 601 401 685 q 81 418 126 517 q 56 331 56 364 q 104 288 56 288 q 137 292 115 288 q 168 296 158 296 q 178 289 178 296 q 139 261 178 272 q 86 254 110 254 q -1 326 -1 254 q 18 397 -1 358 q 238 619 75 519 q 536 718 400 718 q 675 611 675 718 q 617 406 675 553 q 547 238 582 322 q 507 65 507 128 q 529 18 507 18 q 544 22 536 18 q 910 499 668 85 q 1222 854 1117 854 q 1258 838 1258 854 z "},"W":{"ha":1401,"x_min":-8,"x_max":1490,"o":"m 1490 463 q 1475 451 1490 451 q 1439 460 1458 451 q 1339 207 1408 328 q 1160 7 1258 69 q 1079 -18 1119 -18 q 982 103 982 -18 q 1043 378 982 182 q 801 139 854 186 q 532 -37 628 -18 q 486 -43 508 -43 q 408 28 408 -43 q 474 215 408 92 q 581 393 494 253 q 708 721 708 603 q 607 818 708 818 q 315 683 493 818 q 81 449 160 565 q 28 319 28 371 q 78 275 28 275 q 125 286 94 275 q 167 297 156 297 q 182 289 182 297 q 133 253 182 269 q 68 239 92 239 q -8 319 -8 239 q 108 558 -8 426 q 365 767 214 678 q 622 856 517 856 q 781 719 781 856 q 744 579 781 657 q 636 375 706 493 q 517 176 576 275 q 465 35 465 88 q 504 -11 465 -11 q 636 49 550 -11 q 1081 478 846 193 q 1122 528 1093 496 q 1163 543 1140 543 q 1178 531 1178 543 q 1168 506 1178 522 q 1033 118 1033 269 q 1088 15 1033 15 q 1211 97 1133 15 q 1307 222 1275 165 q 1400 479 1400 392 q 1390 524 1400 494 q 1379 569 1379 553 q 1410 617 1379 617 q 1439 581 1426 617 q 1449 531 1449 553 q 1447 499 1449 517 q 1472 478 1454 483 q 1490 463 1490 472 z "},"X":{"ha":897,"x_min":-78,"x_max":1010,"o":"m 1010 711 q 875 471 1010 639 q 675 253 774 344 q 751 103 710 168 q 869 -1 817 -1 q 925 71 914 -1 q 940 90 928 90 q 953 76 953 90 q 922 -3 953 32 q 849 -37 892 -37 q 711 56 781 -37 q 626 208 663 119 q 349 7 489 88 q 28 -97 165 -97 q -78 -25 -78 -97 q -14 97 -78 29 q 97 188 35 150 q 115 194 110 194 q 125 188 125 194 q 103 157 125 176 q -32 -25 -32 44 q 35 -68 -32 -68 q 608 253 258 -68 q 547 615 547 428 q 547 654 547 647 q 566 683 549 665 q 594 701 583 701 q 603 692 603 701 q 603 647 603 701 q 658 299 603 461 q 699 339 679 319 q 843 511 761 401 q 947 694 947 647 q 926 714 947 714 q 873 699 907 714 q 836 685 839 685 q 829 692 829 685 q 888 732 829 711 q 967 750 939 750 q 1010 711 1010 750 z "},"Y":{"ha":1043,"x_min":-22,"x_max":1049,"o":"m 1049 67 q 1033 51 1049 51 q 1021 54 1026 51 q 951 71 983 71 q 904 65 931 71 q 671 -318 838 -160 q 267 -494 486 -494 q 160 -468 206 -494 q 106 -378 106 -435 q 414 -58 106 -211 q 869 101 633 50 q 906 446 883 158 q 886 415 894 428 q 708 176 828 335 q 521 33 592 33 q 425 122 425 33 q 513 378 425 204 q 601 603 601 553 q 499 685 601 685 q 244 602 385 685 q 58 418 104 519 q 33 331 33 364 q 82 288 33 288 q 115 292 93 288 q 146 296 136 296 q 157 289 157 296 q 118 261 157 272 q 65 254 89 254 q -22 326 -22 254 q -4 397 -22 358 q 218 619 53 519 q 517 718 379 718 q 653 607 653 718 q 613 471 653 553 q 499 218 572 389 q 475 114 475 151 q 506 74 475 74 q 708 231 581 74 q 826 379 749 279 q 911 515 854 425 q 917 561 913 531 q 951 611 921 582 q 1001 640 981 640 q 1018 622 1018 640 q 1017 615 1018 617 q 1004 583 1013 604 q 960 369 983 524 q 914 108 949 282 l 928 108 q 999 101 964 110 q 1049 67 1049 90 m 856 58 q 438 -94 667 22 q 144 -383 144 -243 q 263 -456 144 -456 q 458 -415 367 -456 q 703 -218 588 -358 q 856 58 813 -83 z "},"Z":{"ha":644,"x_min":-122,"x_max":750,"o":"m 750 557 q 633 351 750 467 q 438 194 572 292 l 453 194 q 576 100 576 197 q 569 54 576 79 l 581 54 q 706 26 696 56 q 692 15 704 15 q 667 21 682 15 q 646 27 651 26 q 613 28 640 28 q 561 26 586 28 q 532 -31 550 -1 q 151 -447 371 -308 q -35 -519 40 -519 q -122 -428 -122 -519 q -96 -324 -122 -381 q 161 -54 -21 -158 q 522 53 328 40 q 535 108 535 86 q 460 161 535 161 q 322 131 397 161 q 239 97 240 97 q 224 110 224 97 q 242 143 224 125 q 297 167 250 153 q 356 189 343 181 q 568 354 468 258 q 703 568 703 483 q 581 653 703 653 q 286 578 454 653 q 32 411 128 504 q 11 433 11 415 q 150 568 11 496 q 349 649 246 618 q 569 683 467 683 q 750 557 750 683 m 508 22 q 39 -192 215 -8 q -47 -312 -19 -253 q -71 -404 -71 -367 q -6 -475 -71 -475 q 132 -422 47 -475 q 344 -222 231 -361 q 508 22 449 -96 z "},"[":{"ha":813,"x_min":67,"x_max":796,"o":"m 796 968 q 794 950 796 968 q 775 949 786 949 q 725 951 758 949 q 675 954 692 954 q 599 944 615 954 q 514 861 568 925 q 272 488 403 731 q 121 83 121 208 q 228 6 121 6 q 281 9 246 6 q 332 13 315 13 q 372 -4 372 13 q 217 -24 372 -24 q 67 26 67 -24 q 247 536 67 192 q 563 974 426 881 q 656 997 599 997 q 796 968 796 997 z "},"\\":{"ha":765,"x_min":14,"x_max":726,"o":"m 726 -117 q 690 -161 726 -161 q 690 -133 690 -158 q 440 461 690 89 q 14 985 253 739 q 33 993 15 993 q 100 966 67 993 q 228 819 133 939 q 538 371 403 599 q 726 -117 726 50 z "},"]":{"ha":772,"x_min":44,"x_max":747,"o":"m 747 943 q 631 465 747 740 q 372 38 515 189 q 129 -24 314 -24 q 44 -21 67 -24 q 99 11 76 7 q 161 11 101 11 q 360 88 296 11 q 578 471 469 218 q 693 893 693 739 q 688 944 693 919 q 632 957 668 957 q 564 954 606 957 q 494 950 508 951 q 646 994 539 994 q 713 992 706 994 q 747 943 747 983 z "},"^":{"ha":514,"x_min":89,"x_max":467,"o":"m 467 460 l 461 450 q 358 499 432 451 q 258 572 283 546 q 100 456 118 456 q 89 469 89 456 q 174 553 89 483 q 278 626 258 624 l 286 624 q 460 474 340 563 l 467 460 z "},"_":{"ha":1119,"x_min":11,"x_max":1101,"o":"m 1101 -74 l 1092 -83 q 304 -93 701 -83 q 169 -97 272 -93 q 35 -101 86 -101 q 11 -61 11 -101 q 35 -35 11 -35 l 1063 -35 q 1101 -74 1097 -35 z "},"`":{"ha":307,"x_min":51,"x_max":240,"o":"m 240 424 q 231 417 240 417 q 151 460 224 417 q 64 515 79 503 q 51 540 51 524 q 65 558 51 558 q 89 547 74 558 q 235 433 143 508 q 240 424 240 429 z "},"a":{"ha":400,"x_min":22,"x_max":486,"o":"m 486 156 q 478 136 486 149 q 363 10 417 38 q 313 -3 338 -3 q 228 117 228 -3 q 231 158 228 136 q 65 -7 138 -7 q 22 40 22 -7 q 92 215 22 113 q 226 339 161 317 q 272 349 250 349 q 344 314 322 349 q 349 304 349 307 q 339 300 349 303 q 325 290 329 297 q 292 128 292 236 q 335 28 292 28 q 422 95 365 28 q 482 163 478 163 q 486 156 486 163 m 282 301 q 269 303 276 303 q 154 232 214 303 q 69 64 69 129 q 89 35 69 35 q 168 99 119 35 q 282 301 236 185 z "},"b":{"ha":338,"x_min":21,"x_max":499,"o":"m 499 786 q 494 778 499 783 q 408 681 444 726 q 244 446 325 579 q 122 190 149 288 q 207 310 158 256 q 325 386 274 386 q 367 326 367 386 q 313 131 367 242 q 218 0 275 54 q 76 -65 149 -65 q 21 -44 21 -65 q 29 -36 21 -36 q 49 -41 33 -36 q 76 -46 65 -46 q 200 25 139 -46 q 275 151 246 79 q 301 289 301 217 q 281 335 301 335 q 158 208 235 335 q 86 32 86 89 q 97 8 86 17 q 107 -6 107 0 q 100 -11 107 -11 q 49 64 49 -11 q 161 383 49 171 q 346 682 246 542 q 397 756 372 718 q 465 803 436 803 q 499 786 499 803 z "},"c":{"ha":306,"x_min":50,"x_max":401,"o":"m 401 164 q 393 149 401 158 q 258 19 344 78 q 153 -12 208 -12 q 50 97 50 -12 q 126 247 50 165 q 268 329 201 329 q 313 294 313 329 q 292 247 313 281 q 260 213 272 213 q 254 219 254 213 q 259 238 254 225 q 264 257 264 250 q 228 286 264 286 q 138 221 178 286 q 100 108 100 161 q 175 22 100 22 q 372 151 269 22 q 396 168 386 168 q 401 164 401 168 z "},"d":{"ha":400,"x_min":22,"x_max":633,"o":"m 633 761 q 301 225 633 614 q 293 133 293 176 q 338 28 293 28 q 423 95 367 28 q 483 163 479 163 q 488 156 488 163 q 481 136 488 149 q 311 -4 393 -4 q 239 106 239 -4 q 247 186 239 140 q 65 -7 139 -7 q 22 40 22 -7 q 111 240 22 126 q 288 354 206 363 q 390 633 333 514 q 575 828 485 828 q 633 761 633 828 m 579 758 q 554 789 579 789 q 400 563 486 789 q 310 265 343 414 q 579 758 579 631 m 272 289 q 269 294 272 290 q 254 297 267 297 q 133 211 199 297 q 68 67 68 125 q 89 36 68 36 q 168 99 119 36 q 228 194 186 122 q 272 289 272 274 z "},"e":{"ha":282,"x_min":36,"x_max":365,"o":"m 365 150 q 363 142 365 147 q 258 42 328 88 q 124 -7 185 -7 q 36 103 36 -7 q 99 261 36 175 q 236 353 165 353 q 260 340 250 353 q 271 314 271 328 q 206 210 271 271 q 99 138 147 156 q 89 79 89 103 q 140 22 89 22 q 250 63 189 22 q 340 142 303 97 q 360 156 350 156 q 365 150 365 156 m 229 297 q 213 314 229 314 q 151 250 192 314 q 108 165 117 196 q 183 219 144 181 q 229 297 229 264 z "},"f":{"ha":363,"x_min":-87,"x_max":454,"o":"m 454 696 q 450 681 454 689 q 322 490 438 656 q 151 221 219 344 q 172 229 161 229 q 244 79 215 229 q 306 58 281 58 q 385 102 342 58 q 433 146 428 146 q 440 138 440 146 q 436 126 440 133 q 289 11 354 11 q 249 28 265 11 q 253 -32 253 0 q 200 -276 253 -143 q 64 -483 143 -415 q -8 -515 25 -515 q -72 -458 -51 -515 q -87 -364 -87 -417 q -21 -65 -87 -253 q 104 222 33 90 q 253 504 153 317 q 307 606 294 585 q 371 700 340 665 q 419 725 393 725 q 454 696 454 725 m 225 -37 q 214 63 225 15 q 158 122 181 85 q 138 194 135 158 q -28 -371 -28 -176 q 17 -464 -28 -464 q 57 -446 35 -464 q 182 -260 136 -381 q 225 -37 225 -149 z "},"g":{"ha":364,"x_min":-353,"x_max":354,"o":"m 354 306 q 342 296 354 300 q 325 283 329 292 q 310 213 318 253 q 261 0 293 142 l 267 0 q 340 -32 340 3 q 335 -40 340 -40 q 323 -33 333 -40 q 283 -26 313 -26 q 256 -28 269 -26 q 124 -351 204 -236 q -196 -571 -26 -571 q -308 -532 -262 -571 q -353 -428 -353 -493 q -142 -143 -353 -279 q 206 -1 38 -28 q 238 158 215 51 q 72 -7 144 -7 q 29 40 29 -7 q 99 214 29 111 q 233 339 168 317 q 279 349 258 349 q 326 335 299 349 q 354 306 354 322 m 289 301 q 276 303 283 303 q 161 232 221 303 q 76 64 76 129 q 96 35 76 35 q 175 99 126 35 q 289 301 243 185 m 204 -26 q -14 -106 113 -42 q -208 -233 -140 -169 q -312 -432 -312 -333 q -278 -519 -312 -486 q -190 -551 -244 -551 q -21 -479 -104 -551 q 97 -333 46 -422 q 204 -26 171 -208 z "},"h":{"ha":432,"x_min":22,"x_max":617,"o":"m 617 747 q 472 499 617 657 q 253 288 411 432 q 147 186 215 256 q 117 120 139 175 q 96 53 96 65 q 97 49 97 51 q 199 167 128 89 q 306 274 276 253 q 328 282 318 282 q 360 253 360 282 q 293 67 293 108 q 336 18 293 18 q 419 58 376 18 q 485 133 449 83 q 518 174 514 174 q 522 165 522 174 q 515 142 522 156 q 318 -15 422 -15 q 243 75 243 -15 q 274 218 243 135 q 178 115 235 183 q 96 0 122 46 q 60 -11 81 -11 q 22 7 22 -11 q 82 172 22 39 q 281 547 171 374 q 557 815 450 815 q 617 747 617 815 m 568 736 q 538 782 568 782 q 325 551 463 782 q 168 242 231 393 q 406 469 258 300 q 568 736 568 658 z "},"i":{"ha":249,"x_min":36,"x_max":338,"o":"m 211 313 q 198 283 211 296 q 167 269 185 269 q 133 303 133 269 q 147 333 133 319 q 178 346 160 346 q 211 313 211 346 m 338 160 q 328 138 338 150 q 113 -31 201 -31 q 36 51 36 -31 q 64 165 36 93 q 117 269 89 232 q 136 282 125 282 q 159 271 149 282 q 169 247 169 260 q 164 232 169 240 q 94 51 94 124 q 131 1 94 1 q 221 46 171 1 q 294 126 254 75 q 331 171 329 171 q 338 160 338 171 z "},"j":{"ha":219,"x_min":-506,"x_max":214,"o":"m 213 351 q 199 322 213 335 q 169 308 186 308 q 136 342 136 308 q 149 372 136 358 q 179 385 163 385 q 213 351 213 385 m 214 -26 q 204 -36 214 -36 q 196 -33 203 -36 q 153 -26 183 -26 q 129 -28 140 -26 q -24 -351 64 -236 q -358 -571 -187 -571 q -464 -535 -422 -571 q -506 -437 -506 -500 q -281 -147 -506 -287 q 81 -1 -92 -28 q 117 172 99 51 q 56 104 60 104 q 47 114 47 104 q 51 124 47 119 q 128 288 114 210 q 169 314 132 314 q 193 299 193 314 q 176 181 193 267 q 136 0 157 81 l 140 0 q 182 -6 158 0 q 214 -26 214 -12 m 78 -26 q -147 -106 -17 -42 q -349 -233 -276 -169 q -467 -442 -467 -339 q -435 -522 -467 -493 q -351 -551 -403 -551 q -176 -479 -265 -551 q -50 -333 -107 -422 q 78 -26 32 -208 z "},"k":{"ha":506,"x_min":60,"x_max":653,"o":"m 653 758 q 478 479 653 658 q 211 249 365 365 q 165 136 183 190 q 303 274 235 206 q 454 371 406 371 q 490 318 490 371 q 415 213 490 264 q 290 167 346 164 q 401 33 319 33 q 578 160 482 33 q 594 172 586 172 q 601 165 601 172 q 596 151 601 160 q 501 49 563 103 q 386 -18 428 -18 q 283 53 335 -18 q 229 172 236 117 q 164 96 196 133 q 122 0 132 54 q 90 -7 107 -7 q 60 7 60 -7 q 118 172 60 39 q 314 544 204 369 q 590 815 483 815 q 653 758 653 815 m 621 739 q 597 768 621 768 q 486 704 561 768 q 263 371 354 594 q 242 311 242 319 q 468 506 340 372 q 621 739 621 661 m 431 297 q 413 325 431 325 q 261 196 385 325 q 286 185 267 185 q 379 222 328 185 q 431 297 431 258 z "},"l":{"ha":340,"x_min":67,"x_max":558,"o":"m 558 756 q 379 435 558 661 q 115 144 238 258 q 192 -7 115 -7 q 408 150 268 -7 q 419 157 414 157 q 426 147 426 157 q 422 136 426 142 q 311 25 374 72 q 171 -36 232 -36 q 67 135 67 -36 q 182 449 67 251 q 383 728 276 610 q 511 811 460 811 q 543 792 528 811 q 558 756 558 774 m 499 750 q 481 776 499 776 q 382 699 440 776 q 231 444 315 608 q 119 176 138 265 q 325 421 196 243 q 486 690 458 607 q 499 750 499 729 z "},"m":{"ha":531,"x_min":0,"x_max":619,"o":"m 619 153 q 617 144 619 147 q 539 54 582 96 q 439 -1 479 -1 q 374 143 374 -1 q 375 193 374 165 q 263 33 325 149 q 217 -6 242 -6 q 204 0 208 -6 q 200 39 200 15 q 218 186 200 79 q 228 256 228 240 q 224 267 228 267 q 147 176 200 246 q 25 0 90 101 q 11 -12 17 -12 q 0 13 0 -12 q 1 24 0 19 q 67 235 33 99 q 78 290 69 254 q 97 310 81 300 q 124 319 113 319 q 133 311 133 319 q 68 100 133 297 q 171 238 118 167 q 221 304 188 260 q 264 329 242 329 q 286 304 286 329 q 276 233 286 286 q 254 76 267 179 q 375 239 293 132 q 419 265 397 265 q 440 239 440 265 q 433 173 440 217 q 426 107 426 129 q 464 35 426 35 q 599 151 517 35 q 613 165 607 165 q 619 153 619 165 z "},"n":{"ha":386,"x_min":10,"x_max":476,"o":"m 476 165 q 468 142 476 156 q 272 -15 374 -15 q 193 85 193 -15 q 233 242 193 174 q 35 0 136 154 q 22 -12 26 -12 q 10 13 10 -12 q 13 24 10 19 q 74 225 42 94 q 88 290 78 247 q 107 310 92 300 q 135 319 122 319 q 144 311 144 319 q 79 100 144 297 q 183 218 96 122 q 269 313 213 251 q 292 322 281 322 q 324 290 324 322 q 318 274 324 283 q 240 71 240 146 q 290 18 240 18 q 374 58 329 18 q 439 133 403 83 q 472 174 468 174 q 476 165 476 174 z "},"o":{"ha":318,"x_min":33,"x_max":404,"o":"m 404 150 q 401 144 404 147 q 342 88 382 111 q 265 64 303 64 q 214 78 238 64 q 82 -24 150 -24 q 33 33 33 -24 q 103 219 33 113 q 100 250 100 235 q 133 347 100 300 q 215 394 167 394 q 267 357 247 394 q 282 290 282 325 q 224 100 282 215 q 271 88 244 88 q 357 124 317 88 q 394 160 397 160 q 404 150 404 160 m 240 256 q 231 318 240 286 q 194 363 217 363 q 144 324 163 363 q 132 257 131 293 q 176 283 154 283 q 207 269 197 283 q 207 263 207 268 q 208 256 208 258 q 194 251 208 251 q 142 199 169 251 q 206 113 160 146 q 240 256 240 200 m 194 93 q 125 164 149 124 q 83 38 83 76 q 104 10 83 10 q 156 43 124 10 q 194 93 183 69 z "},"p":{"ha":454,"x_min":-169,"x_max":544,"o":"m 544 165 q 536 142 544 156 q 417 22 500 82 q 267 -44 328 -44 q 229 -43 254 -44 q 193 -43 206 -43 q 151 -33 188 -43 q 35 -267 108 -144 q -135 -436 -69 -436 q -169 -385 -169 -436 q -44 -132 -169 -317 q 135 114 44 -10 l 135 122 q 133 210 135 172 q 67 124 81 124 q 58 133 58 124 q 63 144 58 139 q 124 299 124 231 q 116 322 124 313 q 108 331 108 331 q 151 342 108 342 q 199 247 199 342 q 197 206 199 233 q 194 167 194 179 q 281 297 233 238 q 401 386 353 386 q 446 321 446 386 q 388 131 446 239 q 263 -21 331 22 q 531 167 383 -18 q 539 174 536 174 q 544 165 544 174 m 385 292 q 361 335 385 335 q 347 332 354 335 q 242 203 297 310 q 175 40 200 124 q 224 -12 189 19 q 336 119 285 14 q 385 292 385 219 m 122 39 q 119 40 121 40 q 104 26 114 40 q 4 -121 71 -24 q -69 -247 -25 -162 q -121 -375 -121 -346 q -112 -387 -121 -387 q 56 -187 -51 -387 q 115 -6 83 -135 q 114 8 114 1 q 122 39 114 25 z "},"q":{"ha":369,"x_min":-6,"x_max":463,"o":"m 463 164 q 451 140 463 156 q 353 32 410 75 q 215 -11 282 -19 q 292 -115 267 -36 q 311 -247 311 -175 q 304 -324 311 -292 q 231 -494 285 -417 q 81 -590 163 -590 q 13 -532 36 -590 q -6 -436 -6 -489 q 7 -356 -6 -394 q 75 -186 28 -287 q 151 -18 113 -103 q 133 1 133 -12 q 142 10 133 10 q 153 8 144 10 q 165 7 161 7 q 243 149 199 63 q 74 8 132 8 q 33 50 33 8 q 113 227 33 121 q 260 356 192 333 q 306 364 285 364 q 375 331 354 364 q 378 324 378 325 q 360 315 378 322 q 331 281 343 308 q 346 283 339 283 q 364 269 364 283 q 295 153 364 269 q 224 14 226 36 q 235 14 229 14 q 444 163 331 14 q 457 171 451 171 q 463 164 463 171 m 313 318 q 300 319 307 319 q 179 249 244 319 q 82 75 82 140 q 100 51 82 51 q 183 114 131 51 q 313 318 257 201 m 289 -221 q 268 -108 289 -168 q 197 -32 240 -32 q 183 -53 194 -32 q 58 -326 103 -193 q 26 -475 26 -418 q 85 -550 26 -550 q 203 -474 146 -550 q 269 -342 247 -414 q 289 -221 289 -279 z "},"r":{"ha":410,"x_min":43,"x_max":503,"o":"m 503 165 q 494 142 503 154 q 279 -31 386 -31 q 201 60 201 -31 q 260 242 201 146 q 242 239 251 239 q 199 253 219 239 q 174 288 174 268 q 117 189 158 253 q 49 108 65 108 q 43 114 43 108 q 50 129 43 119 q 160 319 104 203 q 157 350 157 332 q 169 424 157 382 q 207 476 183 476 q 233 451 222 476 q 243 414 243 432 q 186 313 243 379 q 235 269 199 269 q 283 297 260 269 q 317 324 307 324 q 339 313 329 324 q 349 289 349 303 q 300 196 349 290 q 251 50 251 101 q 297 1 251 1 q 386 46 336 1 q 461 129 418 75 q 497 174 496 174 q 503 165 503 174 z "},"s":{"ha":363,"x_min":4,"x_max":453,"o":"m 453 157 q 450 146 453 151 q 296 53 404 74 q 253 -14 288 11 q 176 -39 219 -39 q 58 9 113 -39 q 4 119 4 57 q 26 160 4 160 q 56 140 40 160 q 124 244 78 163 q 201 360 171 325 q 300 415 250 415 q 340 403 319 415 q 360 372 360 390 q 328 361 360 361 q 269 341 296 361 q 243 290 243 321 q 247 267 243 279 q 282 176 265 221 q 300 82 300 122 q 438 164 382 94 q 444 168 442 168 q 453 157 453 168 m 239 92 q 215 206 239 122 q 196 306 192 283 q 68 124 122 189 q 239 78 153 82 q 239 92 239 85 m 232 47 q 44 96 117 46 l 40 92 q 158 0 78 0 q 232 47 213 0 z "},"t":{"ha":292,"x_min":1,"x_max":385,"o":"m 385 160 q 379 146 385 154 q 267 43 343 96 q 128 -14 182 -14 q 49 101 49 -14 q 99 293 49 190 q 1 329 1 293 q 15 338 1 338 q 68 335 32 338 q 122 332 104 332 q 183 443 131 346 q 250 543 224 519 q 304 563 269 563 q 335 550 335 563 q 333 546 335 549 q 278 475 314 521 q 179 328 217 393 q 235 326 199 326 q 264 328 244 326 q 293 328 283 328 q 310 319 310 328 q 165 294 310 299 q 124 197 143 260 q 104 94 104 135 q 158 22 104 22 q 271 69 204 22 q 361 154 328 110 q 379 167 371 167 q 385 160 385 167 z "},"u":{"ha":404,"x_min":28,"x_max":499,"o":"m 499 165 q 490 142 499 156 q 400 31 451 78 q 275 -31 333 -31 q 197 67 197 -31 q 218 154 197 89 q 156 67 169 83 q 74 13 110 13 q 28 90 28 13 q 57 197 28 135 q 126 269 89 269 q 147 258 147 269 q 112 195 147 257 q 76 100 76 133 q 103 56 76 56 q 263 258 147 56 q 292 313 272 278 q 313 324 301 324 q 335 313 325 324 q 346 289 346 303 q 297 196 346 290 q 247 50 247 101 q 293 1 247 1 q 382 46 332 1 q 457 129 415 75 q 494 174 492 174 q 499 165 499 174 z "},"v":{"ha":438,"x_min":39,"x_max":533,"o":"m 533 163 q 531 153 533 157 q 415 78 490 78 q 317 160 332 78 q 235 61 296 118 q 131 -3 168 -3 q 81 69 81 -3 q 104 172 81 118 q 101 168 103 171 q 60 110 83 131 q 43 100 49 100 q 39 106 39 100 q 96 186 39 115 q 167 269 149 253 q 194 281 179 281 q 211 269 211 281 q 206 256 211 264 q 114 56 114 129 q 142 26 114 26 q 239 93 182 26 q 310 197 285 146 l 310 204 q 308 232 310 214 q 307 258 307 250 q 367 360 307 338 q 383 364 376 364 q 401 339 401 364 q 349 203 401 281 l 349 194 q 371 128 347 160 q 428 97 394 97 q 494 136 461 97 q 525 175 528 175 q 533 163 533 175 z "},"w":{"ha":558,"x_min":38,"x_max":653,"o":"m 653 161 q 650 154 653 157 q 547 72 594 72 q 469 140 506 72 q 426 47 457 89 q 346 -7 389 -7 q 283 32 304 -7 q 269 108 265 65 q 181 13 236 63 q 74 -50 111 -50 q 38 -3 38 -50 q 96 171 38 58 q 214 293 160 293 q 229 283 229 293 q 225 276 229 281 q 131 139 188 235 q 68 -8 68 31 q 79 -22 68 -22 q 285 178 154 -22 q 328 242 301 207 q 346 246 335 246 q 368 228 368 246 q 318 78 318 149 q 358 31 318 31 q 424 90 388 31 q 463 178 449 133 q 433 285 433 274 q 451 306 433 306 q 488 281 474 306 q 501 232 501 256 q 489 179 501 207 q 553 99 508 99 q 610 135 579 99 q 644 171 642 171 q 653 161 653 171 z "},"x":{"ha":340,"x_min":4,"x_max":438,"o":"m 438 168 q 428 149 438 163 q 275 3 335 3 q 172 131 232 3 q 87 49 160 121 q 10 -22 14 -22 q 4 -17 4 -22 q 75 67 4 -6 q 161 158 153 146 q 133 221 153 192 q 102 165 129 206 q 67 124 75 124 q 58 133 58 124 q 80 170 58 135 q 101 231 101 206 q 97 253 101 232 q 96 257 96 254 q 140 281 96 281 q 185 244 161 281 q 210 188 204 214 q 300 254 213 189 q 383 306 371 306 q 389 301 389 306 q 314 238 389 294 q 224 160 235 176 q 253 94 238 128 q 299 51 274 51 q 378 112 331 51 q 433 172 425 172 q 438 168 438 172 z "},"y":{"ha":381,"x_min":-326,"x_max":367,"o":"m 367 -32 q 363 -40 367 -40 q 350 -33 361 -40 q 310 -26 339 -26 q 283 -28 296 -26 q 151 -351 231 -236 q -169 -571 1 -571 q -281 -532 -236 -571 q -326 -428 -326 -493 q -114 -143 -326 -279 q 232 -1 64 -28 q 276 254 251 85 q 217 148 260 214 q 143 50 174 82 q 75 13 107 13 q 31 90 31 13 q 58 197 31 135 q 129 269 90 269 q 149 258 149 269 q 114 195 149 257 q 79 100 79 133 q 104 56 79 56 q 292 335 147 56 q 326 356 294 356 q 351 344 351 356 q 333 226 351 326 q 288 0 313 108 l 293 0 q 367 -32 367 3 m 231 -26 q 13 -106 139 -42 q -181 -233 -114 -169 q -286 -432 -286 -333 q -252 -519 -286 -486 q -162 -551 -218 -551 q 6 -479 -78 -551 q 124 -333 72 -422 q 231 -26 197 -208 z "},"z":{"ha":467,"x_min":-240,"x_max":451,"o":"m 451 -32 q 447 -40 451 -40 q 435 -33 444 -40 q 396 -26 425 -26 q 368 -28 382 -26 q 236 -351 365 -162 q -85 -571 86 -571 q -196 -532 -151 -571 q -240 -428 -240 -493 q -29 -143 -240 -279 q 317 -1 150 -28 q 249 86 315 86 q 206 73 235 86 q 168 60 178 60 q 150 76 150 60 q 163 97 150 85 q 313 282 313 235 q 278 313 313 313 q 100 164 193 313 q 86 150 90 150 q 81 157 81 150 q 86 174 81 164 q 167 282 117 238 q 286 333 225 333 q 361 271 361 333 q 250 114 361 203 l 254 114 q 333 81 300 115 q 369 0 365 47 l 375 0 q 450 -19 440 1 q 451 -32 451 -25 m 317 -26 q 97 -106 224 -42 q -96 -233 -29 -169 q -201 -432 -201 -333 q -167 -519 -201 -486 q -78 -551 -133 -551 q 210 -333 81 -551 q 317 -26 314 -157 z "},"{":{"ha":358,"x_min":21,"x_max":411,"o":"m 411 704 l 403 701 q 260 614 293 701 q 221 436 240 525 q 164 339 203 376 q 64 296 119 296 l 60 296 q 134 265 104 293 q 164 193 164 236 q 146 75 164 153 q 128 -43 128 -3 q 160 -111 128 -96 q 235 -125 197 -118 l 236 -128 q 225 -131 231 -131 q 135 -115 164 -131 q 94 -37 94 -94 q 115 81 94 3 q 135 199 135 158 q 21 293 135 292 l 25 300 q 139 336 107 308 q 196 476 181 372 q 236 632 214 596 q 406 706 281 706 q 411 704 410 706 z "},"|":{"ha":243,"x_min":57,"x_max":176,"o":"m 176 600 q 146 236 176 499 q 85 -94 111 -56 q 57 -114 71 -114 q 57 -112 57 -114 q 67 -65 57 -108 q 96 65 78 -21 q 132 489 132 279 q 125 619 132 574 q 119 650 125 628 q 113 685 113 672 q 131 696 113 696 q 176 600 176 696 z "},"}":{"ha":472,"x_min":24,"x_max":457,"o":"m 457 288 l 451 279 q 285 172 328 278 q 224 -22 254 75 q 31 -128 172 -128 q 24 -125 25 -128 q 73 -119 29 -122 q 142 -97 117 -115 q 214 53 179 -69 q 292 219 250 181 q 429 286 354 278 q 321 374 321 293 q 349 502 321 418 q 376 629 376 586 q 346 685 376 675 q 278 696 313 690 l 276 699 l 283 703 q 413 629 413 703 q 382 497 413 583 q 351 365 351 411 q 457 288 351 299 z "},"~":{"ha":421,"x_min":67,"x_max":374,"o":"m 374 621 q 319 563 374 600 q 281 550 301 550 q 212 569 257 550 q 143 588 167 588 q 97 569 119 588 q 68 551 75 551 q 67 556 67 553 q 125 611 67 576 q 176 625 149 625 q 243 610 200 625 q 308 596 286 596 q 365 626 342 596 q 374 621 374 626 z "},"":{"ha":231,"x_min":0,"x_max":0,"o":""},"":{"ha":347,"x_min":-110,"x_max":292,"o":"m 292 219 q 257 186 292 186 q 219 219 219 186 q 257 253 219 253 q 292 219 292 253 m 208 86 q 88 -171 208 63 q -60 -444 -24 -387 q -64 -447 -61 -447 q -91 -433 -72 -447 q -110 -411 -110 -419 q -99 -396 -110 -411 q 42 -190 14 -233 q 158 31 118 -71 q 176 78 164 46 q 199 99 185 99 q 208 86 208 99 z "},"":{"ha":410,"x_min":35,"x_max":426,"o":"m 426 663 q 425 657 426 660 q 296 454 379 592 q 303 436 303 447 q 286 395 303 424 q 258 367 269 367 q 254 372 254 367 q 258 388 254 378 q 263 404 263 399 q 232 428 263 428 q 158 376 190 428 q 126 279 126 324 q 189 208 126 208 q 353 317 265 208 q 372 331 364 331 q 376 326 376 331 q 325 263 376 310 q 257 207 282 224 q 169 179 215 179 q 147 182 158 179 q 53 -56 101 121 q 49 -58 51 -58 q 35 -49 35 -58 q 42 -8 35 -40 q 117 194 69 131 q 83 271 83 218 q 149 399 83 329 q 272 464 215 469 q 333 571 288 493 q 394 666 386 660 q 411 672 403 672 q 426 663 426 672 z "},"":{"ha":935,"x_min":47,"x_max":917,"o":"m 917 40 q 838 -57 917 -25 q 703 -81 781 -81 q 382 14 564 -81 q 229 -37 300 -37 q 108 6 164 -37 q 47 115 47 51 q 93 154 47 154 q 382 40 157 154 q 521 325 454 131 l 329 325 q 317 333 317 325 q 342 357 317 357 l 532 357 q 688 675 608 583 q 824 761 763 761 q 889 735 864 761 q 914 668 914 710 q 800 510 914 567 q 786 506 792 506 q 781 511 781 506 q 799 536 781 522 q 826 558 808 543 q 882 679 882 611 q 844 732 882 732 q 826 728 836 732 q 674 568 749 703 q 578 357 643 514 l 811 357 q 819 350 819 357 q 789 325 819 325 l 565 325 q 497 169 519 213 q 407 31 449 68 q 550 -25 457 -1 q 701 -47 638 -47 q 821 -29 769 -47 q 893 49 893 -4 q 874 91 893 72 q 854 114 854 110 q 860 121 854 121 q 868 117 864 121 q 917 40 917 82 m 347 22 q 229 79 315 46 q 107 113 143 113 q 92 104 92 113 q 134 22 92 57 q 225 -14 176 -14 q 347 22 294 -14 z "},"":{"ha":815,"x_min":21,"x_max":946,"o":"m 946 642 q 928 572 946 613 q 881 525 906 525 q 868 538 868 525 q 892 581 868 543 q 915 647 915 618 q 796 717 915 717 q 518 639 669 717 q 282 469 388 571 q 467 478 381 478 q 669 446 669 478 q 657 433 669 433 q 581 441 633 433 q 503 449 529 449 q 242 429 390 449 q 161 322 193 376 q 413 338 292 338 q 615 306 615 338 q 603 293 615 293 q 527 301 579 293 q 449 308 475 308 q 139 282 315 308 q 103 142 103 204 q 168 14 103 57 q 314 -21 224 -21 q 563 46 425 -21 q 781 188 678 101 q 788 192 785 192 q 800 178 800 192 q 796 169 800 174 q 557 11 693 75 q 282 -60 407 -60 q 117 -19 185 -60 q 35 119 35 28 q 81 272 35 188 q 26 261 22 261 q 21 267 21 261 q 46 306 21 296 q 107 315 54 308 q 188 421 140 368 q 81 401 65 401 q 75 407 75 401 q 100 446 75 436 q 229 464 121 453 q 488 656 347 581 q 793 744 651 744 q 946 642 946 744 z "},"":{"ha":647,"x_min":28,"x_max":690,"o":"m 690 846 l 690 842 q 265 442 436 663 q 364 428 344 436 q 368 424 368 426 q 360 417 368 417 q 244 413 317 417 q 183 301 204 357 q 364 286 329 301 q 368 282 368 283 q 360 274 368 274 q 171 267 283 274 q 132 99 151 207 q 118 18 129 71 q 63 -8 110 -8 q 42 3 42 -8 q 69 136 42 58 q 119 264 94 200 q 56 257 47 257 q 39 269 49 257 q 28 289 29 282 l 29 293 q 132 301 46 297 q 163 408 143 333 q 110 404 150 408 q 56 400 76 400 q 39 413 49 400 q 28 432 29 425 l 29 435 q 171 444 54 443 q 194 606 194 546 q 167 732 194 657 q 147 775 164 736 q 129 815 129 814 q 171 831 129 831 q 232 624 232 831 q 214 444 232 514 l 219 443 q 447 668 313 542 q 674 847 639 847 q 690 846 681 847 z "},"":{"ha":231,"x_min":63,"x_max":171,"o":"m 171 582 q 156 338 171 365 q 138 329 150 329 q 125 338 125 329 q 128 410 125 361 q 131 483 131 458 q 124 610 131 564 q 119 633 124 615 q 114 660 114 651 q 131 671 114 671 q 171 582 171 671 m 146 268 q 121 103 146 243 q 89 -47 96 -37 q 65 -65 78 -62 l 63 -64 q 92 63 74 -21 q 113 197 104 129 q 119 268 114 228 q 133 274 122 274 q 146 268 146 274 z "},"":{"ha":792,"x_min":72,"x_max":796,"o":"m 796 646 q 793 622 796 633 q 766 579 789 601 q 722 557 743 557 q 715 561 715 557 q 736 587 715 560 q 757 635 757 614 q 668 688 757 688 q 479 649 592 688 q 343 543 343 601 q 396 488 343 510 q 613 419 504 453 q 763 289 763 364 q 743 228 763 261 q 701 179 724 196 q 682 124 701 153 q 479 -11 628 43 q 235 -58 349 -58 q 72 46 72 -58 q 149 161 72 107 q 281 226 204 201 q 299 231 292 231 q 308 226 308 231 q 283 211 308 219 q 174 150 222 189 q 113 49 113 101 q 257 -24 113 -24 q 478 15 358 -24 q 654 132 625 61 q 660 154 660 144 q 467 281 660 224 q 349 324 383 306 q 279 417 279 361 q 311 499 279 464 q 304 529 304 513 q 451 669 304 611 q 668 718 571 718 q 796 646 796 718 m 731 267 q 639 363 731 321 q 456 422 604 378 q 321 485 344 457 q 313 449 313 465 q 403 350 313 390 q 579 289 492 319 q 697 199 681 251 q 731 267 731 242 z "},"":{"ha":363,"x_min":44,"x_max":322,"o":"m 322 593 q 301 569 322 599 q 279 514 290 542 q 242 476 263 476 q 222 491 232 476 q 213 517 213 506 q 253 567 213 538 q 317 596 294 596 q 322 594 319 596 l 322 596 q 322 593 322 594 m 154 593 q 133 569 154 599 q 111 514 122 542 q 74 476 94 476 q 54 491 64 476 q 44 517 44 506 q 85 567 44 538 q 149 596 126 596 q 154 594 151 596 l 154 596 q 154 593 154 594 z "},"":{"ha":886,"x_min":57,"x_max":807,"o":"m 807 506 q 637 192 807 343 q 301 40 467 40 q 132 99 203 40 q 57 257 57 160 q 233 575 57 421 q 569 725 403 725 q 738 664 668 725 q 807 506 807 603 m 754 494 q 699 640 754 583 q 556 697 644 697 q 253 554 400 697 q 107 256 107 411 q 174 119 107 172 q 321 69 235 69 q 611 208 468 69 q 754 494 754 347 m 654 569 q 629 525 654 526 l 622 531 q 629 564 629 572 q 579 613 629 613 q 350 483 471 613 q 229 243 229 353 q 294 176 229 176 q 474 237 363 176 q 574 297 585 297 q 578 293 578 297 q 460 200 578 246 q 299 160 357 160 q 219 181 251 160 q 182 249 182 204 q 321 503 182 376 q 586 625 456 625 q 654 569 654 625 z "},"":{"ha":333,"x_min":22,"x_max":486,"o":"m 486 489 q 478 469 486 482 q 363 343 417 371 q 313 331 338 331 q 228 450 228 331 q 231 492 228 469 q 65 326 138 326 q 22 374 22 326 q 92 548 22 446 q 226 672 161 650 q 272 682 250 682 q 344 647 322 682 q 349 638 349 640 q 339 633 349 636 q 325 624 329 631 q 292 461 292 569 q 335 361 292 361 q 422 428 365 361 q 482 496 478 496 q 486 489 486 496 m 282 635 q 269 636 276 636 q 154 565 214 636 q 69 397 69 463 q 89 368 69 368 q 168 432 119 368 q 282 635 236 518 z "},"":{"ha":583,"x_min":118,"x_max":513,"o":"m 513 606 q 375 393 513 585 q 511 207 511 222 q 496 189 511 188 l 485 194 q 407 276 454 236 q 317 347 361 313 q 313 356 313 350 q 386 475 313 371 q 478 599 449 565 q 504 614 490 614 q 513 606 513 614 m 318 606 q 181 393 318 585 q 315 207 315 222 q 301 189 315 188 l 290 194 q 211 276 260 236 q 122 347 167 313 q 118 356 118 350 q 190 475 118 371 q 282 599 254 565 q 308 614 294 614 q 318 606 318 614 z "},"":{"ha":472,"x_min":46,"x_max":633,"o":"m 633 944 q 439 499 633 786 q 114 117 268 243 q 282 -6 161 -6 q 561 117 410 -6 q 575 124 571 124 q 578 121 578 124 q 567 104 578 115 q 417 4 511 44 q 240 -36 324 -36 q 97 38 154 -36 q 46 196 46 106 q 143 571 46 357 q 310 831 201 700 q 540 1028 432 979 q 578 1036 560 1036 q 633 944 633 1036 m 581 921 q 547 989 581 989 q 513 981 526 989 q 458 942 500 974 q 232 664 336 846 q 140 450 176 567 q 99 222 99 322 q 107 147 99 182 q 408 497 236 218 q 581 921 581 776 z "},"":{"ha":317,"x_min":26,"x_max":303,"o":"m 303 168 q 267 157 303 158 q 192 153 242 156 q 61 140 150 147 l 54 140 q 26 150 26 139 q 75 185 26 169 q 138 193 97 193 q 267 182 186 193 q 303 168 303 176 z "},"":{"ha":886,"x_min":57,"x_max":807,"o":"m 807 506 q 637 192 807 343 q 301 40 467 40 q 132 99 203 40 q 57 257 57 160 q 233 575 57 421 q 569 725 403 725 q 738 664 668 725 q 807 506 807 603 m 754 494 q 699 640 754 583 q 556 697 644 697 q 258 561 403 697 q 493 610 381 610 q 610 589 560 610 q 679 504 679 561 q 581 394 679 435 q 422 363 506 364 q 472 244 442 296 q 567 171 517 172 q 754 494 754 321 m 644 514 q 488 593 644 593 q 350 567 438 593 q 217 517 268 543 q 107 256 107 386 q 174 119 107 172 q 321 69 235 69 q 540 150 428 69 q 439 240 489 163 q 381 367 400 301 q 364 371 368 367 l 379 376 l 389 383 l 401 379 q 644 514 644 413 m 497 569 q 453 510 496 565 q 313 324 358 392 q 214 121 224 192 q 208 106 213 106 q 193 156 193 106 q 304 378 193 217 q 467 585 399 517 l 497 569 z "},"":{"ha":317,"x_min":26,"x_max":303,"o":"m 303 597 q 267 586 303 588 q 192 582 242 586 q 61 569 150 576 l 54 569 q 26 579 26 568 q 75 614 26 599 q 138 622 97 622 q 267 611 186 622 q 303 597 303 606 z "},"":{"ha":393,"x_min":90,"x_max":329,"o":"m 329 564 q 294 479 329 514 q 210 444 258 444 q 125 479 160 444 q 90 564 90 514 q 125 649 90 614 q 210 683 160 683 q 294 649 258 683 q 329 564 329 614 m 299 564 q 272 626 299 600 q 210 653 246 653 q 147 626 174 653 q 121 564 121 600 q 147 501 121 528 q 210 475 174 475 q 272 501 246 475 q 299 564 299 528 z "},"":{"ha":608,"x_min":85,"x_max":561,"o":"m 561 419 l 561 414 l 549 406 q 339 404 490 406 q 329 200 336 215 q 318 192 325 192 q 313 203 315 192 q 304 331 304 232 q 304 363 304 340 q 304 399 304 386 l 304 403 q 208 399 278 403 q 111 396 147 396 q 94 406 103 396 q 85 425 86 415 l 92 432 q 304 438 149 439 q 300 533 303 464 q 296 629 296 593 q 306 646 296 638 q 326 654 317 654 l 333 647 q 339 438 340 592 q 553 428 436 436 q 561 419 561 424 m 444 114 q 436 107 444 107 q 310 99 393 107 q 185 90 226 90 q 167 103 178 90 q 156 124 157 115 l 158 125 q 293 135 188 135 q 440 118 407 135 q 444 114 444 117 z "},"":{"ha":435,"x_min":42,"x_max":415,"o":"m 415 604 q 328 479 415 551 q 149 350 240 422 q 176 351 158 350 q 204 351 196 351 q 293 333 269 351 q 297 325 297 329 q 294 322 297 324 q 288 325 292 322 q 225 342 256 342 q 100 315 175 342 q 51 299 49 299 q 42 315 42 299 q 86 342 42 326 q 161 379 121 354 q 299 482 228 421 q 394 613 394 567 q 357 650 394 650 q 188 525 292 650 q 181 521 185 521 q 176 526 176 521 l 176 528 q 229 605 183 563 q 311 656 275 647 q 354 660 335 660 q 415 604 415 660 z "},"":{"ha":325,"x_min":-11,"x_max":319,"o":"m 319 650 q 217 557 319 608 q 272 472 272 524 q 210 361 272 410 q 85 313 149 313 q -3 361 13 313 q -11 404 -11 386 q -1 422 -11 422 q 4 417 4 422 q 81 326 4 326 q 195 374 144 326 q 246 488 246 422 q 190 549 246 549 q 174 544 186 549 q 157 540 163 540 q 149 547 149 540 q 169 561 149 561 q 179 561 174 561 q 189 561 185 561 q 251 592 213 561 q 289 646 289 622 q 257 669 289 669 q 200 651 229 669 q 174 633 171 633 q 171 636 171 633 q 175 644 171 640 q 220 674 188 661 q 275 688 253 688 q 319 650 319 688 z "},"":{"ha":307,"x_min":67,"x_max":254,"o":"m 254 488 q 243 461 254 471 q 156 406 228 449 q 76 363 85 363 q 67 371 67 363 q 72 381 67 376 q 218 493 122 418 q 242 506 233 506 q 254 488 254 506 z "},"":{"ha":433,"x_min":-181,"x_max":528,"o":"m 528 165 q 519 142 528 156 q 428 31 481 78 q 303 -31 361 -31 q 225 67 225 -31 q 246 154 225 89 q 185 67 197 83 q 101 13 138 13 q 58 58 68 13 q -135 -362 -135 -267 q -118 -382 -135 -382 q -85 -368 -107 -382 q -53 -354 -64 -354 l -50 -356 q -91 -394 -51 -372 q -150 -417 -131 -417 q -181 -379 -181 -417 q -93 -135 -181 -307 q 71 160 -72 -94 q 158 351 158 317 q 143 369 158 369 q 99 348 124 369 q 65 326 74 326 q 64 329 64 328 q 111 370 64 342 q 174 399 158 399 q 214 372 214 399 q 139 194 214 331 q 107 139 128 176 q 97 94 97 118 q 131 56 97 56 q 292 258 175 56 q 321 313 300 278 q 340 324 329 324 q 363 313 353 324 q 374 289 374 303 q 324 196 374 290 q 275 50 275 101 q 321 1 275 1 q 411 46 361 1 q 485 129 443 75 q 522 174 519 174 q 528 165 528 174 z "},"":{"ha":761,"x_min":-72,"x_max":868,"o":"m 868 882 q 842 875 864 878 q 806 863 821 872 q 629 592 731 818 q 460 183 544 388 q 300 -78 364 -40 q 283 -82 293 -82 q 275 -76 275 -82 q 294 -54 278 -69 q 461 289 369 17 q 554 567 507 428 q 692 822 617 732 q 678 822 678 822 q 458 564 582 822 q 318 211 403 450 q 175 -65 267 68 q -50 -246 53 -246 q -72 -233 -71 -246 q -58 -225 -68 -225 q 189 29 64 -225 q 333 396 229 110 q 119 553 119 415 q 254 761 119 672 q 501 842 376 842 q 576 844 526 842 q 651 847 626 847 q 706 842 685 847 q 824 900 763 900 q 868 882 860 900 z "},"":{"ha":200,"x_min":165,"x_max":235,"o":"m 235 185 q 200 151 235 151 q 165 185 165 151 q 200 218 165 218 q 235 185 235 218 z "},"":{"ha":311,"x_min":21,"x_max":240,"o":"m 240 -251 q 167 -357 240 -318 q 33 -389 107 -389 q 21 -374 21 -389 q 33 -362 21 -367 q 133 -347 83 -354 q 182 -267 182 -333 q 146 -197 182 -247 q 110 -118 110 -146 q 136 -34 110 -71 q 207 3 163 3 q 224 -7 222 3 q 176 -37 193 -12 q 160 -94 160 -62 q 200 -162 160 -111 q 240 -251 240 -212 z "},"":{"ha":290,"x_min":50,"x_max":261,"o":"m 261 664 q 261 661 261 663 q 192 550 236 628 q 94 358 138 451 q 65 292 85 336 q 57 289 64 289 q 50 294 50 289 q 51 300 50 296 q 188 608 101 401 q 176 603 183 608 q 164 597 168 597 q 160 601 160 597 q 167 614 160 607 q 238 679 190 636 q 242 679 239 679 q 261 664 261 679 z "},"":{"ha":265,"x_min":33,"x_max":404,"o":"m 404 475 q 401 469 404 472 q 342 413 382 436 q 265 389 303 389 q 214 403 238 389 q 82 301 150 301 q 33 358 33 301 q 103 544 33 438 q 100 575 100 560 q 133 672 100 625 q 215 719 167 719 q 267 682 247 719 q 282 615 282 650 q 224 425 282 540 q 271 413 244 413 q 357 449 317 413 q 394 485 397 485 q 404 475 404 485 m 240 581 q 231 643 240 611 q 194 688 217 688 q 144 649 163 688 q 132 582 131 618 q 176 608 154 608 q 207 594 197 608 q 207 588 207 593 q 208 581 208 583 q 194 576 208 576 q 142 524 169 576 q 206 438 160 471 q 240 581 240 525 m 194 418 q 125 489 149 449 q 83 363 83 401 q 104 335 83 335 q 156 368 124 335 q 194 418 183 394 z "},"":{"ha":583,"x_min":118,"x_max":535,"o":"m 535 438 q 461 318 535 422 q 369 194 399 228 q 343 179 357 179 q 335 188 335 179 q 472 400 335 208 q 336 586 336 572 q 351 604 336 606 l 363 599 q 440 519 393 557 q 531 446 486 481 q 535 438 535 443 m 318 438 q 244 318 318 422 q 153 194 182 228 q 126 179 140 179 q 118 188 118 179 q 256 400 118 208 q 119 586 119 572 q 135 604 119 606 l 146 599 q 223 519 176 557 q 314 446 269 481 q 318 438 318 443 z "},"":{"ha":643,"x_min":50,"x_max":642,"o":"m 642 699 q 639 692 642 696 q 536 590 604 658 q 104 47 201 251 q 75 -26 96 31 q 64 -33 72 -33 q 53 -24 53 -33 q 78 42 53 -12 q 479 596 188 281 q 594 710 515 636 q 614 715 603 715 q 642 699 642 715 m 261 664 q 261 661 261 663 q 192 550 236 628 q 94 358 138 451 q 65 292 85 336 q 57 289 64 289 q 50 294 50 289 q 51 300 50 296 q 188 608 101 401 q 176 603 183 608 q 164 597 168 597 q 160 601 160 597 q 167 614 160 607 q 238 679 190 636 q 242 679 239 679 q 261 664 261 679 m 572 354 l 572 339 q 515 254 561 328 q 469 172 469 181 q 499 165 469 169 q 529 151 529 160 q 524 146 529 146 q 499 149 515 146 q 475 153 483 153 q 457 151 464 153 q 372 -21 424 93 q 365 -10 365 -19 q 396 68 365 3 q 433 151 431 143 q 428 154 432 154 q 340 143 397 154 q 269 132 283 132 q 263 142 263 132 q 313 179 263 144 q 443 271 378 225 q 558 381 517 326 q 572 354 572 381 m 528 325 q 439 256 483 288 q 333 175 403 229 q 442 172 372 172 q 528 325 458 172 z "},"":{"ha":639,"x_min":50,"x_max":642,"o":"m 642 699 q 639 692 642 696 q 536 590 604 658 q 104 47 201 251 q 75 -26 96 31 q 64 -33 72 -33 q 53 -24 53 -33 q 78 42 53 -12 q 479 596 188 281 q 594 710 515 636 q 614 715 603 715 q 642 699 642 715 m 261 664 q 261 661 261 663 q 192 550 236 628 q 94 358 138 451 q 65 292 85 336 q 57 289 64 289 q 50 294 50 289 q 51 300 50 296 q 188 608 101 401 q 176 603 183 608 q 164 597 168 597 q 160 601 160 597 q 167 614 160 607 q 238 679 190 636 q 242 679 239 679 q 261 664 261 679 m 583 299 q 496 172 583 246 q 318 44 410 117 q 346 44 326 44 q 374 46 364 46 q 461 26 438 46 q 467 19 467 24 q 463 17 467 17 q 457 18 461 17 q 393 35 424 35 q 268 10 343 35 q 219 -8 218 -8 q 210 10 210 -8 q 254 36 210 21 q 331 74 289 49 q 467 176 397 114 q 563 306 563 261 q 525 344 563 344 q 356 218 460 344 q 350 214 353 214 q 344 219 344 214 l 344 222 q 398 298 351 256 q 481 349 444 340 q 522 354 503 354 q 583 299 583 354 z "},"":{"ha":671,"x_min":-11,"x_max":678,"o":"m 678 699 q 674 692 678 696 q 572 590 640 658 q 139 47 238 251 q 111 -26 132 31 q 100 -33 108 -33 q 88 -24 88 -33 q 114 42 88 -12 q 514 596 224 281 q 631 710 551 636 q 649 715 638 715 q 678 699 678 715 m 594 354 l 594 339 q 539 254 585 328 q 493 172 493 181 q 523 165 493 169 q 553 151 553 160 q 547 146 553 146 q 523 149 539 146 q 499 153 507 153 q 481 151 488 153 q 396 -21 447 93 q 389 -10 389 -19 q 419 68 389 3 q 457 151 454 143 q 451 154 456 154 q 364 143 421 154 q 293 132 307 132 q 286 142 286 132 q 336 179 286 144 q 467 271 401 225 q 582 381 540 326 q 594 354 596 381 m 551 325 q 463 256 507 288 q 357 175 426 229 q 464 172 394 172 q 551 325 481 172 m 319 650 q 217 557 319 608 q 272 472 272 524 q 210 361 272 410 q 85 313 149 313 q -3 361 13 313 q -11 404 -11 386 q -1 422 -11 422 q 4 417 4 422 q 81 326 4 326 q 195 374 144 326 q 246 488 246 422 q 190 549 246 549 q 174 544 186 549 q 157 540 163 540 q 149 547 149 540 q 169 561 149 561 q 179 561 174 561 q 189 561 185 561 q 251 592 213 561 q 289 646 289 622 q 257 669 289 669 q 200 651 229 669 q 174 633 171 633 q 171 636 171 633 q 175 644 171 640 q 220 674 188 661 q 275 688 253 688 q 319 650 319 688 z "},"":{"ha":500,"x_min":-7,"x_max":421,"o":"m 419 219 q 385 186 419 186 q 349 219 349 186 q 385 253 349 253 q 419 219 419 253 m 421 -247 q 411 -267 421 -254 q 358 -319 399 -286 q 90 -440 215 -440 q 25 -418 53 -440 q -7 -358 -7 -394 q 83 -208 -7 -289 q 250 -78 167 -143 q 340 50 340 -4 q 331 68 340 65 q 349 92 333 92 q 372 58 372 92 q 285 -89 372 0 q 124 -237 204 -162 q 36 -369 36 -322 q 81 -411 36 -411 q 357 -290 218 -411 q 399 -247 371 -275 q 413 -242 404 -242 q 421 -247 421 -242 z "},"":{"ha":1046,"x_min":19,"x_max":1121,"o":"m 1114 794 q 1107 779 1114 790 q 911 293 989 582 q 974 257 974 274 q 958 243 974 243 q 933 252 957 243 q 904 263 910 261 q 863 -1 863 96 q 876 -49 863 -49 q 910 -31 889 -49 q 936 -14 932 -14 q 949 -29 949 -14 q 922 -60 949 -44 q 876 -76 894 -76 q 824 11 824 -76 q 858 271 824 100 q 696 282 788 281 q 585 157 653 231 q 414 -7 474 38 q 194 -85 307 -85 q 74 -51 119 -85 q 19 57 19 -15 q 88 206 19 138 q 232 289 149 267 q 675 326 371 328 q 857 550 765 432 q 935 654 882 586 q 947 661 940 661 q 965 644 965 661 q 963 635 965 640 q 876 519 954 622 q 729 325 786 399 q 865 306 799 321 q 967 636 904 482 q 1021 758 982 679 q 1058 788 1026 768 q 1101 807 1090 807 q 1114 794 1114 807 m 636 282 l 597 282 q 236 250 360 282 q 115 182 167 231 q 57 60 57 126 q 96 -10 57 14 q 178 -31 128 -31 q 385 39 283 -31 q 550 189 450 83 q 636 282 592 231 m 1121 879 q 1113 871 1121 871 q 1033 915 1106 871 q 944 971 960 958 q 933 996 933 979 q 946 1014 933 1014 q 969 1001 956 1014 q 1117 889 1025 964 q 1121 879 1121 883 z "},"":{"ha":1042,"x_min":19,"x_max":1258,"o":"m 1114 794 q 1107 779 1114 790 q 911 293 989 582 q 974 257 974 274 q 958 243 974 243 q 933 252 957 243 q 903 263 910 261 q 863 -1 863 96 q 876 -49 863 -49 q 910 -31 889 -49 q 936 -14 932 -14 q 949 -29 949 -14 q 922 -60 949 -44 q 876 -76 894 -76 q 824 11 824 -76 q 858 271 824 100 q 694 282 788 281 q 585 157 653 231 q 414 -7 474 38 q 194 -85 307 -85 q 74 -51 119 -85 q 19 57 19 -15 q 88 206 19 138 q 232 289 149 267 q 675 326 371 328 q 857 550 765 432 q 935 654 882 586 q 947 661 940 661 q 965 644 965 661 q 963 635 965 640 q 876 519 954 622 q 729 325 786 399 q 865 306 799 321 q 965 636 904 482 q 1021 758 982 679 q 1058 788 1026 768 q 1101 807 1090 807 q 1114 794 1114 807 m 636 282 l 597 282 q 236 250 358 282 q 115 182 167 231 q 57 60 57 126 q 96 -10 57 14 q 178 -31 128 -31 q 385 39 283 -31 q 550 189 450 83 q 636 282 592 231 m 1258 969 q 1247 943 1258 953 q 1160 888 1232 931 q 1081 844 1089 844 q 1071 853 1071 844 q 1076 863 1071 858 q 1222 975 1126 900 q 1246 988 1238 988 q 1258 969 1258 988 z "},"":{"ha":1042,"x_min":19,"x_max":1244,"o":"m 1114 794 q 1107 779 1114 790 q 911 293 989 582 q 974 257 974 274 q 958 243 974 243 q 933 252 957 243 q 903 263 910 261 q 863 -1 863 96 q 876 -49 863 -49 q 910 -31 889 -49 q 936 -14 932 -14 q 949 -29 949 -14 q 922 -60 949 -44 q 876 -76 894 -76 q 824 11 824 -76 q 858 271 824 100 q 694 282 788 281 q 585 157 653 231 q 414 -7 474 38 q 194 -85 307 -85 q 74 -51 119 -85 q 19 57 19 -15 q 88 206 19 138 q 232 289 149 267 q 675 326 371 328 q 857 550 765 432 q 935 654 882 586 q 947 661 940 661 q 965 644 965 661 q 963 635 965 640 q 876 519 954 622 q 729 325 786 399 q 865 306 799 321 q 965 636 904 482 q 1021 758 982 679 q 1058 788 1026 768 q 1101 807 1090 807 q 1114 794 1114 807 m 636 282 l 597 282 q 236 250 358 282 q 115 182 167 231 q 57 60 57 126 q 96 -10 57 14 q 178 -31 128 -31 q 385 39 283 -31 q 550 189 450 83 q 636 282 592 231 m 1244 829 l 1240 822 q 1163 858 1219 822 q 1093 911 1111 892 q 978 826 990 826 q 969 836 969 826 q 1031 897 969 846 q 1107 950 1093 949 l 1113 947 q 1239 839 1153 904 l 1244 829 z "},"":{"ha":1029,"x_min":19,"x_max":1271,"o":"m 1114 794 q 1107 779 1114 790 q 911 293 989 582 q 974 257 974 274 q 958 243 974 243 q 933 252 957 243 q 904 263 910 261 q 863 -1 863 96 q 876 -49 863 -49 q 910 -31 889 -49 q 936 -14 932 -14 q 949 -29 949 -14 q 922 -60 949 -44 q 876 -76 894 -76 q 824 11 824 -76 q 858 271 824 100 q 696 282 788 281 q 585 157 653 231 q 414 -7 474 38 q 194 -85 307 -85 q 74 -51 119 -85 q 19 57 19 -15 q 88 206 19 138 q 232 289 149 267 q 675 326 371 328 q 857 550 765 432 q 935 654 882 586 q 947 661 940 661 q 965 644 965 661 q 963 635 965 640 q 876 519 954 622 q 729 325 786 399 q 865 306 799 321 q 967 636 904 482 q 1021 758 982 679 q 1058 788 1026 768 q 1101 807 1090 807 q 1114 794 1114 807 m 636 282 l 597 282 q 236 250 360 282 q 115 182 167 231 q 57 60 57 126 q 96 -10 57 14 q 178 -31 128 -31 q 385 39 283 -31 q 550 189 450 83 q 636 282 592 231 m 1271 947 q 1206 881 1271 924 q 1160 867 1186 867 q 1079 888 1132 867 q 1000 910 1026 910 q 946 889 972 910 q 911 869 919 868 q 910 872 910 869 q 939 908 910 883 q 979 939 963 929 q 1039 956 1007 956 q 1117 938 1065 956 q 1194 921 1168 921 q 1261 954 1233 921 q 1271 947 1271 956 z "},"":{"ha":1042,"x_min":19,"x_max":1254,"o":"m 1114 794 q 1107 779 1114 790 q 911 293 989 582 q 974 257 974 274 q 958 243 974 243 q 933 252 957 243 q 903 263 910 261 q 863 -1 863 96 q 876 -49 863 -49 q 910 -31 889 -49 q 936 -14 932 -14 q 949 -29 949 -14 q 922 -60 949 -44 q 876 -76 894 -76 q 824 11 824 -76 q 858 271 824 100 q 694 282 788 281 q 585 157 653 231 q 414 -7 474 38 q 194 -85 307 -85 q 74 -51 119 -85 q 19 57 19 -15 q 88 206 19 138 q 232 289 149 267 q 675 326 371 328 q 857 550 765 432 q 935 654 882 586 q 947 661 940 661 q 965 644 965 661 q 963 635 965 640 q 876 519 954 622 q 729 325 786 399 q 865 306 799 321 q 965 636 904 482 q 1021 758 982 679 q 1058 788 1026 768 q 1101 807 1090 807 q 1114 794 1114 807 m 636 282 l 597 282 q 236 250 358 282 q 115 182 167 231 q 57 60 57 126 q 96 -10 57 14 q 178 -31 128 -31 q 385 39 283 -31 q 550 189 450 83 q 636 282 592 231 m 1254 971 q 1233 947 1254 976 q 1211 892 1222 919 q 1174 854 1194 854 q 1154 869 1164 854 q 1144 894 1144 883 q 1185 944 1144 915 q 1249 974 1226 974 q 1254 972 1251 974 l 1254 974 q 1254 971 1254 972 m 1086 971 q 1065 947 1086 976 q 1043 892 1054 919 q 1006 854 1026 854 q 986 869 996 854 q 976 894 976 883 q 1017 944 976 915 q 1081 974 1058 974 q 1086 972 1083 974 l 1086 974 q 1086 971 1086 972 z "},"":{"ha":1042,"x_min":24,"x_max":1104,"o":"m 1104 768 q 1083 696 1104 732 q 1029 644 1061 660 q 904 290 956 483 q 968 257 968 269 q 958 247 968 247 q 950 250 954 247 q 899 268 929 261 q 857 4 857 99 q 876 -53 857 -53 q 912 -36 890 -53 q 935 -19 933 -19 q 943 -29 943 -19 q 917 -58 943 -43 q 876 -72 892 -72 q 828 11 828 -72 q 863 275 828 101 q 692 286 790 285 q 581 160 650 235 q 411 -3 469 40 q 193 -79 306 -79 q 76 -49 121 -79 q 24 57 24 -12 q 90 203 24 136 q 232 285 150 263 q 676 322 374 324 q 938 651 815 483 q 922 692 922 665 q 962 788 922 735 q 1044 842 1001 842 q 1088 819 1071 842 q 1104 768 1104 797 m 1071 765 q 1040 815 1071 815 q 990 778 1013 815 q 968 711 968 740 q 999 669 968 669 q 1053 703 1031 669 q 1071 765 1071 732 m 971 638 l 958 640 l 957 638 q 842 476 914 569 q 719 321 781 399 q 868 300 794 318 q 971 638 907 479 m 646 288 l 597 288 q 233 254 361 289 q 110 185 163 235 q 51 60 51 128 q 92 -14 51 11 q 176 -35 125 -35 q 386 35 283 -35 q 553 185 451 79 q 646 288 597 232 z "},"":{"ha":1325,"x_min":24,"x_max":1594,"o":"m 1594 679 q 1561 663 1594 663 q 1467 675 1536 675 q 1233 642 1289 675 q 1019 418 1203 622 q 1031 413 1024 413 q 1143 418 1068 413 q 1257 424 1218 424 q 1351 414 1351 424 q 1311 397 1351 406 q 1133 382 1279 392 q 961 346 1024 375 q 876 228 935 335 q 818 88 818 121 q 940 8 818 8 q 1264 96 1065 8 q 1382 150 1319 122 q 1375 139 1381 149 q 1161 15 1331 78 q 914 -40 1006 -40 q 775 71 775 -40 q 914 368 775 189 q 749 357 858 365 q 581 160 640 224 q 411 -3 472 42 q 194 -79 306 -79 q 76 -49 121 -79 q 24 57 24 -12 q 311 311 24 217 q 733 392 493 371 q 1029 642 890 574 q 1408 711 1174 711 q 1571 699 1521 711 q 1594 679 1594 693 m 1144 636 q 1131 651 1140 643 q 936 544 1042 624 q 775 390 836 469 q 942 403 826 397 q 997 464 961 422 q 1144 636 1044 522 m 703 357 q 319 278 481 331 q 51 60 51 192 q 92 -14 51 11 q 178 -35 126 -35 q 383 33 279 -35 q 557 188 463 85 q 703 357 631 272 z "},"":{"ha":717,"x_min":-7,"x_max":897,"o":"m 897 642 q 793 468 897 547 q 597 392 696 392 q 496 469 496 392 q 521 525 496 525 q 531 513 531 525 q 529 500 531 508 q 528 488 528 492 q 599 433 528 433 q 765 504 672 433 q 858 644 858 575 q 743 713 858 713 q 697 710 719 713 q 425 609 578 697 q 171 403 272 521 q 58 147 58 269 q 110 31 58 71 q 235 -6 156 -6 q 725 192 488 -6 q 736 196 731 196 q 753 178 753 196 q 747 165 753 171 q 507 7 646 72 q 231 -65 354 -65 q 67 -24 129 -65 q -7 121 -7 25 q 86 369 -7 235 q 371 635 196 529 q 740 750 558 750 q 897 642 897 750 m 214 -260 q 140 -365 214 -326 q 7 -397 81 -397 q -6 -382 -6 -397 q 7 -371 -6 -375 q 107 -356 57 -362 q 156 -275 156 -342 q 119 -205 156 -256 q 83 -126 83 -154 q 110 -46 83 -81 q 181 -11 136 -11 q 197 -21 196 -11 q 133 -103 133 -32 q 174 -170 133 -119 q 214 -260 214 -221 z "},"":{"ha":661,"x_min":42,"x_max":949,"o":"m 949 642 q 904 526 949 588 q 811 442 864 474 q 793 436 801 436 q 769 458 769 436 q 781 478 769 468 q 910 644 910 578 q 794 713 910 713 q 476 610 651 713 q 218 394 319 518 q 438 408 336 408 q 647 369 647 408 q 628 351 647 351 q 559 359 610 351 q 481 367 508 367 q 179 342 351 367 q 110 149 110 238 q 172 22 110 65 q 314 -17 226 -17 q 778 192 526 -17 q 788 196 783 196 q 806 178 806 196 q 800 165 806 171 q 558 7 697 72 q 282 -65 407 -65 q 118 -24 181 -65 q 46 121 46 25 q 114 332 46 217 q 51 319 46 319 q 42 329 42 319 q 71 374 42 364 q 150 388 82 378 q 432 640 261 539 q 793 750 617 750 q 949 642 949 750 m 842 811 q 833 803 842 803 q 753 847 826 803 q 667 901 681 890 q 654 928 654 911 q 668 944 654 944 q 690 933 676 944 q 838 821 746 896 q 842 811 842 815 z "},"":{"ha":814,"x_min":42,"x_max":979,"o":"m 949 642 q 904 526 949 588 q 811 442 864 474 q 793 436 801 436 q 769 458 769 436 q 781 478 769 468 q 910 644 910 578 q 794 713 910 713 q 476 610 651 713 q 218 394 319 518 q 438 408 336 408 q 647 369 647 408 q 628 351 647 351 q 559 359 610 351 q 481 367 508 367 q 179 342 351 367 q 110 149 110 238 q 172 22 110 65 q 314 -17 226 -17 q 778 192 526 -17 q 788 196 783 196 q 806 178 806 196 q 800 165 806 171 q 558 7 697 72 q 282 -65 407 -65 q 118 -24 181 -65 q 46 121 46 25 q 114 332 46 217 q 51 319 46 319 q 42 329 42 319 q 71 374 42 364 q 150 388 82 378 q 432 640 261 539 q 793 750 617 750 q 949 642 949 750 m 979 935 q 965 907 979 918 q 882 853 951 896 q 800 810 808 810 q 792 818 792 810 q 796 826 792 822 q 942 940 847 865 q 965 951 957 951 q 979 935 979 951 z "},"":{"ha":815,"x_min":42,"x_max":949,"o":"m 949 642 q 904 526 949 588 q 811 442 864 474 q 793 436 801 436 q 769 458 769 436 q 781 478 769 468 q 910 644 910 578 q 794 713 910 713 q 476 610 651 713 q 218 394 319 518 q 438 408 336 408 q 647 369 647 408 q 628 351 647 351 q 559 359 610 351 q 481 367 508 367 q 179 342 351 367 q 110 149 110 238 q 172 22 110 65 q 314 -17 226 -17 q 778 192 526 -17 q 788 196 783 196 q 806 178 806 196 q 800 165 806 171 q 558 7 697 72 q 282 -65 407 -65 q 118 -24 181 -65 q 46 121 46 25 q 114 332 46 217 q 51 319 46 319 q 42 329 42 319 q 71 374 42 364 q 150 388 82 378 q 432 640 261 539 q 793 750 617 750 q 949 642 949 750 m 935 793 l 929 785 q 853 822 910 786 q 782 874 800 854 q 667 789 681 789 q 660 799 660 789 q 721 860 660 810 q 796 914 782 911 l 803 911 q 929 803 842 867 l 935 793 z "},"":{"ha":815,"x_min":42,"x_max":949,"o":"m 949 642 q 904 526 949 588 q 811 442 864 474 q 793 436 801 436 q 769 458 769 436 q 781 478 769 468 q 910 644 910 578 q 794 713 910 713 q 476 610 651 713 q 218 394 319 518 q 438 408 336 408 q 647 369 647 408 q 628 351 647 351 q 559 359 610 351 q 481 367 508 367 q 179 342 351 367 q 110 149 110 238 q 172 22 110 65 q 314 -17 226 -17 q 778 192 526 -17 q 788 196 783 196 q 806 178 806 196 q 800 165 806 171 q 558 7 697 72 q 282 -65 407 -65 q 118 -24 181 -65 q 46 121 46 25 q 114 332 46 217 q 51 319 46 319 q 42 329 42 319 q 71 374 42 364 q 150 388 82 378 q 432 640 261 539 q 793 750 617 750 q 949 642 949 750 m 947 914 q 926 890 947 919 q 904 835 915 863 q 867 797 888 797 q 847 812 857 797 q 838 838 838 826 q 878 888 838 858 q 942 917 919 917 q 947 915 944 917 l 947 917 q 947 914 947 915 m 779 914 q 758 890 779 919 q 736 835 747 863 q 699 797 719 797 q 679 812 689 797 q 669 838 669 826 q 710 888 669 858 q 774 917 751 917 q 779 915 776 917 l 779 917 q 779 914 779 915 z "},"":{"ha":635,"x_min":7,"x_max":938,"o":"m 938 683 q 922 672 938 672 l 918 674 q 690 693 843 682 q 490 393 565 535 q 358 64 382 188 q 486 72 429 72 q 639 43 613 72 q 647 15 647 33 q 633 -8 647 -8 q 551 5 610 -8 q 463 18 492 18 q 354 13 413 18 q 382 -28 356 -28 q 417 -12 394 -28 q 443 3 439 3 q 454 -10 454 3 q 426 -41 454 -26 q 379 -56 397 -56 q 318 10 324 -56 q 164 -19 283 6 q 24 -43 57 -43 q 7 -25 7 -43 q 21 -8 7 -14 q 106 15 31 -4 q 319 58 218 43 q 436 385 335 175 q 614 694 528 575 l 590 694 q 451 689 510 696 q 278 622 278 668 q 317 581 278 603 q 356 550 356 558 q 342 539 356 539 q 332 540 338 539 q 221 633 221 593 q 281 693 221 664 q 539 731 360 731 q 639 728 586 731 q 707 751 656 751 q 728 743 728 751 q 714 722 728 740 q 874 706 793 717 q 922 699 890 704 q 938 683 938 694 m 768 793 q 760 785 768 785 q 680 828 753 785 q 594 883 607 872 q 581 910 581 893 q 593 926 581 926 q 617 915 603 926 q 764 803 672 878 q 768 793 768 797 z "},"":{"ha":635,"x_min":7,"x_max":938,"o":"m 938 683 q 922 672 938 672 l 918 674 q 690 693 843 682 q 490 393 565 535 q 358 64 382 188 q 486 72 429 72 q 639 43 613 72 q 647 15 647 33 q 633 -8 647 -8 q 551 5 610 -8 q 463 18 492 18 q 354 13 413 18 q 382 -28 356 -28 q 417 -12 394 -28 q 443 3 439 3 q 454 -10 454 3 q 426 -41 454 -26 q 379 -56 397 -56 q 318 10 324 -56 q 164 -19 282 6 q 24 -43 57 -43 q 7 -25 7 -43 q 21 -8 7 -14 q 106 15 31 -4 q 319 58 218 43 q 436 385 335 175 q 614 694 528 575 l 590 694 q 451 689 510 696 q 278 622 278 668 q 317 581 278 603 q 356 550 356 558 q 342 539 356 539 q 332 540 338 539 q 221 633 221 593 q 281 693 221 664 q 539 731 360 731 q 639 728 586 731 q 707 751 656 751 q 728 743 728 751 q 714 722 728 740 q 874 706 793 717 q 922 699 890 704 q 938 683 938 694 m 914 953 q 903 926 914 936 q 816 871 888 914 q 736 828 744 828 q 726 836 726 828 q 732 846 726 842 q 878 958 782 883 q 901 971 893 971 q 914 953 914 971 z "},"":{"ha":635,"x_min":7,"x_max":938,"o":"m 938 683 q 922 672 938 672 l 918 674 q 690 693 843 682 q 490 393 565 535 q 358 64 382 188 q 486 72 429 72 q 639 43 613 72 q 647 15 647 33 q 633 -8 647 -8 q 551 5 610 -8 q 463 18 492 18 q 354 13 413 18 q 382 -28 356 -28 q 417 -12 394 -28 q 443 3 439 3 q 454 -10 454 3 q 426 -41 454 -26 q 379 -56 397 -56 q 318 10 324 -56 q 164 -19 283 6 q 24 -43 57 -43 q 7 -25 7 -43 q 21 -8 7 -14 q 106 15 31 -4 q 319 58 218 43 q 436 385 335 175 q 614 694 528 575 l 590 694 q 451 689 510 696 q 278 622 278 668 q 317 581 278 603 q 356 550 356 558 q 342 539 356 539 q 332 540 338 539 q 221 633 221 593 q 281 693 221 664 q 539 731 360 731 q 639 728 586 731 q 707 751 656 751 q 728 743 728 751 q 714 722 728 740 q 874 706 793 717 q 922 699 890 704 q 938 683 938 694 m 832 785 l 828 778 q 753 813 807 778 q 681 867 699 847 q 565 782 578 782 q 558 792 558 782 q 619 853 558 801 q 694 906 681 904 l 701 903 q 826 794 740 860 l 832 785 z "},"":{"ha":635,"x_min":7,"x_max":938,"o":"m 938 683 q 922 672 938 672 l 918 674 q 690 693 843 682 q 490 393 565 535 q 358 64 382 188 q 486 72 429 72 q 639 43 613 72 q 647 15 647 33 q 633 -8 647 -8 q 551 5 610 -8 q 463 18 492 18 q 354 13 413 18 q 382 -28 356 -28 q 417 -12 394 -28 q 443 3 439 3 q 454 -10 454 3 q 426 -41 454 -26 q 379 -56 397 -56 q 318 10 324 -56 q 164 -19 282 6 q 24 -43 57 -43 q 7 -25 7 -43 q 21 -8 7 -14 q 106 15 31 -4 q 319 58 218 43 q 436 385 335 175 q 614 694 528 575 l 590 694 q 451 689 510 696 q 278 622 278 668 q 317 581 278 603 q 356 550 356 558 q 342 539 356 539 q 332 540 338 539 q 221 633 221 593 q 281 693 221 664 q 539 731 360 731 q 639 728 586 731 q 707 751 656 751 q 728 743 728 751 q 714 722 728 740 q 874 706 793 717 q 922 699 890 704 q 938 683 938 694 m 869 901 q 849 878 869 907 q 826 822 838 850 q 789 785 810 785 q 769 799 779 785 q 760 825 760 814 q 801 875 760 846 q 864 904 842 904 q 869 903 867 904 l 869 904 q 869 901 869 903 m 701 901 q 681 878 701 907 q 658 822 669 850 q 621 785 642 785 q 601 799 611 785 q 592 825 592 814 q 633 875 592 846 q 696 904 674 904 q 701 903 699 904 l 701 904 q 701 901 701 903 z "},"":{"ha":1042,"x_min":-24,"x_max":1058,"o":"m 1058 432 q 981 215 1058 322 q 810 56 915 124 q 818 36 818 40 q 808 19 818 19 q 790 44 807 19 q 310 -83 582 -83 q 256 -82 281 -83 q 83 -44 161 -76 q -24 76 -24 0 q 64 226 -24 168 q 236 279 139 276 q 285 388 258 333 q 136 313 211 350 q 125 336 125 313 q 128 349 125 347 q 172 371 132 351 q 306 429 247 407 q 396 601 351 524 q 439 672 408 626 q 507 699 460 699 q 521 693 521 699 q 518 688 519 690 q 364 451 429 565 q 539 499 500 499 q 549 490 549 499 q 542 482 549 483 q 483 468 522 478 q 344 417 418 450 q 274 279 307 347 q 789 90 654 274 q 943 240 883 156 q 1014 440 1014 340 q 836 682 1014 599 q 519 747 699 747 q 100 643 282 747 q 85 638 90 638 q 71 654 71 638 q 111 703 71 681 q 300 757 172 736 q 499 775 408 775 q 857 704 703 775 q 1058 432 1058 611 m 768 75 q 553 210 701 157 q 300 256 421 256 q 261 254 281 256 q 175 13 175 75 q 176 1 175 8 q 178 -10 178 -6 q 168 -24 178 -24 q 150 10 150 -24 q 224 250 150 74 q 26 74 26 221 q 114 -29 26 8 q 256 -60 178 -57 q 290 -61 271 -61 q 768 75 558 -61 z "},"":{"ha":1228,"x_min":10,"x_max":1256,"o":"m 1218 522 q 1138 264 1218 440 q 1057 36 1057 88 q 1096 -6 1057 -6 q 1151 18 1118 -6 q 1189 42 1183 42 q 1194 35 1194 42 q 1156 -14 1194 7 q 1088 -35 1118 -35 q 1014 43 1014 -35 q 1056 196 1014 100 q 1108 317 1106 308 q 1153 442 1138 386 q 1169 531 1169 499 q 1135 579 1169 579 q 1092 568 1118 579 q 840 332 992 522 q 638 39 729 192 q 569 -58 615 -1 q 539 -28 539 -58 q 543 -11 539 -18 q 713 290 619 82 q 813 615 813 514 q 635 765 813 765 q 442 728 550 765 q 200 606 317 686 q 46 403 46 500 q 153 324 46 324 q 307 351 210 324 q 321 354 317 354 q 332 346 332 354 q 260 306 332 322 q 165 292 203 292 q 10 414 10 292 q 168 638 10 528 q 429 764 288 719 q 643 799 546 799 q 872 618 872 799 q 771 300 872 492 q 929 490 850 394 q 1117 619 1049 619 q 1218 522 1218 619 m 1256 817 q 1201 758 1256 796 q 1163 746 1183 746 q 1094 765 1139 746 q 1025 783 1049 783 q 979 765 1001 783 q 950 747 957 747 q 949 751 949 749 q 1007 807 949 772 q 1058 821 1031 821 q 1125 806 1082 821 q 1190 792 1168 792 q 1247 822 1224 792 q 1256 817 1256 822 z "},"":{"ha":897,"x_min":0,"x_max":974,"o":"m 974 499 q 896 289 974 400 q 612 51 797 146 q 253 -43 426 -43 q 71 103 71 -43 q 92 200 71 147 q 0 335 0 243 q 117 556 0 454 q 343 683 208 635 q 632 736 488 736 q 858 686 767 736 q 974 499 974 622 m 928 519 q 839 665 928 617 q 661 704 768 704 q 364 642 522 704 q 156 526 246 594 q 32 336 32 431 q 104 229 32 254 q 297 460 168 342 q 540 626 425 579 q 640 653 599 650 l 643 653 q 660 640 660 654 q 640 622 660 626 q 544 590 588 614 q 429 513 493 563 q 278 376 354 456 q 160 215 176 272 q 211 210 186 210 q 460 326 335 210 q 508 372 510 372 q 518 361 518 372 q 381 235 464 283 q 201 182 292 182 q 150 189 172 182 q 126 103 126 143 q 167 17 126 47 q 264 -14 207 -14 q 597 86 431 -14 q 853 324 753 179 q 928 519 928 432 m 858 796 q 850 789 858 789 q 770 832 843 789 q 682 888 697 875 q 671 913 671 896 q 683 931 671 931 q 707 919 693 931 q 854 806 763 881 q 858 796 858 801 z "},"":{"ha":897,"x_min":0,"x_max":974,"o":"m 974 499 q 896 289 974 400 q 612 51 797 146 q 253 -43 426 -43 q 71 103 71 -43 q 92 200 71 147 q 0 335 0 243 q 117 556 0 454 q 343 683 208 635 q 632 736 488 736 q 858 686 767 736 q 974 499 974 622 m 928 519 q 839 665 928 617 q 661 704 768 704 q 364 642 522 704 q 156 526 246 594 q 32 336 32 431 q 104 229 32 254 q 297 460 168 342 q 540 626 425 579 q 640 653 599 650 l 643 653 q 660 640 660 654 q 640 622 660 626 q 544 590 588 614 q 429 513 493 563 q 278 376 354 456 q 160 215 176 272 q 211 210 186 210 q 460 326 335 210 q 508 372 510 372 q 518 361 518 372 q 381 235 464 283 q 201 182 292 182 q 150 189 172 182 q 126 103 126 143 q 167 17 126 47 q 264 -14 207 -14 q 597 86 431 -14 q 853 324 753 179 q 928 519 928 432 m 915 908 q 904 882 915 892 q 817 826 889 869 q 738 783 746 783 q 728 792 728 783 q 733 801 728 797 q 879 914 783 839 q 903 926 894 926 q 915 908 915 926 z "},"":{"ha":897,"x_min":0,"x_max":974,"o":"m 974 499 q 896 289 974 400 q 612 51 797 146 q 253 -43 426 -43 q 71 103 71 -43 q 92 200 71 147 q 0 335 0 243 q 117 556 0 454 q 343 683 208 635 q 632 736 488 736 q 858 686 767 736 q 974 499 974 622 m 928 519 q 839 665 928 617 q 661 704 768 704 q 364 642 522 704 q 156 526 246 594 q 32 336 32 431 q 104 229 32 254 q 297 460 168 342 q 540 626 425 579 q 640 653 599 650 l 643 653 q 660 640 660 654 q 640 622 660 626 q 544 590 588 614 q 429 513 493 563 q 278 376 354 456 q 160 215 176 272 q 211 210 186 210 q 460 326 335 210 q 508 372 510 372 q 518 361 518 372 q 381 235 464 283 q 201 182 292 182 q 150 189 172 182 q 126 103 126 143 q 167 17 126 47 q 264 -14 207 -14 q 597 86 431 -14 q 853 324 753 179 q 928 519 928 432 m 872 771 l 868 763 q 793 798 847 764 q 721 851 739 832 q 606 767 618 767 q 599 776 599 767 q 660 838 599 786 q 735 892 721 889 l 740 889 q 867 779 781 844 l 872 771 z "},"":{"ha":897,"x_min":0,"x_max":974,"o":"m 974 499 q 896 289 974 400 q 612 51 797 146 q 253 -43 426 -43 q 71 103 71 -43 q 92 200 71 147 q 0 335 0 243 q 117 556 0 454 q 343 683 208 635 q 632 736 488 736 q 858 686 767 736 q 974 499 974 622 m 928 519 q 839 665 928 617 q 661 704 768 704 q 364 642 522 704 q 156 526 246 594 q 32 336 32 431 q 104 229 32 254 q 297 460 168 342 q 540 626 425 579 q 640 653 599 650 l 643 653 q 660 640 660 654 q 640 622 660 626 q 544 590 588 614 q 429 513 493 563 q 278 376 354 456 q 160 215 176 272 q 211 210 186 210 q 460 326 335 210 q 508 372 510 372 q 518 361 518 372 q 381 235 464 283 q 201 182 292 182 q 150 189 172 182 q 126 103 126 143 q 167 17 126 47 q 264 -14 207 -14 q 597 86 431 -14 q 853 324 753 179 q 928 519 928 432 m 904 868 q 850 810 904 847 q 811 797 832 797 q 742 816 788 797 q 674 835 697 835 q 628 817 650 835 q 599 799 606 799 q 597 803 597 800 q 656 858 597 824 q 707 872 679 872 q 774 858 731 872 q 839 843 817 843 q 896 874 872 843 q 904 868 904 874 z "},"":{"ha":897,"x_min":0,"x_max":974,"o":"m 974 499 q 896 289 974 400 q 612 51 797 146 q 253 -43 426 -43 q 71 103 71 -43 q 92 200 71 147 q 0 335 0 243 q 117 556 0 454 q 343 683 208 635 q 632 736 488 736 q 858 686 767 736 q 974 499 974 622 m 928 519 q 839 665 928 617 q 661 704 768 704 q 364 642 522 704 q 156 526 246 594 q 32 336 32 431 q 104 229 32 254 q 297 460 168 342 q 540 626 425 579 q 640 653 599 650 l 643 653 q 660 640 660 654 q 640 622 660 626 q 544 590 588 614 q 429 513 493 563 q 278 376 354 456 q 160 215 176 272 q 211 210 186 210 q 460 326 335 210 q 508 372 510 372 q 518 361 518 372 q 381 235 464 283 q 201 182 292 182 q 150 189 172 182 q 126 103 126 143 q 167 17 126 47 q 264 -14 207 -14 q 597 86 431 -14 q 853 324 753 179 q 928 519 928 432 m 878 900 q 857 876 878 906 q 835 821 846 849 q 797 783 818 783 q 778 798 788 783 q 768 824 768 813 q 809 874 768 844 q 872 903 850 903 q 878 901 875 903 l 878 903 q 878 900 878 901 m 710 900 q 689 876 710 906 q 667 821 678 849 q 629 783 650 783 q 610 798 619 783 q 600 824 600 813 q 641 874 600 844 q 704 903 682 903 q 710 901 707 903 l 710 903 q 710 900 710 901 z "},"":{"ha":386,"x_min":63,"x_max":349,"o":"m 349 117 q 328 92 349 104 q 292 79 307 79 q 224 124 258 79 q 183 197 196 158 q 86 71 153 153 q 74 64 79 64 q 63 74 63 64 q 176 217 63 99 q 131 328 131 304 q 153 340 131 340 q 165 332 161 340 q 200 239 181 304 q 257 301 229 271 q 318 347 303 347 l 321 344 q 207 221 318 332 q 247 151 217 188 q 313 111 282 111 q 329 116 319 111 q 344 121 339 121 l 349 117 z "},"":{"ha":1089,"x_min":29,"x_max":1118,"o":"m 1118 804 q 928 642 1114 797 q 1039 497 1039 593 q 978 340 1039 428 q 508 -22 818 108 q 328 -61 414 -61 q 260 -54 292 -61 q 125 -304 154 -204 q 117 -343 117 -333 q 115 -344 117 -344 q 96 -335 106 -344 q 86 -318 86 -326 q 231 -44 86 -237 q 124 119 124 -3 q 142 206 124 161 q 29 340 29 258 q 226 559 29 438 q 701 681 422 681 q 881 658 804 681 q 1101 810 1044 810 q 1118 804 1117 810 m 1007 500 q 903 621 1007 585 q 276 -31 485 256 q 325 -36 299 -36 q 503 7 400 -36 q 750 150 633 60 q 949 353 875 244 q 1007 500 1007 440 m 854 633 q 717 646 794 646 q 475 621 601 646 q 249 540 332 590 q 53 335 53 422 q 151 231 53 269 q 301 404 197 318 q 497 525 396 482 q 574 550 556 550 q 586 539 586 550 q 576 528 586 531 q 518 510 557 524 q 331 389 422 469 q 193 215 235 303 q 289 201 244 201 q 317 193 317 201 q 257 179 317 179 q 183 189 214 179 q 169 111 169 153 q 249 -22 169 11 q 572 349 372 138 q 854 633 732 518 z "},"":{"ha":892,"x_min":-22,"x_max":1082,"o":"m 1082 724 q 1079 718 1082 721 q 893 344 946 488 q 814 4 814 132 q 851 -79 814 -79 q 887 -60 865 -79 q 913 -40 908 -40 q 925 -53 925 -40 q 888 -92 925 -71 q 832 -114 851 -114 q 767 -10 767 -114 q 851 361 767 110 q 686 138 768 250 q 488 -19 558 -19 q 399 67 399 -19 q 465 286 399 140 q 572 499 519 392 q 601 603 601 561 q 499 685 601 685 q 244 602 385 685 q 58 418 104 519 q 33 331 33 364 q 82 288 33 288 q 115 292 93 288 q 146 296 136 296 q 157 289 157 296 q 118 261 157 272 q 65 254 89 254 q -22 326 -22 254 q -4 397 -22 358 q 216 619 53 519 q 517 718 379 718 q 653 607 653 718 q 614 471 653 553 q 481 192 567 379 q 447 61 447 104 q 476 21 447 21 q 675 178 549 21 q 867 456 767 293 q 925 557 888 489 q 999 703 947 608 q 1031 722 1007 714 q 1069 731 1054 731 q 1082 724 1082 731 m 875 724 q 865 717 875 717 q 786 760 858 717 q 699 815 714 803 q 686 840 686 824 q 700 858 686 858 q 724 847 708 858 q 869 733 778 808 q 875 724 875 729 z "},"":{"ha":892,"x_min":-22,"x_max":1082,"o":"m 1082 724 q 1079 718 1082 721 q 893 344 946 488 q 814 4 814 132 q 851 -79 814 -79 q 887 -60 865 -79 q 913 -40 908 -40 q 925 -53 925 -40 q 888 -92 925 -71 q 832 -114 851 -114 q 767 -10 767 -114 q 851 361 767 110 q 686 138 768 250 q 488 -19 558 -19 q 399 67 399 -19 q 465 286 399 140 q 572 499 519 392 q 601 603 601 561 q 499 685 601 685 q 244 602 385 685 q 58 418 104 519 q 33 331 33 364 q 82 288 33 288 q 115 292 93 288 q 146 296 136 296 q 157 289 157 296 q 118 261 157 272 q 65 254 89 254 q -22 326 -22 254 q -4 397 -22 358 q 216 619 53 519 q 517 718 379 718 q 653 607 653 718 q 614 471 653 553 q 481 192 567 379 q 447 61 447 104 q 476 21 447 21 q 675 178 549 21 q 867 456 767 293 q 925 557 888 489 q 999 703 947 608 q 1031 722 1007 714 q 1069 731 1054 731 q 1082 724 1082 731 m 928 844 q 917 818 928 828 q 830 763 901 806 q 750 719 758 719 q 740 728 740 719 q 744 736 740 733 q 892 850 796 775 q 915 863 907 863 q 928 844 928 863 z "},"":{"ha":957,"x_min":-22,"x_max":1082,"o":"m 1082 724 q 1079 718 1082 721 q 893 344 946 488 q 815 4 815 132 q 851 -79 815 -79 q 887 -60 865 -79 q 913 -40 908 -40 q 925 -53 925 -40 q 888 -92 925 -71 q 832 -114 851 -114 q 767 -10 767 -114 q 851 363 767 110 q 686 138 768 250 q 488 -19 558 -19 q 399 67 399 -19 q 465 286 399 140 q 572 499 519 392 q 601 603 601 561 q 499 685 601 685 q 244 602 385 685 q 58 418 104 519 q 33 331 33 364 q 82 288 33 288 q 115 292 93 288 q 146 296 136 296 q 157 289 157 296 q 118 261 157 272 q 65 254 89 254 q -22 326 -22 254 q -4 397 -22 358 q 218 619 53 519 q 517 718 379 718 q 653 607 653 718 q 614 471 653 553 q 481 192 567 379 q 447 61 447 104 q 476 21 447 21 q 675 178 549 21 q 867 456 767 293 q 925 557 888 489 q 999 703 947 608 q 1031 722 1007 714 q 1069 731 1054 731 q 1082 724 1082 731 m 949 701 l 944 694 q 869 729 924 694 q 797 783 815 764 q 682 699 694 699 q 675 708 675 699 q 736 769 675 718 q 811 822 797 821 l 818 819 q 943 711 857 776 l 949 701 z "},"":{"ha":957,"x_min":-22,"x_max":1082,"o":"m 1082 724 q 1079 718 1082 721 q 893 344 946 488 q 815 4 815 132 q 851 -79 815 -79 q 887 -60 865 -79 q 913 -40 908 -40 q 925 -53 925 -40 q 888 -92 925 -71 q 832 -114 851 -114 q 767 -10 767 -114 q 851 363 767 110 q 686 138 768 250 q 488 -19 558 -19 q 399 67 399 -19 q 465 286 399 140 q 572 499 519 392 q 601 603 601 561 q 499 685 601 685 q 244 602 385 685 q 58 418 104 519 q 33 331 33 364 q 82 288 33 288 q 115 292 93 288 q 146 296 136 296 q 157 289 157 296 q 118 261 157 272 q 65 254 89 254 q -22 326 -22 254 q -4 397 -22 358 q 218 619 53 519 q 517 718 379 718 q 653 607 653 718 q 614 471 653 553 q 481 192 567 379 q 447 61 447 104 q 476 21 447 21 q 675 178 549 21 q 867 456 767 293 q 925 557 888 489 q 999 703 947 608 q 1031 722 1007 714 q 1069 731 1054 731 q 1082 724 1082 731 m 981 860 q 960 836 981 865 q 938 781 949 808 q 900 743 921 743 q 881 758 890 743 q 871 783 871 772 q 912 833 871 804 q 975 863 953 863 q 981 861 978 863 l 981 863 q 981 860 981 861 m 813 860 q 792 836 813 865 q 769 781 781 808 q 732 743 753 743 q 713 758 722 743 q 703 783 703 772 q 744 833 703 804 q 807 863 785 863 q 813 861 810 863 l 813 863 q 813 860 813 861 z "},"":{"ha":1043,"x_min":-17,"x_max":1044,"o":"m 953 782 q 942 756 953 765 q 855 700 926 743 q 775 657 783 657 q 765 665 765 657 q 769 674 765 669 q 917 788 821 713 q 940 799 932 799 q 953 782 953 799 m 1044 67 q 1033 57 1044 57 q 1024 58 1028 57 q 951 75 985 75 q 900 69 929 75 q 669 -314 835 -154 q 267 -490 486 -490 q 163 -464 207 -490 q 110 -376 110 -432 q 419 -61 110 -212 q 874 97 639 47 q 899 281 890 161 q 913 469 906 375 q 806 317 900 447 q 681 150 718 194 q 521 38 582 38 q 429 122 429 38 q 518 377 429 203 q 607 603 607 551 q 499 690 607 690 q 242 606 383 690 q 54 419 101 522 q 29 331 29 365 q 82 282 29 282 q 116 287 94 282 q 147 292 138 292 q 151 289 151 292 q 114 265 151 275 q 64 258 85 258 q -17 328 -17 258 q 0 396 -17 357 q 219 615 57 517 q 518 713 382 713 q 649 607 649 713 q 610 474 649 554 q 524 296 567 385 q 469 114 469 174 q 506 68 469 68 q 713 228 583 68 q 915 514 807 344 q 921 560 917 529 q 953 607 925 579 q 1001 635 982 635 q 1013 622 1013 635 q 1013 617 1013 618 q 954 361 976 529 q 907 103 928 172 q 928 104 917 104 q 1044 67 1044 104 m 863 65 q 436 -89 672 31 q 140 -383 140 -240 q 263 -461 140 -461 q 461 -419 368 -461 q 708 -218 592 -362 q 863 65 821 -79 z "},"":{"ha":642,"x_min":-47,"x_max":794,"o":"m 794 543 q 714 393 794 463 q 560 308 647 336 q 389 279 472 279 q 260 288 326 279 q 117 -67 117 19 q 118 -78 117 -71 q 119 -87 119 -85 q 110 -101 119 -101 q 92 -69 92 -101 q 219 294 92 25 q 103 357 103 315 q 136 399 103 381 q 192 413 164 413 q 203 407 203 413 q 169 393 203 403 q 135 365 135 383 q 228 313 135 336 q 424 689 283 431 q -29 610 192 689 q -40 607 -36 607 q -47 613 -47 607 q -26 645 -47 628 q 11 668 -6 663 q 365 717 160 717 q 438 715 401 717 q 496 821 472 779 q 525 869 504 838 q 593 896 544 896 q 607 890 607 896 q 604 885 606 888 q 496 711 556 814 q 685 675 624 699 q 794 543 794 635 m 744 553 q 647 665 744 633 q 482 688 593 682 q 268 304 376 504 q 338 299 303 299 q 468 315 401 299 q 644 396 568 342 q 744 553 744 467 z "},"":{"ha":807,"x_min":-196,"x_max":768,"o":"m 768 681 q 694 494 768 568 q 508 417 621 419 q 647 364 592 403 q 715 242 715 317 q 665 118 715 179 q 433 -25 589 22 q 158 -65 308 -64 l 139 -65 q 72 -57 89 -65 q 64 -46 64 -51 q -167 -233 -62 -233 q -196 -218 -190 -233 q -179 -207 -192 -207 q 86 57 -53 -207 q 249 440 143 164 q 586 883 418 883 q 719 825 671 883 q 768 681 768 767 m 738 674 q 700 785 738 739 q 597 831 663 831 q 392 643 476 831 q 311 450 390 642 q 74 -29 178 132 l 86 -25 q 174 -33 143 -33 q 417 6 303 -33 q 621 138 551 51 q 667 249 667 194 q 419 388 667 388 q 372 407 372 388 q 378 429 372 417 q 426 424 400 424 q 710 565 633 424 q 738 674 738 617 z "},"":{"ha":400,"x_min":22,"x_max":486,"o":"m 486 156 q 478 136 486 149 q 363 10 417 38 q 313 -3 338 -3 q 228 117 228 -3 q 231 158 228 136 q 65 -7 138 -7 q 22 40 22 -7 q 92 215 22 113 q 226 339 161 317 q 272 349 250 349 q 344 314 322 349 q 349 304 349 307 q 339 300 349 303 q 325 290 329 297 q 292 128 292 236 q 335 28 292 28 q 422 95 365 28 q 482 163 478 163 q 486 156 486 163 m 282 301 q 269 303 276 303 q 154 232 214 303 q 69 64 69 129 q 89 35 69 35 q 168 99 119 35 q 282 301 236 185 m 315 418 q 308 411 315 411 q 242 447 300 411 q 172 492 183 482 q 160 515 160 501 q 169 529 160 529 q 242 482 179 529 q 313 425 300 438 q 315 418 315 422 z "},"":{"ha":400,"x_min":22,"x_max":486,"o":"m 486 156 q 478 136 486 149 q 363 10 417 38 q 313 -3 338 -3 q 228 117 228 -3 q 231 158 228 136 q 65 -7 138 -7 q 22 40 22 -7 q 92 215 22 113 q 226 339 161 317 q 272 349 250 349 q 344 314 322 349 q 349 304 349 307 q 339 300 349 303 q 325 290 329 297 q 292 128 292 236 q 335 28 292 28 q 422 95 365 28 q 482 163 478 163 q 486 156 486 163 m 282 301 q 269 303 276 303 q 154 232 214 303 q 69 64 69 129 q 89 35 69 35 q 168 99 119 35 q 282 301 236 185 m 379 508 q 368 482 379 492 q 281 426 353 469 q 201 382 210 382 q 192 392 192 382 q 197 400 192 396 q 343 514 247 439 q 367 525 358 525 q 379 508 379 525 z "},"":{"ha":400,"x_min":22,"x_max":486,"o":"m 486 156 q 478 136 486 149 q 363 10 417 38 q 313 -3 338 -3 q 228 117 228 -3 q 231 158 228 136 q 65 -7 138 -7 q 22 40 22 -7 q 92 215 22 113 q 226 339 161 317 q 272 349 250 349 q 344 314 322 349 q 349 304 349 307 q 339 300 349 303 q 325 290 329 297 q 292 128 292 236 q 335 28 292 28 q 422 95 365 28 q 482 163 478 163 q 486 156 486 163 m 282 301 q 269 303 276 303 q 154 232 214 303 q 69 64 69 129 q 89 35 69 35 q 168 99 119 35 q 282 301 236 185 m 379 393 l 376 388 q 317 415 360 389 q 261 457 275 442 q 171 390 181 390 q 165 399 165 390 q 213 446 165 406 q 272 488 261 486 l 276 486 q 375 401 308 451 l 379 393 z "},"":{"ha":400,"x_min":22,"x_max":486,"o":"m 486 156 q 478 136 486 149 q 363 10 417 38 q 313 -3 338 -3 q 228 117 228 -3 q 231 158 228 136 q 65 -7 138 -7 q 22 40 22 -7 q 92 215 22 113 q 226 339 161 317 q 272 349 250 349 q 344 314 322 349 q 349 304 349 307 q 339 300 349 303 q 325 290 329 297 q 292 128 292 236 q 335 28 292 28 q 422 95 365 28 q 482 163 478 163 q 486 156 486 163 m 282 301 q 269 303 276 303 q 154 232 214 303 q 69 64 69 129 q 89 35 69 35 q 168 99 119 35 q 282 301 236 185 m 399 440 q 358 399 399 425 q 331 390 346 390 q 280 403 313 390 q 231 415 247 415 q 197 403 214 415 q 175 390 179 390 q 174 393 174 392 q 217 433 174 408 q 254 443 235 443 q 302 433 271 443 q 350 422 333 422 q 392 443 375 422 q 399 440 399 444 z "},"":{"ha":400,"x_min":22,"x_max":486,"o":"m 486 156 q 478 136 486 149 q 363 10 417 38 q 313 -3 338 -3 q 228 117 228 -3 q 231 158 228 136 q 65 -7 138 -7 q 22 40 22 -7 q 92 215 22 113 q 226 339 161 317 q 272 349 250 349 q 344 314 322 349 q 349 304 349 307 q 339 300 349 303 q 325 290 329 297 q 292 128 292 236 q 335 28 292 28 q 422 95 365 28 q 482 163 478 163 q 486 156 486 163 m 282 301 q 269 303 276 303 q 154 232 214 303 q 69 64 69 129 q 89 35 69 35 q 168 99 119 35 q 282 301 236 185 m 381 489 q 365 469 374 481 q 346 425 356 447 q 315 393 333 393 q 299 406 307 393 q 292 426 292 418 q 326 467 292 443 q 376 492 360 492 q 381 490 378 492 l 381 490 q 381 489 381 490 m 244 489 q 228 469 238 481 q 210 425 218 447 q 179 393 196 393 q 163 406 171 393 q 156 426 156 418 q 189 467 156 443 q 240 492 222 492 q 244 490 242 492 l 244 490 q 244 489 244 490 z "},"":{"ha":400,"x_min":18,"x_max":406,"o":"m 406 131 q 364 65 406 113 q 302 8 322 18 q 261 -3 282 -3 q 189 97 189 -3 q 192 132 189 113 q 54 -6 115 -6 q 18 33 18 -6 q 73 174 18 92 q 181 279 128 256 q 169 308 169 290 q 197 374 169 338 q 253 411 224 411 q 294 361 294 411 q 257 285 294 314 q 290 254 290 271 q 283 250 290 251 q 271 242 275 249 q 243 107 243 196 q 279 24 243 24 q 351 79 304 24 q 401 135 397 135 q 406 131 406 135 m 271 358 q 250 393 271 393 q 216 367 231 393 q 201 321 201 342 q 221 292 201 292 q 257 314 243 292 q 271 358 271 336 m 235 251 q 224 253 231 253 q 116 179 175 253 q 57 53 57 106 q 75 29 57 29 q 168 121 111 29 q 235 251 210 188 z "},"":{"ha":392,"x_min":18,"x_max":467,"o":"m 467 125 q 465 118 467 122 q 379 35 438 74 q 267 -6 317 -6 q 219 10 233 -6 q 196 50 208 31 q 192 132 188 92 q 54 -6 115 -6 q 18 33 18 -6 q 76 178 18 93 q 189 283 133 263 q 228 290 208 290 q 286 263 267 290 q 360 294 322 294 q 389 261 389 294 q 335 175 389 225 q 246 114 286 129 q 238 65 238 86 q 279 19 238 19 q 446 118 360 19 q 463 129 456 129 q 467 125 467 129 m 354 249 q 340 261 354 261 q 289 208 322 261 q 253 138 261 164 q 317 183 285 151 q 354 249 354 219 m 235 251 q 224 253 231 253 q 116 178 175 253 q 57 53 57 104 q 75 29 57 29 q 168 122 111 29 q 235 251 210 189 z "},"":{"ha":256,"x_min":7,"x_max":335,"o":"m 335 136 q 282 72 335 119 q 215 17 240 33 q 119 -11 169 -14 q 99 -57 99 -26 q 125 -101 99 -68 q 151 -161 151 -135 q 103 -231 151 -204 q 15 -251 63 -251 q 7 -242 7 -251 q 15 -233 7 -236 q 81 -222 49 -229 q 114 -171 114 -215 q 90 -124 114 -157 q 65 -72 65 -90 q 96 -6 65 -28 q 42 82 42 11 q 105 206 42 138 q 224 275 168 275 q 260 246 260 275 q 243 206 260 233 q 217 178 226 178 q 213 183 213 178 q 216 198 213 188 q 219 214 219 208 q 190 239 219 239 q 114 183 149 239 q 83 90 83 135 q 146 18 83 18 q 311 126 225 18 q 331 140 322 140 q 335 136 335 140 z "},"":{"ha":282,"x_min":36,"x_max":365,"o":"m 365 150 q 363 142 365 147 q 258 42 328 88 q 124 -7 185 -7 q 36 103 36 -7 q 99 261 36 175 q 236 353 165 353 q 260 340 250 353 q 271 314 271 328 q 206 210 271 271 q 99 138 147 156 q 89 79 89 103 q 140 22 89 22 q 250 63 189 22 q 340 142 303 97 q 360 156 350 156 q 365 150 365 156 m 229 297 q 213 314 229 314 q 151 250 192 314 q 108 165 117 196 q 183 219 144 181 q 229 297 229 264 m 260 414 q 253 407 260 407 q 185 444 247 407 q 114 488 124 481 q 104 511 104 496 q 114 525 104 525 q 135 515 122 525 q 256 421 176 486 q 260 414 260 417 z "},"":{"ha":282,"x_min":36,"x_max":376,"o":"m 376 515 q 365 489 376 499 q 278 433 350 476 q 199 390 207 390 q 189 399 189 390 q 193 407 189 403 q 340 521 244 446 q 364 532 356 532 q 376 515 376 532 m 365 150 q 363 142 365 147 q 258 42 328 88 q 124 -7 185 -7 q 36 103 36 -7 q 99 261 36 175 q 236 353 165 353 q 260 340 250 353 q 271 314 271 328 q 206 210 271 271 q 99 138 147 156 q 89 79 89 103 q 140 22 89 22 q 250 63 189 22 q 340 142 303 97 q 360 156 350 156 q 365 150 365 156 m 229 297 q 213 314 229 314 q 151 250 192 314 q 108 165 117 196 q 183 219 144 181 q 229 297 229 264 z "},"":{"ha":282,"x_min":36,"x_max":365,"o":"m 365 150 q 363 142 365 147 q 258 42 328 88 q 124 -7 185 -7 q 36 103 36 -7 q 99 261 36 175 q 236 353 165 353 q 260 340 250 353 q 271 314 271 328 q 206 210 271 271 q 99 138 147 156 q 89 79 89 103 q 140 22 89 22 q 250 63 189 22 q 340 142 303 97 q 360 156 350 156 q 365 150 365 156 m 229 297 q 213 314 229 314 q 151 250 192 314 q 108 165 117 196 q 183 219 144 181 q 229 297 229 264 m 328 389 l 324 383 q 266 410 308 383 q 210 453 224 438 q 119 386 129 386 q 113 394 113 386 q 161 442 113 401 q 221 483 210 482 l 225 482 q 324 397 256 447 l 328 389 z "},"":{"ha":282,"x_min":36,"x_max":381,"o":"m 365 150 q 363 142 365 147 q 258 42 328 88 q 124 -7 185 -7 q 36 103 36 -7 q 99 261 36 175 q 236 353 165 353 q 260 340 250 353 q 271 314 271 328 q 206 210 271 271 q 99 138 147 156 q 89 79 89 103 q 140 22 89 22 q 250 63 189 22 q 340 142 303 97 q 360 156 350 156 q 365 150 365 156 m 229 297 q 213 314 229 314 q 151 250 192 314 q 108 165 117 196 q 183 219 144 181 q 229 297 229 264 m 381 489 q 365 469 374 481 q 346 425 356 447 q 315 393 333 393 q 299 406 307 393 q 292 426 292 418 q 326 467 292 443 q 376 492 360 492 q 381 490 378 492 l 381 490 q 381 489 381 490 m 244 489 q 228 469 238 481 q 210 425 218 447 q 179 393 196 393 q 163 406 171 393 q 156 426 156 418 q 189 467 156 443 q 240 492 222 492 q 244 490 242 492 l 244 490 q 244 489 244 490 z "},"":{"ha":249,"x_min":31,"x_max":281,"o":"m 281 133 q 274 115 281 125 q 94 -25 167 -25 q 31 43 31 -25 q 60 153 31 76 q 113 235 92 235 q 142 206 142 235 q 110 146 142 207 q 79 43 79 85 q 108 1 79 1 q 218 72 156 1 q 275 142 281 142 q 281 133 281 142 m 192 338 q 185 331 192 331 q 117 366 176 331 q 44 413 58 401 q 36 435 36 419 q 46 449 36 449 q 117 401 56 449 q 189 344 174 358 q 192 338 192 340 z "},"":{"ha":249,"x_min":31,"x_max":325,"o":"m 281 133 q 274 115 281 125 q 94 -25 167 -25 q 31 43 31 -25 q 60 153 31 76 q 113 235 92 235 q 142 206 142 235 q 110 146 142 207 q 79 43 79 85 q 108 1 79 1 q 218 72 156 1 q 275 142 281 142 q 281 133 281 142 m 325 433 q 314 408 325 417 q 228 353 297 394 q 147 310 154 310 q 138 317 138 310 q 142 325 138 321 q 289 440 193 364 q 313 451 303 451 q 325 433 325 451 z "},"":{"ha":249,"x_min":31,"x_max":281,"o":"m 281 133 q 274 115 281 125 q 94 -25 167 -25 q 31 43 31 -25 q 60 153 31 76 q 113 235 92 235 q 142 206 142 235 q 110 146 142 207 q 79 43 79 85 q 108 1 79 1 q 218 72 156 1 q 275 142 281 142 q 281 133 281 142 m 281 325 l 276 318 q 218 347 261 319 q 161 388 175 374 q 71 322 81 322 q 65 329 65 322 q 113 378 65 338 q 172 419 161 418 l 178 417 q 276 332 208 383 l 281 325 z "},"":{"ha":249,"x_min":31,"x_max":299,"o":"m 281 133 q 274 115 281 125 q 94 -25 167 -25 q 31 43 31 -25 q 60 153 31 76 q 113 235 92 235 q 142 206 142 235 q 110 146 142 207 q 79 43 79 85 q 108 1 79 1 q 218 72 156 1 q 275 142 281 142 q 281 133 281 142 m 299 429 q 282 410 292 421 q 263 364 272 388 q 233 333 250 333 q 217 346 225 333 q 210 367 210 358 q 243 408 210 383 q 294 432 276 432 q 299 431 296 432 l 299 431 q 299 429 299 431 m 163 429 q 146 410 156 421 q 126 364 136 388 q 96 333 114 333 q 81 346 89 333 q 72 367 72 358 q 106 408 72 383 q 158 432 140 432 q 161 431 160 432 l 161 431 q 163 429 163 431 z "},"":{"ha":265,"x_min":26,"x_max":303,"o":"m 303 403 q 297 394 303 397 q 244 372 279 389 q 244 353 244 363 q 229 229 244 297 q 175 81 210 150 q 68 -19 124 -19 q 26 26 26 -19 q 42 93 26 53 q 83 176 57 133 q 147 236 121 236 q 172 225 164 236 q 174 214 174 213 q 161 210 174 210 q 101 132 136 210 q 69 31 69 60 q 86 8 69 8 q 150 75 117 8 q 186 169 175 124 q 207 339 207 256 l 207 351 q 128 306 132 306 q 121 315 121 306 q 129 336 121 329 q 206 378 150 351 q 151 490 197 490 q 126 501 126 490 q 169 519 126 519 q 243 393 229 519 q 294 411 288 411 q 303 403 303 411 z "},"":{"ha":386,"x_min":10,"x_max":476,"o":"m 476 165 q 468 142 476 156 q 272 -15 374 -15 q 193 85 193 -15 q 233 242 193 174 q 35 0 136 154 q 22 -12 26 -12 q 10 13 10 -12 q 13 24 10 19 q 74 225 42 94 q 88 290 78 247 q 107 310 92 300 q 135 319 122 319 q 144 311 144 319 q 79 100 144 297 q 183 218 96 122 q 269 313 213 251 q 292 322 281 322 q 324 290 324 322 q 318 274 324 283 q 240 71 240 146 q 290 18 240 18 q 374 58 329 18 q 439 133 403 83 q 472 174 468 174 q 476 165 476 174 m 365 424 q 325 382 365 408 q 297 374 313 374 q 247 387 279 374 q 197 400 214 400 q 163 387 181 400 q 142 374 146 374 q 140 376 140 375 q 183 417 140 393 q 221 426 201 426 q 269 416 238 426 q 317 406 300 406 q 358 426 342 406 q 365 424 365 428 z "},"":{"ha":318,"x_min":33,"x_max":404,"o":"m 404 150 q 401 144 404 147 q 342 88 382 111 q 265 64 303 64 q 214 78 238 64 q 82 -24 150 -24 q 33 33 33 -24 q 103 219 33 113 q 100 250 100 235 q 133 347 100 300 q 215 394 167 394 q 267 357 247 394 q 282 290 282 325 q 224 100 282 215 q 271 88 244 88 q 357 124 317 88 q 394 160 397 160 q 404 150 404 160 m 240 256 q 231 318 240 286 q 194 363 217 363 q 144 324 163 363 q 132 257 131 293 q 176 283 154 283 q 207 269 197 283 q 207 263 207 268 q 208 256 208 258 q 194 251 208 251 q 142 199 169 251 q 206 113 160 146 q 240 256 240 200 m 194 93 q 125 164 149 124 q 83 38 83 76 q 104 10 83 10 q 156 43 124 10 q 194 93 183 69 m 264 451 q 256 444 264 444 q 189 481 249 444 q 117 528 129 517 q 107 549 107 535 q 119 564 107 564 q 188 518 128 564 q 260 460 247 472 q 264 451 264 456 z "},"":{"ha":318,"x_min":33,"x_max":404,"o":"m 404 150 q 401 144 404 147 q 342 88 382 111 q 265 64 303 64 q 214 78 238 64 q 82 -24 150 -24 q 33 33 33 -24 q 103 219 33 113 q 100 250 100 235 q 133 347 100 300 q 215 394 167 394 q 267 357 247 394 q 282 290 282 325 q 224 100 282 215 q 271 88 244 88 q 357 124 317 88 q 394 160 397 160 q 404 150 404 160 m 240 256 q 231 318 240 286 q 194 363 217 363 q 144 324 163 363 q 132 257 131 293 q 176 283 154 283 q 207 269 197 283 q 207 263 207 268 q 208 256 208 258 q 194 251 208 251 q 142 199 169 251 q 206 113 160 146 q 240 256 240 200 m 194 93 q 125 164 149 124 q 83 38 83 76 q 104 10 83 10 q 156 43 124 10 q 194 93 183 69 m 399 551 q 388 525 399 535 q 300 469 372 513 q 221 425 228 425 q 211 435 211 425 q 215 443 211 439 q 363 557 267 482 q 385 568 376 568 q 399 551 399 568 z "},"":{"ha":318,"x_min":33,"x_max":404,"o":"m 404 150 q 401 144 404 147 q 342 88 382 111 q 265 64 303 64 q 214 78 238 64 q 82 -24 150 -24 q 33 33 33 -24 q 103 219 33 113 q 100 250 100 235 q 133 347 100 300 q 215 394 167 394 q 267 357 247 394 q 282 290 282 325 q 224 100 282 215 q 271 88 244 88 q 357 124 317 88 q 394 160 397 160 q 404 150 404 160 m 240 256 q 231 318 240 286 q 194 363 217 363 q 144 324 163 363 q 132 257 131 293 q 176 283 154 283 q 207 269 197 283 q 207 263 207 268 q 208 256 208 258 q 194 251 208 251 q 142 199 169 251 q 206 113 160 146 q 240 256 240 200 m 194 93 q 125 164 149 124 q 83 38 83 76 q 104 10 83 10 q 156 43 124 10 q 194 93 183 69 m 342 419 l 339 414 q 280 442 322 415 q 224 483 238 468 q 133 417 143 417 q 128 425 128 417 q 176 473 128 433 q 235 514 224 513 l 239 513 q 338 428 269 478 l 342 419 z "},"":{"ha":318,"x_min":33,"x_max":404,"o":"m 404 150 q 401 144 404 147 q 342 88 382 111 q 265 64 303 64 q 214 78 238 64 q 82 -24 150 -24 q 33 33 33 -24 q 103 219 33 113 q 100 250 100 235 q 133 347 100 300 q 215 394 167 394 q 267 357 247 394 q 282 290 282 325 q 224 100 282 215 q 271 88 244 88 q 357 124 317 88 q 394 160 397 160 q 404 150 404 160 m 240 256 q 231 318 240 286 q 194 363 217 363 q 144 324 163 363 q 132 257 131 293 q 176 283 154 283 q 207 269 197 283 q 207 263 207 268 q 208 256 208 258 q 194 251 208 251 q 142 199 169 251 q 206 113 160 146 q 240 256 240 200 m 194 93 q 125 164 149 124 q 83 38 83 76 q 104 10 83 10 q 156 43 124 10 q 194 93 183 69 m 369 489 q 329 447 369 474 q 301 439 317 439 q 251 452 283 439 q 201 465 218 465 q 167 452 185 465 q 146 439 150 439 q 144 442 144 440 q 188 482 144 458 q 225 492 206 492 q 273 481 242 492 q 321 471 304 471 q 363 492 346 471 q 369 489 369 493 z "},"":{"ha":318,"x_min":33,"x_max":404,"o":"m 404 150 q 401 144 404 147 q 342 88 382 111 q 265 64 303 64 q 214 78 238 64 q 82 -24 150 -24 q 33 33 33 -24 q 103 219 33 113 q 100 250 100 235 q 133 347 100 300 q 215 394 167 394 q 267 357 247 394 q 282 290 282 325 q 224 100 282 215 q 271 88 244 88 q 357 124 317 88 q 394 160 397 160 q 404 150 404 160 m 240 256 q 231 318 240 286 q 194 363 217 363 q 144 324 163 363 q 132 257 131 293 q 176 283 154 283 q 207 269 197 283 q 207 263 207 268 q 208 256 208 258 q 194 251 208 251 q 142 199 169 251 q 206 113 160 146 q 240 256 240 200 m 194 93 q 125 164 149 124 q 83 38 83 76 q 104 10 83 10 q 156 43 124 10 q 194 93 183 69 m 372 515 q 356 496 365 507 q 338 451 346 474 q 307 421 324 421 q 291 433 299 421 q 283 453 283 444 q 317 494 283 469 q 368 518 350 518 q 372 517 369 518 l 372 518 q 372 515 372 517 m 236 515 q 219 496 229 507 q 200 451 210 474 q 171 421 188 421 q 154 433 163 421 q 146 453 146 444 q 180 494 146 469 q 232 518 214 518 q 235 517 233 518 l 235 518 q 236 515 236 517 z "},"":{"ha":317,"x_min":26,"x_max":303,"o":"m 208 267 q 174 233 208 233 q 139 267 139 233 q 174 300 139 300 q 208 267 208 300 m 303 168 q 267 157 303 158 q 192 153 242 156 q 61 140 150 147 l 54 140 q 26 150 26 139 q 75 185 26 169 q 138 193 97 193 q 267 182 186 193 q 303 168 303 176 m 197 74 q 163 40 197 40 q 126 74 126 40 q 163 107 126 107 q 197 74 197 107 z "},"":{"ha":265,"x_min":-6,"x_max":342,"o":"m 342 338 q 235 228 342 340 q 186 83 232 174 q 225 72 204 72 q 297 102 263 72 q 329 132 332 132 q 336 125 336 132 l 335 119 q 287 74 324 96 q 221 53 250 53 q 178 65 197 53 q 68 -19 125 -19 q 43 -12 53 -19 q 8 -89 32 -37 q 1 -93 6 -93 q -6 -87 -6 -93 q 33 -1 -6 -71 q 28 28 28 10 q 86 183 28 93 q 83 208 83 196 q 111 290 83 250 q 179 329 139 329 q 233 264 221 329 q 325 347 308 347 q 342 338 342 347 m 200 225 q 161 301 193 301 q 121 269 135 301 q 110 214 110 244 q 150 238 129 238 q 168 228 168 238 q 157 219 168 224 q 117 175 136 211 q 131 139 121 163 q 200 225 164 183 m 199 189 q 140 124 168 156 q 172 93 154 107 q 199 189 194 151 m 115 119 q 99 151 110 131 q 67 53 65 111 q 115 119 81 74 m 163 78 q 126 107 142 90 q 69 29 93 65 q 86 8 69 8 q 128 33 103 8 q 163 78 153 58 z "},"":{"ha":404,"x_min":28,"x_max":499,"o":"m 499 165 q 490 142 499 156 q 400 31 451 78 q 275 -31 333 -31 q 197 67 197 -31 q 218 154 197 89 q 156 67 169 83 q 74 13 110 13 q 28 90 28 13 q 57 197 28 135 q 126 269 89 269 q 147 258 147 269 q 112 195 147 257 q 76 100 76 133 q 103 56 76 56 q 263 258 147 56 q 292 313 272 278 q 313 324 301 324 q 335 313 325 324 q 346 289 346 303 q 297 196 346 290 q 247 50 247 101 q 293 1 247 1 q 382 46 332 1 q 457 129 415 75 q 494 174 492 174 q 499 165 499 174 m 276 390 q 269 383 276 383 q 203 419 264 383 q 129 467 143 456 q 121 488 121 474 q 132 503 121 503 q 151 493 139 503 q 274 399 196 463 q 276 390 276 394 z "},"":{"ha":404,"x_min":28,"x_max":499,"o":"m 499 165 q 490 142 499 156 q 400 31 451 78 q 275 -31 333 -31 q 197 67 197 -31 q 218 154 197 89 q 156 67 169 83 q 74 13 110 13 q 28 90 28 13 q 57 197 28 135 q 126 269 89 269 q 147 258 147 269 q 112 195 147 257 q 76 100 76 133 q 103 56 76 56 q 263 258 147 56 q 292 313 272 278 q 313 324 301 324 q 335 313 325 324 q 346 289 346 303 q 297 196 346 290 q 247 50 247 101 q 293 1 247 1 q 382 46 332 1 q 457 129 415 75 q 494 174 492 174 q 499 165 499 174 m 378 451 q 365 424 378 435 q 279 369 351 413 q 199 326 207 326 q 190 335 190 326 q 194 343 190 339 q 340 457 246 382 q 364 469 356 469 q 378 451 378 469 z "},"":{"ha":404,"x_min":28,"x_max":499,"o":"m 499 165 q 490 142 499 156 q 400 31 451 78 q 275 -31 333 -31 q 197 67 197 -31 q 218 154 197 89 q 156 67 169 83 q 74 13 110 13 q 28 90 28 13 q 57 197 28 135 q 126 269 89 269 q 147 258 147 269 q 112 195 147 257 q 76 100 76 133 q 103 56 76 56 q 263 258 147 56 q 292 313 272 278 q 313 324 301 324 q 335 313 325 324 q 346 289 346 303 q 297 196 346 290 q 247 50 247 101 q 293 1 247 1 q 382 46 332 1 q 457 129 415 75 q 494 174 492 174 q 499 165 499 174 m 388 376 l 383 371 q 326 398 368 371 q 268 440 283 425 q 178 374 189 374 q 172 382 172 374 q 221 429 172 389 q 279 471 269 469 l 285 469 q 383 383 315 435 l 388 376 z "},"":{"ha":404,"x_min":28,"x_max":499,"o":"m 499 165 q 490 142 499 156 q 400 31 451 78 q 275 -31 333 -31 q 197 67 197 -31 q 218 154 197 89 q 156 67 169 83 q 74 13 110 13 q 28 90 28 13 q 57 197 28 135 q 126 269 89 269 q 147 258 147 269 q 112 195 147 257 q 76 100 76 133 q 103 56 76 56 q 263 258 147 56 q 292 313 272 278 q 313 324 301 324 q 335 313 325 324 q 346 289 346 303 q 297 196 346 290 q 247 50 247 101 q 293 1 247 1 q 382 46 332 1 q 457 129 415 75 q 494 174 492 174 q 499 165 499 174 m 393 476 q 376 457 386 468 q 358 411 368 435 q 328 381 344 381 q 312 393 319 381 q 304 414 304 406 q 338 455 304 431 q 389 479 371 479 q 393 478 390 479 l 393 478 q 393 476 393 478 m 257 476 q 240 457 250 468 q 222 411 231 435 q 192 381 208 381 q 176 393 183 381 q 168 414 168 406 q 201 455 168 431 q 253 479 235 479 q 257 478 254 479 l 257 478 q 257 476 257 478 z "},"":{"ha":317,"x_min":-272,"x_max":328,"o":"m 328 440 q 317 414 328 424 q 230 358 301 401 q 150 315 158 315 q 140 324 140 315 q 144 332 140 328 q 292 446 196 371 q 315 457 307 457 q 328 440 328 457 m 306 -26 q 301 -33 306 -33 q 290 -28 303 -33 q 258 -22 276 -22 q 236 -22 247 -22 q 125 -293 192 -196 q -142 -476 1 -476 q -235 -444 -197 -476 q -272 -356 -272 -411 q -96 -119 -272 -233 q 193 -1 53 -24 q 231 211 210 71 q 119 42 192 118 q 63 10 89 10 q 25 75 25 10 q 49 165 25 113 q 107 225 76 225 q 125 215 125 225 q 95 163 125 214 q 65 83 65 111 q 88 46 65 46 q 243 279 122 46 q 272 296 246 296 q 293 286 293 296 q 278 189 293 272 q 240 0 260 90 l 244 0 q 306 -26 306 1 m 192 -22 q 10 -87 115 -35 q -151 -194 -94 -140 q -239 -360 -239 -278 q -210 -433 -239 -406 q -136 -460 -182 -460 q 103 -278 -3 -460 q 192 -22 164 -174 z "},"":{"ha":378,"x_min":-142,"x_max":453,"o":"m 453 138 q 447 118 453 129 q 347 18 417 68 q 222 -36 272 -36 q 191 -36 211 -36 q 161 -36 171 -36 q 126 -28 154 -36 q 28 -222 90 -119 q -112 -364 -57 -364 q -142 -321 -142 -364 q -37 -110 -142 -264 q 113 94 38 -7 q 125 190 113 103 q 156 397 136 258 q 167 508 167 481 q 163 519 167 515 q 158 526 158 524 q 196 535 158 535 q 218 494 218 535 q 181 238 218 428 q 161 139 171 201 q 235 247 194 199 q 335 321 294 321 q 371 268 371 321 q 323 110 371 200 q 218 -17 275 19 q 326 26 268 -17 q 413 103 368 54 q 450 144 450 144 q 453 138 453 144 m 321 243 q 301 279 321 279 q 206 176 260 279 q 146 33 167 101 q 188 -11 157 17 q 281 100 238 11 q 321 243 321 182 m 101 32 q 99 33 100 33 q 3 -100 99 33 q -58 -206 -21 -135 q -100 -312 -100 -287 q -93 -322 -100 -322 q 46 -157 -43 -322 q 97 -4 69 -111 q 94 7 94 0 q 101 32 94 21 z "},"":{"ha":317,"x_min":-272,"x_max":350,"o":"m 350 500 q 329 476 350 506 q 307 421 318 449 q 269 383 290 383 q 250 398 260 383 q 240 424 240 413 q 281 474 240 444 q 344 503 322 503 q 350 501 347 503 l 350 503 q 350 500 350 501 m 182 500 q 161 476 182 506 q 139 421 150 449 q 101 383 122 383 q 82 398 92 383 q 72 424 72 413 q 113 474 72 444 q 176 503 154 503 q 182 501 179 503 l 182 503 q 182 500 182 501 m 306 -26 q 301 -33 306 -33 q 290 -28 303 -33 q 258 -22 276 -22 q 236 -22 247 -22 q 125 -293 192 -196 q -142 -476 1 -476 q -235 -444 -197 -476 q -272 -356 -272 -411 q -96 -119 -272 -233 q 193 -1 53 -24 q 231 211 210 71 q 119 42 192 118 q 63 10 89 10 q 25 75 25 10 q 49 165 25 113 q 107 225 76 225 q 125 215 125 225 q 95 163 125 214 q 65 83 65 111 q 88 46 65 46 q 243 279 122 46 q 272 296 246 296 q 293 286 293 296 q 278 189 293 272 q 240 0 260 90 l 244 0 q 306 -26 306 1 m 192 -22 q 10 -87 115 -35 q -151 -194 -94 -140 q -239 -360 -239 -278 q -210 -433 -239 -406 q -136 -460 -182 -460 q 103 -278 -3 -460 q 192 -22 164 -174 z "},"":{"ha":207,"x_min":31,"x_max":281,"o":"m 281 133 q 274 115 281 125 q 94 -25 167 -25 q 31 43 31 -25 q 60 153 31 76 q 113 235 92 235 q 142 206 142 235 q 110 146 142 207 q 79 43 79 85 q 108 1 79 1 q 218 72 156 1 q 275 142 281 142 q 281 133 281 142 z "},"":{"ha":935,"x_min":18,"x_max":917,"o":"m 917 40 q 838 -57 917 -25 q 703 -81 781 -81 q 382 14 564 -81 q 229 -37 300 -37 q 83 18 147 -37 q 18 156 18 74 q 35 226 18 196 q 93 263 56 263 q 314 96 133 263 q 382 40 336 74 q 486 228 439 113 q 333 150 411 189 q 322 174 322 150 q 325 187 322 185 q 367 207 328 189 q 501 267 443 243 q 529 343 513 297 q 401 319 461 319 q 301 338 342 319 q 244 413 244 361 q 347 524 244 469 q 499 574 438 574 q 510 567 510 574 q 500 560 510 563 q 276 415 276 497 q 404 344 276 344 q 538 368 468 344 q 599 529 576 478 q 688 675 639 618 q 824 761 763 761 q 907 692 907 761 q 817 519 907 614 q 658 394 746 444 q 571 350 629 381 l 547 283 q 736 336 692 336 q 746 328 746 336 q 739 319 746 321 q 686 307 721 315 q 535 250 615 288 q 407 31 468 85 q 550 -25 457 -1 q 701 -47 638 -47 q 821 -29 769 -47 q 893 49 893 -4 q 874 91 893 72 q 854 114 854 110 q 860 121 854 121 q 868 117 864 121 q 917 40 917 82 m 878 703 q 850 733 878 733 q 826 728 840 733 q 590 393 700 688 q 764 524 654 411 q 878 703 878 642 m 347 22 q 207 135 276 79 q 78 225 93 225 q 43 164 43 225 q 100 41 43 96 q 225 -14 157 -14 q 347 22 294 -14 z "},"":{"ha":283,"x_min":56,"x_max":515,"o":"m 515 499 q 508 490 515 492 q 468 482 494 488 q 385 456 428 471 q 96 119 254 265 q 160 -6 96 -6 q 280 63 207 -6 q 350 131 353 131 q 356 124 356 131 q 351 114 356 118 q 260 21 313 61 q 142 -31 193 -31 q 56 113 56 -31 q 129 333 56 196 q 103 321 117 328 q 92 344 92 321 q 96 359 92 356 q 161 390 100 363 q 278 558 217 482 q 426 676 374 676 q 453 660 440 676 q 465 631 465 644 q 403 482 465 579 q 506 507 489 507 q 515 499 515 507 m 415 625 q 400 647 415 647 q 215 415 344 647 q 349 465 286 446 q 415 625 415 574 m 326 432 q 189 364 279 411 q 100 147 114 221 q 326 432 190 226 z "},"":{"ha":1325,"x_min":6,"x_max":1525,"o":"m 1525 679 q 1493 663 1525 663 q 1399 675 1468 675 q 1165 642 1219 675 q 950 418 1133 622 q 963 413 954 413 q 1075 418 1000 413 q 1189 424 1150 424 q 1282 414 1282 424 q 1242 397 1282 406 q 1065 382 1214 392 q 893 346 956 375 q 808 227 867 335 q 749 88 749 119 q 872 8 749 8 q 1196 96 996 8 q 1313 150 1250 122 q 1307 139 1313 149 q 1093 15 1263 78 q 846 -40 936 -40 q 707 71 707 -40 q 711 115 707 93 q 492 7 613 49 q 253 -37 364 -37 q 76 103 76 -37 q 99 203 76 149 q 6 335 6 244 q 121 553 6 451 q 344 679 213 631 q 633 732 488 732 q 846 688 758 732 q 967 519 957 632 q 1122 675 1085 653 q 1368 713 1185 713 q 1510 697 1471 713 q 1525 679 1525 690 m 933 519 q 842 669 933 619 q 661 710 769 710 q 363 646 522 710 q 151 529 242 599 q 26 336 26 433 q 107 224 26 249 q 297 454 168 335 q 540 621 426 574 q 640 647 600 646 l 643 647 q 654 640 654 649 q 640 628 654 631 q 542 594 589 619 q 424 514 488 565 q 269 375 347 456 q 154 211 167 268 q 211 206 183 206 q 454 315 332 206 q 483 344 469 329 q 510 368 507 368 q 514 363 513 367 q 378 238 460 286 q 201 186 290 186 q 147 194 171 186 q 121 103 121 146 q 165 11 121 44 q 265 -19 204 -19 q 514 39 382 -19 q 729 176 636 92 q 928 474 779 297 q 933 519 933 497 z "},"":{"ha":375,"x_min":28,"x_max":451,"o":"m 451 125 q 449 118 451 122 q 361 34 422 74 q 250 -6 300 -6 q 178 68 185 -6 q 68 -19 121 -19 q 28 28 28 -19 q 86 183 28 93 q 83 208 83 196 q 111 290 83 250 q 179 329 139 329 q 225 290 210 329 q 235 225 236 260 q 343 294 288 294 q 363 283 354 294 q 372 261 372 272 q 318 175 372 225 q 229 114 269 129 q 221 65 221 86 q 264 19 221 19 q 431 118 347 19 q 447 129 439 129 q 451 125 451 129 m 338 249 q 324 261 338 261 q 274 208 306 261 q 238 138 244 163 q 300 183 268 151 q 338 249 338 219 m 200 214 q 192 265 200 239 q 161 301 181 301 q 121 269 135 301 q 110 214 110 244 q 147 236 129 236 q 172 225 164 236 q 172 219 172 224 q 174 215 174 217 q 161 210 174 210 q 118 165 142 210 q 165 126 132 126 q 185 129 174 126 q 200 214 200 176 m 178 104 l 174 104 q 104 136 124 103 q 69 31 69 64 q 86 8 69 8 q 140 47 107 8 q 178 104 168 79 z "},"":{"ha":792,"x_min":14,"x_max":856,"o":"m 856 925 l 850 914 q 700 785 747 836 l 693 782 q 604 845 676 785 q 532 917 532 906 q 540 929 532 929 q 676 829 556 929 q 762 892 697 851 q 850 933 826 932 l 856 925 m 833 681 q 810 608 833 649 q 753 564 783 564 q 746 569 746 564 q 770 597 746 567 q 794 653 794 628 q 693 711 794 711 q 574 697 642 711 q 415 644 490 679 q 304 543 304 594 q 432 457 304 494 q 671 386 551 422 q 799 254 799 335 q 658 82 799 167 q 442 -12 558 22 q 210 -47 319 -47 q 14 61 14 -47 q 136 249 14 160 q 354 333 251 333 q 394 308 394 333 q 343 218 394 268 q 257 153 306 181 q 207 132 219 132 q 203 135 203 132 q 229 156 203 139 q 343 264 313 204 q 350 283 350 278 q 331 296 350 296 q 269 285 310 296 q 121 211 189 263 q 38 75 38 146 q 213 -6 38 -6 q 407 17 301 -6 q 617 83 521 40 q 763 226 763 150 q 674 331 763 285 q 490 399 617 361 q 335 453 363 438 q 278 532 278 485 q 446 693 278 625 q 693 747 583 747 q 833 681 833 747 z "},"":{"ha":301,"x_min":3,"x_max":378,"o":"m 368 501 l 364 493 q 249 394 285 433 l 243 392 q 174 440 231 393 q 118 496 118 486 q 125 506 118 506 q 231 428 138 506 q 297 477 247 446 q 364 508 346 508 l 368 501 m 378 131 q 375 122 378 126 q 247 44 336 61 q 211 -12 239 10 q 147 -33 183 -33 q 49 7 94 -33 q 3 100 3 47 q 22 133 3 133 q 47 117 33 133 q 103 203 64 136 q 168 300 143 271 q 250 346 208 346 q 283 335 267 346 q 300 310 300 325 q 274 300 300 300 q 225 284 247 300 q 203 242 203 268 q 226 168 203 229 q 250 68 250 107 q 365 136 319 79 q 371 140 368 140 q 378 131 378 140 m 200 76 q 179 171 200 101 q 164 256 160 236 q 57 103 103 157 q 199 65 128 68 q 200 76 200 71 m 193 39 q 36 79 97 39 l 33 76 q 132 0 64 0 q 193 39 178 0 z "},"":{"ha":1043,"x_min":-17,"x_max":1044,"o":"m 971 851 q 950 828 971 857 q 928 772 939 800 q 890 735 911 735 q 871 750 881 735 q 861 775 861 765 q 902 826 861 796 q 965 856 943 856 q 969 854 968 856 l 969 854 q 971 851 971 854 m 803 851 q 782 828 803 857 q 760 772 771 800 q 722 735 743 735 q 703 750 713 735 q 693 775 693 765 q 734 826 693 796 q 797 856 775 856 q 801 854 800 856 l 801 854 q 803 851 803 854 m 1044 67 q 1033 57 1044 57 q 1024 58 1028 57 q 951 75 985 75 q 900 69 929 75 q 669 -314 835 -154 q 267 -490 486 -490 q 163 -464 207 -490 q 110 -376 110 -432 q 419 -61 110 -212 q 874 97 639 47 q 899 281 890 161 q 913 469 906 375 q 806 317 900 447 q 681 150 718 194 q 521 38 582 38 q 429 122 429 38 q 518 377 429 203 q 607 603 607 551 q 499 690 607 690 q 242 606 383 690 q 54 419 101 522 q 29 331 29 365 q 82 282 29 282 q 116 287 94 282 q 147 292 138 292 q 151 289 151 292 q 114 265 151 275 q 64 258 85 258 q -17 328 -17 258 q 0 396 -17 357 q 219 615 57 517 q 518 713 382 713 q 649 607 649 713 q 610 474 649 554 q 524 296 567 385 q 469 114 469 174 q 506 68 469 68 q 713 228 583 68 q 915 514 807 344 q 921 560 917 529 q 953 607 925 579 q 1001 635 982 635 q 1013 622 1013 635 q 1013 617 1013 618 q 954 361 976 529 q 907 103 928 172 q 928 104 917 104 q 1044 67 1044 104 m 863 65 q 436 -89 672 31 q 140 -383 140 -240 q 263 -461 140 -461 q 461 -419 368 -461 q 708 -218 592 -362 q 863 65 821 -79 z "},"":{"ha":644,"x_min":-117,"x_max":744,"o":"m 736 869 l 731 858 q 581 729 628 781 l 574 726 q 485 790 557 729 q 413 861 413 850 q 421 874 413 874 q 557 774 436 874 q 642 836 578 796 q 731 878 707 876 l 736 869 m 744 557 q 622 349 744 467 q 422 189 563 292 q 453 190 439 190 q 572 101 572 190 q 564 50 572 78 l 581 50 q 700 26 693 50 q 692 19 700 19 q 667 25 683 19 q 644 32 651 31 q 613 32 640 32 q 557 31 585 32 q 528 -28 546 3 q 149 -443 368 -304 q -33 -514 38 -514 q -117 -426 -117 -514 q -61 -268 -117 -357 q 194 -42 31 -126 q 525 49 347 38 q 540 108 540 83 q 460 167 540 167 q 319 135 396 167 q 238 101 239 101 q 228 114 228 101 q 244 140 228 124 q 299 163 254 149 q 358 185 344 176 q 572 351 472 256 q 708 568 708 482 q 579 657 708 657 q 285 582 451 657 q 31 417 126 511 q 17 433 17 419 q 154 565 17 493 q 350 643 250 614 q 568 678 467 678 q 744 557 744 678 m 517 28 q 211 -58 351 13 q -25 -265 57 -137 q -75 -404 -75 -343 q -6 -479 -75 -479 q 135 -426 49 -479 q 351 -222 235 -364 q 517 28 460 -90 z "},"":{"ha":389,"x_min":-200,"x_max":432,"o":"m 432 500 l 425 489 q 276 361 324 413 l 269 357 q 181 420 253 360 q 108 493 108 481 q 117 504 108 504 q 253 404 132 504 q 338 467 274 426 q 426 510 403 508 l 432 500 m 376 -26 q 372 -33 376 -33 q 360 -28 374 -33 q 329 -22 347 -22 q 307 -22 318 -22 q 197 -293 304 -136 q -71 -476 71 -476 q -163 -444 -126 -476 q -200 -356 -200 -411 q -24 -119 -200 -233 q 264 -1 125 -24 q 207 72 263 72 q 172 61 196 72 q 140 50 149 50 q 125 64 125 50 q 192 135 125 69 q 260 235 260 201 q 232 260 260 260 q 83 136 161 260 q 71 125 76 125 q 68 131 68 125 q 72 144 68 136 q 139 235 97 197 q 239 278 188 278 q 301 226 301 278 q 208 94 301 169 q 276 68 249 96 q 307 0 304 40 l 313 0 q 376 -26 376 1 m 264 -22 q 81 -87 186 -35 q -81 -194 -24 -140 q -167 -360 -167 -278 q -139 -433 -167 -406 q -65 -460 -111 -460 q 163 -297 56 -460 q 264 -22 261 -150 z "},"":{"ha":308,"x_min":-353,"x_max":588,"o":"m 588 671 q 582 633 588 656 q 564 604 575 604 q 557 647 557 604 q 485 768 557 768 q 411 733 449 768 q 268 524 331 658 q 178 283 238 456 q 249 290 201 285 q 319 296 296 296 q 357 283 360 296 l 349 278 q 165 240 197 260 q 107 64 153 207 q 17 -212 50 -121 q -21 -315 -8 -283 q -67 -415 -43 -374 q -243 -535 -136 -535 q -322 -503 -290 -535 q -353 -424 -353 -471 q -333 -367 -353 -367 q -324 -401 -328 -367 q -318 -447 -321 -424 q -257 -512 -301 -512 q -154 -453 -208 -512 q 14 -125 -85 -379 q 133 238 97 90 q 40 221 64 221 q 29 225 29 221 q 147 278 29 244 q 213 468 181 374 q 315 682 263 607 q 468 783 386 783 q 553 752 518 783 q 588 671 588 721 z "},"":{"ha":514,"x_min":89,"x_max":467,"o":"m 467 460 l 461 450 q 358 499 432 451 q 258 572 283 546 q 100 456 118 456 q 89 469 89 456 q 174 553 89 483 q 278 626 258 624 l 286 624 q 460 474 340 563 l 467 460 z "},"":{"ha":514,"x_min":72,"x_max":449,"o":"m 449 653 l 442 639 q 268 490 322 550 l 260 486 q 156 559 240 489 q 72 643 72 629 q 82 657 72 657 q 240 540 100 657 q 338 613 265 567 q 443 663 415 661 l 449 653 z "},"":{"ha":256,"x_min":64,"x_max":322,"o":"m 322 635 q 319 626 322 632 q 171 508 263 508 q 68 581 93 508 q 64 604 64 594 q 71 618 64 618 q 89 597 78 618 q 119 560 104 572 q 181 539 143 539 q 303 628 251 539 q 317 640 310 640 q 322 635 322 640 z "},"":{"ha":240,"x_min":100,"x_max":210,"o":"m 210 690 q 190 667 210 696 q 167 611 178 639 q 129 574 150 574 q 110 588 119 574 q 100 614 100 603 q 142 665 100 635 q 206 694 183 694 q 210 692 207 694 l 210 693 q 210 690 210 692 z "},"":{"ha":318,"x_min":60,"x_max":244,"o":"m 244 732 q 205 642 244 683 q 117 601 165 601 q 60 654 60 601 q 74 715 60 683 q 114 760 90 753 q 185 804 136 804 q 228 783 211 804 q 244 732 244 761 m 211 729 q 181 779 211 779 q 140 761 165 779 l 156 753 q 128 708 151 743 q 111 656 111 683 q 132 628 111 628 q 188 661 165 628 q 211 729 211 694 z "},"":{"ha":325,"x_min":53,"x_max":279,"o":"m 279 -153 q 213 -193 279 -171 q 129 -211 156 -211 q 53 -153 53 -211 q 79 -57 53 -117 q 140 11 110 10 l 144 7 q 97 -115 97 -60 q 160 -172 97 -172 q 223 -156 183 -172 q 264 -140 263 -140 q 279 -153 279 -140 z "},"":{"ha":378,"x_min":40,"x_max":349,"o":"m 349 676 q 293 618 349 656 q 256 607 276 607 q 185 626 231 607 q 118 644 140 644 q 72 626 94 644 q 42 608 49 608 q 40 611 40 610 q 100 668 40 633 q 150 682 124 682 q 217 667 174 682 q 282 653 260 653 q 340 682 315 653 q 349 676 349 682 z "},"":{"ha":217,"x_min":-4,"x_max":247,"o":"m 247 672 l 244 669 q 178 589 233 651 q 108 515 122 526 q 97 510 103 510 q 100 521 92 511 q 199 674 165 615 q 247 672 243 675 m 151 681 l 149 678 q 82 597 138 660 q 13 524 26 535 q 1 519 7 518 q 4 531 -4 519 q 103 682 69 624 q 151 681 147 683 z "},"":{"ha":193,"x_min":10,"x_max":221,"o":"m 221 192 q 74 43 221 143 q 90 43 79 43 q 108 44 103 44 q 211 1 172 44 q 215 -8 215 -4 q 207 -15 215 -15 q 199 -12 203 -15 q 103 18 147 18 q 53 8 85 18 q 13 -1 21 -1 q 10 3 10 -1 q 32 42 10 31 q 119 114 75 78 q 183 192 183 168 q 154 208 183 208 q 88 194 129 208 q 49 179 47 179 q 44 182 44 179 q 53 193 44 186 q 163 231 101 231 q 221 192 221 231 z "},"":{"ha":458,"x_min":15,"x_max":404,"o":"m 404 293 q 393 274 404 283 q 290 239 351 235 q 264 144 278 192 q 250 47 250 89 q 276 -6 250 -6 q 318 14 292 -6 q 378 101 339 31 q 386 111 382 111 q 389 108 389 110 q 351 38 389 88 q 292 -17 314 -11 q 268 -21 279 -21 q 224 44 224 -21 q 253 244 224 161 q 165 265 224 253 q 113 14 163 108 q 106 10 110 10 q 97 14 97 11 q 106 45 97 21 q 117 75 115 69 q 132 268 132 143 l 129 268 q 26 231 69 268 q 19 228 22 228 q 15 232 15 228 q 25 251 15 243 q 140 304 79 304 q 231 285 172 304 q 321 267 289 267 q 400 299 351 267 q 404 293 404 299 z "},"":{"ha":815,"x_min":42,"x_max":950,"o":"m 824 457 q 653 388 744 408 q 481 367 561 367 q 179 342 351 367 q 110 149 110 236 q 172 22 110 65 q 314 -17 225 -17 q 778 192 525 -17 q 788 196 783 196 q 806 178 806 196 q 800 165 806 171 q 558 7 697 71 q 282 -65 408 -65 q 118 -24 181 -65 q 46 121 46 24 q 114 332 46 218 q 51 319 44 319 q 42 329 42 319 q 71 374 42 363 q 150 388 78 376 q 276 526 206 464 q 432 640 346 589 q 793 750 617 750 q 885 734 851 750 q 935 692 919 718 q 947 633 950 665 q 928 568 944 600 q 885 506 913 536 q 824 457 858 476 m 781 478 q 910 644 910 578 q 794 713 910 713 q 476 610 653 713 q 218 394 321 518 q 332 405 278 401 q 438 408 386 408 q 626 425 543 408 q 781 478 710 442 m 947 914 q 926 890 947 919 q 904 835 915 863 q 867 797 888 797 q 847 812 857 797 q 838 838 838 826 q 878 888 838 858 q 942 917 919 917 q 947 915 944 917 l 947 917 q 947 914 947 915 m 779 914 q 758 890 779 919 q 736 835 747 863 q 699 797 719 797 q 679 812 689 797 q 669 838 669 826 q 710 888 669 858 q 774 917 751 917 q 779 915 776 917 l 779 917 q 779 914 779 915 z "},"":{"ha":815,"x_min":42,"x_max":949,"o":"m 949 642 q 904 526 949 588 q 811 442 864 474 q 793 436 801 436 q 769 458 769 436 q 781 478 769 468 q 910 644 910 578 q 794 713 910 713 q 476 610 651 713 q 218 394 319 518 q 438 408 336 408 q 647 369 647 408 q 628 351 647 351 q 559 359 610 351 q 481 367 508 367 q 179 342 351 367 q 110 149 110 238 q 172 22 110 65 q 314 -17 226 -17 q 778 192 526 -17 q 788 196 783 196 q 806 178 806 196 q 800 165 806 171 q 558 7 697 72 q 282 -65 407 -65 q 118 -24 181 -65 q 46 121 46 25 q 114 332 46 217 q 51 319 46 319 q 42 329 42 319 q 71 374 42 364 q 150 388 82 378 q 432 640 261 539 q 793 750 617 750 q 949 642 949 750 z "},"":{"ha":635,"x_min":7,"x_max":938,"o":"m 938 683 q 922 672 938 672 l 918 674 q 690 693 843 682 q 490 393 565 535 q 358 64 382 188 q 486 72 429 72 q 639 43 613 72 q 647 15 647 33 q 633 -8 647 -8 q 551 5 610 -8 q 463 18 492 18 q 354 13 413 18 q 382 -28 356 -28 q 417 -12 394 -28 q 443 3 439 3 q 454 -10 454 3 q 426 -41 454 -26 q 379 -56 397 -56 q 318 10 324 -56 q 164 -19 282 6 q 24 -43 57 -43 q 7 -25 7 -43 q 21 -8 7 -14 q 106 15 31 -4 q 319 58 218 43 q 436 385 335 175 q 614 694 528 575 l 590 694 q 451 689 510 696 q 278 622 278 668 q 317 581 278 603 q 356 550 356 558 q 342 539 356 539 q 332 540 338 539 q 221 633 221 593 q 281 693 221 664 q 539 731 360 731 q 639 728 586 731 q 707 751 656 751 q 728 743 728 751 q 714 722 728 740 q 874 706 793 717 q 922 699 890 704 q 938 683 938 694 z "},"":{"ha":635,"x_min":7,"x_max":938,"o":"m 938 683 q 922 672 938 672 l 918 674 q 690 693 843 682 q 490 393 565 535 q 358 64 382 188 q 486 72 429 72 q 639 43 613 72 q 647 15 647 33 q 633 -8 647 -8 q 551 5 610 -8 q 463 18 492 18 q 354 13 413 18 q 382 -28 356 -28 q 417 -12 394 -28 q 443 3 439 3 q 454 -10 454 3 q 426 -41 454 -26 q 379 -56 397 -56 q 318 10 324 -56 q 164 -19 282 6 q 24 -43 57 -43 q 7 -25 7 -43 q 21 -8 7 -14 q 106 15 31 -4 q 319 58 218 43 q 436 385 335 175 q 614 694 528 575 l 590 694 q 451 689 510 696 q 278 622 278 668 q 317 581 278 603 q 356 550 356 558 q 342 539 356 539 q 332 540 338 539 q 221 633 221 593 q 281 693 221 664 q 539 731 360 731 q 639 728 586 731 q 707 751 656 751 q 728 743 728 751 q 714 722 728 740 q 874 706 793 717 q 922 699 890 704 q 938 683 938 694 m 869 901 q 849 878 869 907 q 826 822 838 850 q 789 785 810 785 q 769 799 779 785 q 760 825 760 814 q 801 875 760 846 q 864 904 842 904 q 869 903 867 904 l 869 904 q 869 901 869 903 m 701 901 q 681 878 701 907 q 658 822 669 850 q 621 785 642 785 q 601 799 611 785 q 592 825 592 814 q 633 875 592 846 q 696 904 674 904 q 701 903 699 904 l 701 904 q 701 901 701 903 z "},"":{"ha":1043,"x_min":-22,"x_max":1049,"o":"m 1049 67 q 1033 51 1049 51 q 1021 54 1026 51 q 951 71 983 71 q 904 65 931 71 q 671 -318 838 -160 q 267 -494 486 -494 q 160 -468 206 -494 q 106 -378 106 -435 q 414 -58 106 -211 q 869 101 633 50 q 906 446 883 158 q 886 415 894 428 q 708 176 828 335 q 521 33 592 33 q 425 122 425 33 q 513 378 425 204 q 601 603 601 553 q 499 685 601 685 q 244 602 385 685 q 58 418 104 519 q 33 331 33 364 q 82 288 33 288 q 115 292 93 288 q 146 296 136 296 q 157 289 157 296 q 118 261 157 272 q 65 254 89 254 q -22 326 -22 254 q -4 397 -22 358 q 218 619 53 519 q 517 718 379 718 q 653 607 653 718 q 613 471 653 553 q 499 218 572 389 q 475 114 475 151 q 506 74 475 74 q 708 231 581 74 q 826 379 749 279 q 911 515 854 425 q 917 561 913 531 q 951 611 921 582 q 1001 640 981 640 q 1018 622 1018 640 q 1017 615 1018 617 q 1004 583 1013 604 q 960 369 983 524 q 914 108 949 282 l 928 108 q 999 101 964 110 q 1049 67 1049 90 m 856 58 q 438 -94 667 22 q 144 -383 144 -243 q 263 -456 144 -456 q 458 -415 367 -456 q 703 -218 588 -358 q 856 58 813 -83 m 1042 949 q 1038 938 1042 944 q 826 783 944 768 q 706 910 725 797 q 704 947 701 932 q 715 967 706 968 q 733 932 724 965 q 768 869 750 890 q 843 828 794 833 q 1015 942 935 815 q 1035 958 1026 960 q 1042 949 1043 957 z "},"":{"ha":1042,"x_min":19,"x_max":1114,"o":"m 1114 794 q 1107 779 1114 790 q 911 293 989 582 q 974 257 974 274 q 958 243 974 243 q 933 252 957 243 q 903 263 910 261 q 863 -1 863 96 q 876 -49 863 -49 q 910 -31 889 -49 q 936 -14 932 -14 q 949 -29 949 -14 q 922 -60 949 -44 q 876 -76 894 -76 q 824 11 824 -76 q 858 271 824 100 q 694 282 788 281 q 585 157 653 231 q 414 -7 474 38 q 194 -85 307 -85 q 74 -51 119 -85 q 19 57 19 -15 q 88 206 19 138 q 232 289 149 267 q 675 326 371 328 q 857 550 765 432 q 935 654 882 586 q 947 661 940 661 q 965 644 965 661 q 963 635 965 640 q 876 519 954 622 q 729 325 786 399 q 865 306 799 321 q 965 636 904 482 q 1021 758 982 679 q 1058 788 1026 768 q 1101 807 1090 807 q 1114 794 1114 807 m 636 282 l 597 282 q 236 250 358 282 q 115 182 167 231 q 57 60 57 126 q 96 -10 57 14 q 178 -31 128 -31 q 385 39 283 -31 q 550 189 450 83 q 636 282 592 231 z "},"":{"ha":1001,"x_min":32,"x_max":1100,"o":"m 1100 561 q 1086 539 1100 539 q 1076 551 1079 539 q 1065 588 1072 575 q 976 654 1042 629 q 864 675 921 675 q 660 650 775 675 q 479 344 556 501 q 419 206 443 269 q 672 197 558 215 q 875 125 792 179 q 893 228 903 182 q 753 342 872 308 q 660 359 707 354 q 567 358 614 364 l 538 356 q 518 367 519 356 q 522 385 514 378 q 546 399 531 393 q 613 399 574 403 q 692 388 651 396 q 769 368 732 379 q 829 346 806 357 q 950 228 932 300 q 921 93 965 171 q 958 58 944 72 q 974 33 971 44 q 963 14 975 15 q 958 15 960 14 q 951 18 956 17 q 925 47 936 35 q 903 67 914 60 q 717 -68 842 -15 q 604 -105 663 -92 q 481 -125 546 -118 q 313 -107 399 -133 q 185 -3 201 -75 q 231 143 163 81 q 266 166 244 156 q 312 184 288 176 q 361 197 336 192 q 367 199 364 197 q 421 329 389 257 q 576 629 489 483 q 368 569 472 600 q 158 538 243 538 q 32 603 32 538 q 46 644 32 622 q 189 738 85 704 q 363 764 274 764 q 482 753 446 764 q 500 735 500 747 q 489 724 500 724 l 485 724 q 367 735 371 735 q 221 715 294 735 q 93 649 128 692 q 79 621 79 632 q 164 586 79 586 q 386 622 246 586 q 610 683 499 653 q 636 722 618 697 q 703 743 654 743 q 721 736 721 743 q 697 701 721 733 q 856 717 782 717 q 1010 676 932 717 q 1100 561 1100 629 m 378 8 q 396 -46 378 -46 q 431 -30 408 -46 q 456 -14 453 -14 q 468 -26 468 -14 q 440 -58 468 -42 q 393 -74 411 -74 q 325 13 325 -74 q 356 167 325 71 q 264 108 296 146 q 240 0 224 64 q 342 -83 256 -60 q 475 -97 407 -104 q 863 96 754 -71 q 767 140 818 121 q 658 171 717 160 q 449 183 547 194 q 435 182 444 183 q 417 179 426 181 q 410 179 413 179 q 378 8 378 81 z "},"":{"ha":875,"x_min":1,"x_max":892,"o":"m 892 631 q 783 510 892 564 q 615 454 703 468 q 785 389 715 431 q 882 249 882 329 q 814 106 882 183 q 854 35 854 57 q 839 15 854 15 q 828 22 832 15 q 789 79 807 60 q 553 -49 699 -4 q 286 -86 425 -86 q 110 -50 193 -86 q 1 76 1 -4 q 90 229 1 169 q 264 285 165 279 q 393 551 324 422 q 465 674 415 594 q 536 704 488 704 q 556 693 556 704 q 553 685 556 689 q 311 285 422 508 q 776 144 624 278 q 821 254 821 203 q 703 392 821 342 q 508 429 611 429 q 493 429 504 429 q 476 429 482 429 q 458 442 458 429 q 499 474 458 467 q 565 483 521 476 q 811 590 733 518 q 843 643 843 621 q 714 718 843 693 q 533 735 626 735 q 67 644 283 735 q 56 642 60 642 q 44 653 44 642 q 63 690 44 669 q 99 717 82 710 q 467 775 243 775 q 714 750 600 775 q 892 631 892 713 m 751 114 q 556 217 674 179 q 335 251 443 251 q 294 250 314 251 q 211 13 211 72 q 213 1 211 8 q 214 -10 214 -6 q 199 -28 214 -28 q 176 10 176 -28 q 247 244 176 72 q 63 74 63 214 q 147 -26 63 10 q 286 -56 214 -56 q 751 114 594 -56 z "},"":{"ha":699,"x_min":-42,"x_max":1061,"o":"m 538 618 q 433 588 485 603 q 329 558 382 574 q 119 526 201 526 q -7 592 -7 526 q 7 633 -7 611 q 150 726 46 693 q 324 753 233 753 q 443 742 406 753 q 461 724 461 736 q 450 713 461 713 l 446 713 q 359 721 388 718 q 328 724 331 724 q 182 704 257 724 q 54 638 90 682 q 40 610 40 622 q 125 575 40 575 q 347 611 206 575 q 495 651 419 629 q 649 688 571 672 q 614 714 639 714 q 568 699 596 714 q 539 683 540 683 q 529 696 529 683 q 576 733 529 714 q 642 749 617 749 q 706 697 692 749 q 761 703 733 700 q 817 706 789 706 q 971 665 893 706 q 1061 550 1061 617 q 1047 528 1061 528 q 1038 540 1039 528 q 1026 576 1033 563 q 938 643 1004 618 q 825 664 881 664 q 776 660 806 664 q 713 651 746 657 l 713 647 q 631 342 713 522 l 624 310 l 594 271 q 397 26 511 125 q 115 -94 256 -94 q 8 -65 50 -94 q -42 29 -42 -32 q 90 244 -42 126 q 313 360 218 360 q 325 350 325 360 q 306 335 325 342 q 57 158 149 275 q 1 19 1 88 q 101 -68 1 -68 q 375 65 239 -68 q 558 319 476 167 l 585 374 q 654 642 651 536 q 591 629 621 635 q 538 618 561 624 z "},"":{"ha":1042,"x_min":-29,"x_max":1063,"o":"m 1063 432 q 986 215 1063 322 q 817 54 921 124 q 822 35 822 42 q 808 15 822 15 q 789 38 803 15 q 310 -87 581 -87 q 254 -86 281 -87 q 79 -47 160 -82 q -29 76 -29 -1 q 58 229 -29 169 q 233 285 135 279 q 369 564 296 431 q 435 674 392 607 q 506 704 458 704 q 525 693 525 704 q 522 685 525 689 q 281 285 392 508 q 790 97 654 276 q 940 244 882 161 q 1008 439 1008 342 q 832 679 1008 596 q 519 742 696 742 q 103 639 285 742 q 85 633 92 633 q 67 654 67 633 q 110 708 67 685 q 300 763 172 742 q 499 779 407 779 q 860 707 704 779 q 1063 432 1063 614 m 760 76 q 549 206 696 156 q 300 251 417 251 q 264 250 282 251 q 181 13 181 72 q 182 1 181 8 q 183 -10 183 -6 q 168 -28 183 -28 q 146 10 146 -28 q 217 244 146 72 q 32 74 32 214 q 117 -25 32 11 q 256 -56 181 -53 q 290 -56 271 -56 q 760 76 554 -56 z "},"":{"ha":815,"x_min":42,"x_max":950,"o":"m 824 457 q 653 388 744 408 q 481 367 561 367 q 179 342 351 367 q 110 149 110 236 q 172 22 110 65 q 314 -17 225 -17 q 778 192 525 -17 q 788 196 783 196 q 806 178 806 196 q 800 165 806 171 q 558 7 697 71 q 282 -65 408 -65 q 118 -24 181 -65 q 46 121 46 24 q 114 332 46 218 q 51 319 44 319 q 42 329 42 319 q 71 374 42 363 q 150 388 78 376 q 276 526 206 464 q 432 640 346 589 q 793 750 617 750 q 885 734 851 750 q 935 692 919 718 q 947 633 950 665 q 928 568 944 600 q 885 506 913 536 q 824 457 858 476 m 781 478 q 910 644 910 578 q 794 713 910 713 q 476 610 653 713 q 218 394 321 518 q 332 405 278 401 q 438 408 386 408 q 626 425 543 408 q 781 478 710 442 z "},"":{"ha":1532,"x_min":13,"x_max":1750,"o":"m 563 774 q 703 739 650 778 q 769 600 765 697 q 759 501 772 554 q 719 390 746 449 l 689 335 q 681 320 685 328 q 671 306 676 313 q 776 293 722 292 q 801 291 785 290 q 846 294 818 292 q 900 432 868 357 q 1057 738 981 619 l 1079 771 q 1139 794 1094 794 q 1157 786 1157 794 q 1146 765 1157 783 l 1125 736 q 947 440 1014 581 q 886 297 911 363 q 958 304 918 300 q 1046 314 997 308 l 1051 314 l 1074 356 q 1176 497 1118 433 q 1306 614 1235 560 q 1611 735 1460 726 q 1747 633 1743 739 q 1713 518 1750 581 q 1636 432 1679 465 q 1621 426 1626 426 q 1600 447 1600 424 q 1608 467 1600 456 q 1714 635 1717 568 q 1614 697 1711 701 q 1344 585 1493 692 q 1226 481 1279 536 q 1132 364 1172 426 l 1104 321 q 1275 329 1264 338 q 1299 240 1319 296 q 1287 222 1294 232 q 1269 201 1279 211 q 1250 187 1260 192 q 1235 185 1240 182 q 1235 214 1229 196 q 1241 226 1238 218 q 1247 239 1244 233 q 1249 246 1250 242 q 1246 251 1249 250 q 1185 263 1231 264 q 1134 261 1161 261 q 1075 260 1107 261 q 1046 119 1043 185 q 1104 -3 1050 39 q 1228 -35 1151 -36 q 1307 -19 1272 -33 q 1372 22 1342 -4 q 1433 86 1403 47 q 1499 176 1463 125 q 1517 178 1510 190 q 1519 151 1525 167 q 1468 78 1501 118 q 1392 3 1435 38 q 1300 -57 1350 -32 q 1200 -83 1250 -82 q 1060 -49 1113 -87 q 993 90 997 -7 q 999 171 990 128 q 1026 260 1008 214 q 952 258 990 258 q 871 258 914 258 q 832 114 842 175 l 828 64 q 853 24 829 24 q 883 39 864 24 q 906 54 903 54 q 915 42 915 54 q 890 10 915 25 q 850 -4 865 -4 q 796 61 800 -4 l 797 108 q 832 257 804 169 q 783 256 808 257 q 729 256 757 256 l 663 265 q 651 275 661 272 q 563 168 611 217 q 457 76 514 119 q 151 -44 303 -36 q 15 57 19 -49 q 50 172 13 110 q 126 258 83 225 q 142 264 136 264 q 163 243 163 265 q 154 224 163 233 q 49 56 46 122 q 149 -7 50 -11 q 278 24 211 -4 q 418 106 344 53 q 603 286 528 185 q 572 301 589 292 q 533 325 554 310 q 526 341 529 328 q 525 361 522 354 q 571 358 532 385 q 628 322 599 336 q 629 324 629 324 q 631 326 629 325 l 663 378 q 717 571 718 486 q 658 693 713 651 q 535 725 611 726 q 456 708 490 722 q 390 669 421 694 q 330 604 360 643 q 264 514 300 565 q 245 512 253 500 q 243 539 238 524 q 294 613 261 572 q 370 688 328 653 q 463 747 413 722 q 563 774 513 771 z "},"":{"ha":644,"x_min":-122,"x_max":750,"o":"m 750 557 q 633 351 750 467 q 438 194 572 292 l 453 194 q 576 100 576 197 q 569 54 576 79 l 581 54 q 706 26 696 56 q 692 15 704 15 q 667 21 682 15 q 646 27 651 26 q 613 28 640 28 q 561 26 586 28 q 532 -31 550 -1 q 151 -447 371 -308 q -35 -519 40 -519 q -122 -428 -122 -519 q -96 -324 -122 -381 q 161 -54 -21 -158 q 522 53 328 40 q 535 108 535 86 q 460 161 535 161 q 322 131 397 161 q 239 97 240 97 q 224 110 224 97 q 242 143 224 125 q 297 167 250 153 q 356 189 343 181 q 568 354 468 258 q 703 568 703 483 q 581 653 703 653 q 286 578 454 653 q 32 411 128 504 q 11 433 11 415 q 150 568 11 496 q 349 649 246 618 q 569 683 467 683 q 750 557 750 683 m 508 22 q 39 -192 215 -8 q -47 -312 -19 -253 q -71 -404 -71 -367 q -6 -475 -71 -475 q 132 -422 47 -475 q 344 -222 231 -361 q 508 22 449 -96 z "},"":{"ha":957,"x_min":-22,"x_max":1082,"o":"m 1082 724 q 1079 718 1082 721 q 893 344 946 488 q 815 4 815 132 q 851 -79 815 -79 q 887 -60 865 -79 q 913 -40 908 -40 q 925 -53 925 -40 q 888 -92 925 -71 q 832 -114 851 -114 q 767 -10 767 -114 q 851 363 767 110 q 686 138 768 250 q 488 -19 558 -19 q 399 67 399 -19 q 465 286 399 140 q 572 499 519 392 q 601 603 601 561 q 499 685 601 685 q 244 602 385 685 q 58 418 104 519 q 33 331 33 364 q 82 288 33 288 q 115 292 93 288 q 146 296 136 296 q 157 289 157 296 q 118 261 157 272 q 65 254 89 254 q -22 326 -22 254 q -4 397 -22 358 q 218 619 53 519 q 517 718 379 718 q 653 607 653 718 q 614 471 653 553 q 481 192 567 379 q 447 61 447 104 q 476 21 447 21 q 675 178 549 21 q 867 456 767 293 q 925 557 888 489 q 999 703 947 608 q 1031 722 1007 714 q 1069 731 1054 731 q 1082 724 1082 731 z "},"":{"ha":957,"x_min":-22,"x_max":1160,"o":"m 1082 724 q 1079 718 1082 721 q 893 344 946 488 q 815 4 815 132 q 851 -79 815 -79 q 887 -60 865 -79 q 913 -40 908 -40 q 925 -53 925 -40 q 888 -92 925 -71 q 832 -114 851 -114 q 767 -10 767 -114 q 851 363 767 110 q 686 138 768 250 q 488 -19 558 -19 q 399 67 399 -19 q 465 286 399 140 q 572 499 519 392 q 601 603 601 561 q 499 685 601 685 q 244 602 385 685 q 58 418 104 519 q 33 331 33 364 q 82 288 33 288 q 115 292 93 288 q 146 296 136 296 q 157 289 157 296 q 118 261 157 272 q 65 254 89 254 q -22 326 -22 254 q -4 397 -22 358 q 218 619 53 519 q 517 718 379 718 q 653 607 653 718 q 614 471 653 553 q 481 192 567 379 q 447 61 447 104 q 476 21 447 21 q 675 178 549 21 q 867 456 767 293 q 925 557 888 489 q 999 703 947 608 q 1031 722 1007 714 q 1069 731 1054 731 q 1082 724 1082 731 m 1158 867 q 1154 856 1158 863 q 943 701 1061 686 q 822 828 843 715 q 821 865 819 843 q 832 885 822 886 q 850 850 838 883 q 885 788 861 819 q 960 746 911 751 q 1132 860 1054 733 q 1151 876 1143 878 q 1158 867 1160 875 z "},"":{"ha":1015,"x_min":-42,"x_max":1044,"o":"m 1043 664 l 1043 660 q 624 310 1033 488 q 772 128 682 224 q 954 -1 894 -1 q 986 33 986 -1 q 983 58 986 42 q 979 78 979 74 q 990 90 979 90 q 1014 35 1014 90 q 996 -14 1014 6 q 950 -33 978 -33 q 754 88 878 -33 q 594 271 674 167 q 397 26 511 125 q 115 -94 256 -94 q 8 -65 50 -94 q -42 29 -42 -32 q 90 244 -42 126 q 313 360 218 360 q 325 350 325 360 q 306 335 325 342 q 57 158 149 275 q 1 19 1 88 q 101 -68 1 -68 q 375 65 239 -68 q 558 319 476 167 q 493 435 493 413 q 501 477 493 449 q 519 506 510 506 q 526 499 524 506 q 585 374 557 422 q 654 647 654 540 q 614 714 654 714 q 568 699 596 714 q 539 683 540 683 q 529 696 529 683 q 576 733 529 714 q 642 749 617 749 q 713 647 713 749 q 631 342 713 522 q 996 625 917 472 q 1014 671 1003 638 q 1028 685 1018 685 q 1043 664 1044 685 z "},"":{"ha":949,"x_min":-62,"x_max":1114,"o":"m 858 271 q 965 636 904 481 q 988 688 974 658 q 1021 758 1001 718 q 1058 788 1026 768 q 1101 807 1090 807 q 1114 794 1114 807 q 1107 779 1114 790 q 911 293 988 581 l 903 263 q 863 -1 863 93 q 876 -49 863 -49 q 910 -31 890 -49 q 936 -14 932 -14 q 949 -29 949 -14 q 921 -60 949 -44 q 876 -76 893 -76 q 824 11 824 -76 q 858 271 824 103 m 624 194 q 379 -3 511 69 q 79 -62 215 -92 q -19 -12 15 -49 q -49 90 -62 31 q 125 274 -29 186 q 367 340 274 360 q 376 328 378 338 q 354 317 375 319 q 74 197 188 292 q -10 72 6 139 q 71 -35 -28 -14 q 365 39 206 -62 q 603 248 486 117 q 765 435 719 379 q 857 550 811 490 q 889 594 869 568 q 935 654 908 619 q 947 661 942 661 q 965 644 965 661 q 963 635 965 643 q 876 519 956 624 q 794 410 832 458 q 624 194 757 361 z "},"":{"ha":1342,"x_min":-62,"x_max":1374,"o":"m 1240 560 q 1094 403 1182 511 q 987 261 1036 329 q 899 129 938 193 q 877 91 888 108 q 858 58 867 74 q 851 43 856 51 q 839 25 846 35 q 828 24 835 24 q 788 57 789 24 q 792 71 788 64 q 803 94 793 72 q 827 148 814 117 q 855 213 840 179 q 881 271 869 246 q 909 376 893 325 q 940 472 925 428 q 968 553 956 517 q 988 614 981 590 q 992 651 996 644 q 963 635 988 658 q 876 519 957 625 q 834 461 854 489 q 794 410 814 433 q 733 332 775 386 q 624 194 690 278 q 379 -3 513 72 q 79 -62 215 -92 q -19 -12 17 -49 q -49 90 -62 31 q 125 274 -31 186 q 367 340 272 358 q 376 328 378 338 q 354 317 374 318 q 74 197 189 292 q -10 72 4 139 q 71 -35 -29 -14 q 365 39 207 -62 q 603 247 486 115 q 765 435 719 378 q 811 491 789 463 q 857 550 833 519 q 889 594 869 568 q 935 654 908 619 q 976 695 949 683 q 1029 708 1004 707 q 1069 706 1054 710 q 1074 703 1085 703 q 1086 690 1086 703 q 1079 675 1086 686 q 1063 648 1071 661 q 1049 621 1056 635 q 1013 542 1028 581 q 984 460 997 503 q 958 369 971 418 q 928 257 944 319 q 1110 468 1011 363 q 1174 531 1140 501 q 1240 584 1207 561 q 1305 620 1274 607 q 1361 633 1336 633 q 1374 621 1374 633 q 1366 588 1374 607 q 1349 549 1358 569 q 1328 508 1339 528 q 1314 474 1318 488 q 1277 367 1294 421 q 1240 260 1260 314 q 1196 46 1194 110 q 1233 -6 1197 -6 q 1282 19 1253 -6 q 1318 43 1314 43 q 1324 36 1324 43 q 1288 -14 1326 7 q 1226 -35 1254 -35 q 1149 60 1153 -35 q 1174 225 1146 121 q 1201 310 1185 263 q 1238 417 1217 358 q 1257 464 1246 436 q 1281 532 1268 492 q 1277 573 1289 563 q 1240 560 1265 583 z "},"":{"ha":1126,"x_min":-25,"x_max":1324,"o":"m 1324 736 q 1321 729 1324 733 q 1058 296 1147 499 q 1147 204 1147 253 q 1140 181 1147 193 q 1122 168 1132 168 q 1106 185 1106 168 q 1110 194 1106 189 q 1114 206 1114 200 q 1044 265 1114 233 q 969 4 969 89 q 999 -46 969 -46 q 1033 -30 1011 -46 q 1058 -14 1056 -14 q 1071 -26 1071 -14 q 1042 -58 1071 -42 q 996 -74 1014 -74 q 932 11 932 -74 q 1006 281 932 99 q 813 317 932 304 q 564 18 724 150 q 217 -133 382 -133 q 53 -87 121 -133 q -25 57 -25 -35 q 257 307 -25 228 q 679 360 447 360 q 767 357 729 360 q 839 622 839 536 q 804 676 839 676 q 758 661 786 676 q 728 646 731 646 q 719 658 719 646 q 765 694 719 676 q 832 711 807 711 q 896 621 896 711 q 829 351 896 525 q 1018 313 951 335 q 1063 413 1039 361 q 1239 722 1165 638 q 1306 743 1257 743 q 1324 736 1324 743 m 749 321 q 676 324 717 324 q 288 274 467 324 q 24 47 24 200 q 88 -65 24 -25 q 217 -100 142 -100 q 531 43 367 -100 q 749 321 669 165 z "},"":{"ha":897,"x_min":0,"x_max":974,"o":"m 974 499 q 896 289 974 400 q 612 51 797 146 q 253 -43 426 -43 q 71 103 71 -43 q 92 200 71 147 q 0 335 0 243 q 117 556 0 454 q 343 683 208 635 q 632 736 488 736 q 858 686 767 736 q 974 499 974 622 m 928 519 q 839 665 928 617 q 661 704 768 704 q 364 642 522 704 q 156 526 246 594 q 32 336 32 431 q 104 229 32 254 q 297 460 168 342 q 540 626 425 579 q 640 653 599 650 l 643 653 q 660 640 660 654 q 640 622 660 626 q 544 590 588 614 q 429 513 493 563 q 278 376 354 456 q 160 215 176 272 q 211 210 186 210 q 460 326 335 210 q 508 372 510 372 q 518 361 518 372 q 381 235 464 283 q 201 182 292 182 q 150 189 172 182 q 126 103 126 143 q 167 17 126 47 q 264 -14 207 -14 q 597 86 431 -14 q 853 324 753 179 q 928 519 928 432 z "},"":{"ha":1228,"x_min":10,"x_max":1218,"o":"m 1218 522 q 1138 264 1218 440 q 1057 36 1057 88 q 1096 -6 1057 -6 q 1151 18 1118 -6 q 1189 42 1183 42 q 1194 35 1194 42 q 1156 -14 1194 7 q 1088 -35 1118 -35 q 1014 43 1014 -35 q 1056 196 1014 100 q 1108 317 1106 308 q 1153 442 1138 386 q 1169 531 1169 499 q 1135 579 1169 579 q 1092 568 1118 579 q 840 332 992 522 q 638 39 729 192 q 569 -58 615 -1 q 539 -28 539 -58 q 543 -11 539 -18 q 713 290 619 82 q 813 615 813 514 q 635 765 813 765 q 442 728 550 765 q 200 606 317 686 q 46 403 46 500 q 153 324 46 324 q 307 351 210 324 q 321 354 317 354 q 332 346 332 354 q 260 306 332 322 q 165 292 203 292 q 10 414 10 292 q 168 638 10 528 q 429 764 288 719 q 643 799 546 799 q 872 618 872 799 q 771 300 872 492 q 929 490 850 394 q 1117 619 1049 619 q 1218 522 1218 619 z "},"":{"ha":642,"x_min":-53,"x_max":800,"o":"m 800 543 q 781 468 800 507 q 611 322 735 376 q 389 275 503 275 q 263 282 328 275 q 122 -67 122 18 q 124 -78 122 -71 q 125 -87 125 -85 q 110 -107 125 -107 q 88 -69 88 -107 q 213 290 88 25 q 97 356 97 313 q 132 401 97 383 q 192 417 161 417 q 207 407 207 417 q 173 390 207 397 q 139 365 139 382 q 225 318 139 342 q 329 519 278 428 q 376 596 344 546 q 447 625 397 625 q 467 615 467 625 q 464 606 467 611 q 276 308 365 472 q 338 304 307 304 q 567 356 451 304 q 732 510 699 417 q 739 553 739 532 q 617 668 739 644 q 425 685 532 685 q -28 604 194 685 q -43 601 -37 601 q -53 610 -53 601 q -29 647 -53 626 q 10 672 -10 665 q 365 722 161 722 q 643 693 510 722 q 800 543 800 658 z "},"":{"ha":717,"x_min":-7,"x_max":897,"o":"m 897 642 q 793 468 897 547 q 597 392 696 392 q 496 469 496 392 q 521 525 496 525 q 531 513 531 525 q 529 500 531 508 q 528 488 528 492 q 599 433 528 433 q 765 504 672 433 q 858 644 858 575 q 743 713 858 713 q 697 710 719 713 q 425 609 578 697 q 171 403 272 521 q 58 147 58 269 q 110 31 58 71 q 235 -6 156 -6 q 725 192 488 -6 q 736 196 731 196 q 753 178 753 196 q 747 165 753 171 q 507 7 646 72 q 231 -65 354 -65 q 67 -24 129 -65 q -7 121 -7 25 q 86 369 -7 235 q 371 635 196 529 q 740 750 558 750 q 897 642 897 750 z "},"":{"ha":1547,"x_min":-71,"x_max":1529,"o":"m 1529 507 q 1501 394 1529 461 q 1414 183 1458 289 q 1358 -28 1358 38 q 1396 -78 1358 -78 q 1449 -54 1417 -78 q 1488 -31 1482 -31 q 1493 -37 1493 -31 q 1455 -86 1493 -65 q 1388 -107 1417 -107 q 1308 -14 1308 -107 q 1342 149 1308 47 q 1418 338 1368 224 q 1468 451 1438 375 q 1481 507 1481 489 q 1471 522 1481 522 q 1218 324 1400 522 q 999 54 1086 179 q 953 -15 971 14 q 931 -49 946 -31 q 919 -50 925 -50 q 878 -17 878 -50 q 883 -3 878 -10 q 935 103 888 4 q 1075 522 1075 394 q 1039 581 1075 581 q 844 432 981 581 q 556 39 690 263 q 525 -12 540 13 q 489 -58 503 -47 q 457 -28 457 -58 q 463 -11 457 -18 q 628 283 539 82 q 725 603 725 500 q 572 742 725 742 q 378 701 492 742 q 222 631 301 674 q 71 533 142 588 q -35 399 -35 451 q 117 321 -35 321 q 207 330 147 321 q 296 339 267 339 q 307 333 307 339 q 300 324 307 328 q 143 290 253 290 q 7 313 64 290 q -71 411 -71 343 q 33 567 -71 483 q 201 671 104 624 q 369 736 283 710 q 588 772 492 772 q 790 618 790 772 q 690 300 790 493 q 849 490 769 394 q 1036 619 968 619 q 1119 494 1119 619 q 1035 181 1119 386 q 1236 389 1126 283 q 1456 557 1392 536 q 1486 563 1474 563 q 1529 507 1529 563 z "},"":{"ha":1043,"x_min":-22,"x_max":1049,"o":"m 1049 67 q 1033 51 1049 51 q 1021 54 1026 51 q 951 71 983 71 q 904 65 931 71 q 671 -318 838 -160 q 267 -494 486 -494 q 160 -468 206 -494 q 106 -378 106 -435 q 414 -58 106 -211 q 869 101 633 50 q 906 446 883 158 q 886 415 894 428 q 708 176 828 335 q 521 33 592 33 q 425 122 425 33 q 513 378 425 204 q 601 603 601 553 q 499 685 601 685 q 244 602 385 685 q 58 418 104 519 q 33 331 33 364 q 82 288 33 288 q 115 292 93 288 q 146 296 136 296 q 157 289 157 296 q 118 261 157 272 q 65 254 89 254 q -22 326 -22 254 q -4 397 -22 358 q 218 619 53 519 q 517 718 379 718 q 653 607 653 718 q 613 471 653 553 q 499 218 572 389 q 475 114 475 151 q 506 74 475 74 q 708 231 581 74 q 826 379 749 279 q 911 515 854 425 q 917 561 913 531 q 951 611 921 582 q 1001 640 981 640 q 1018 622 1018 640 q 1017 615 1018 617 q 1004 583 1013 604 q 960 369 983 524 q 914 108 949 282 l 928 108 q 999 101 964 110 q 1049 67 1049 90 m 856 58 q 438 -94 667 22 q 144 -383 144 -243 q 263 -456 144 -456 q 458 -415 367 -456 q 703 -218 588 -358 q 856 58 813 -83 z "},"":{"ha":881,"x_min":21,"x_max":1085,"o":"m 382 150 l 379 150 q 338 39 354 90 q 312 -56 321 -15 q 303 -118 303 -97 q 304 -129 303 -122 q 306 -139 306 -136 q 296 -153 306 -153 q 278 -121 278 -153 q 286 -55 278 -97 q 310 43 294 -12 q 346 154 325 94 q 154 197 217 169 q 21 369 21 249 q 118 565 21 474 q 305 676 200 640 q 511 713 410 713 q 588 710 549 713 q 621 708 604 710 q 644 753 632 729 q 108 649 369 750 q 94 646 97 646 q 86 653 86 646 q 94 674 86 663 q 112 697 101 686 q 135 715 122 707 q 157 725 147 722 q 353 773 247 757 q 585 789 458 789 l 628 789 q 664 788 646 789 q 682 821 675 808 q 711 869 692 840 q 779 896 729 896 q 793 890 793 896 q 792 888 792 889 q 790 885 792 886 q 739 806 767 849 q 722 779 731 793 l 725 779 q 953 732 876 763 q 1085 560 1085 681 q 988 364 1085 453 q 900 299 947 326 q 801 252 853 271 q 698 224 750 233 q 596 215 646 215 q 518 218 557 215 q 439 226 479 221 q 417 233 425 229 q 393 181 404 207 l 399 181 q 483 176 453 182 q 514 162 513 169 q 484 150 515 154 q 382 150 453 146 m 449 249 q 533 240 492 240 q 611 246 572 240 q 690 263 650 251 q 904 368 811 299 q 1025 572 1025 460 q 907 719 1025 678 q 821 739 875 731 q 704 750 769 746 q 682 711 693 731 l 675 700 q 719 672 707 686 q 727 647 733 657 q 697 636 721 638 q 646 649 676 636 q 625 611 636 631 q 565 503 596 558 q 503 393 533 449 q 446 288 472 338 q 426 253 436 269 q 449 249 436 251 m 250 317 q 290 371 250 349 q 357 389 321 389 q 371 382 371 389 q 328 364 371 378 q 288 328 288 351 q 389 261 288 290 q 406 294 397 278 q 486 456 433 354 q 601 675 536 553 q 592 682 597 679 q 574 688 583 688 q 415 667 496 688 q 203 561 293 631 q 82 357 82 469 q 199 210 82 249 q 282 192 232 199 q 357 183 315 186 q 379 236 367 210 q 250 317 250 264 z "},"":{"ha":897,"x_min":-78,"x_max":1010,"o":"m 1010 711 q 875 471 1010 639 q 675 253 774 344 q 751 103 710 168 q 869 -1 817 -1 q 925 71 914 -1 q 940 90 928 90 q 953 76 953 90 q 922 -3 953 32 q 849 -37 892 -37 q 711 56 781 -37 q 626 208 663 119 q 349 7 489 88 q 28 -97 165 -97 q -78 -25 -78 -97 q -14 97 -78 29 q 97 188 35 150 q 115 194 110 194 q 125 188 125 194 q 103 157 125 176 q -32 -25 -32 44 q 35 -68 -32 -68 q 608 253 258 -68 q 547 615 547 428 q 547 654 547 647 q 566 683 549 665 q 594 701 583 701 q 603 692 603 701 q 603 647 603 701 q 658 299 603 461 q 699 339 679 319 q 843 511 761 401 q 947 694 947 647 q 926 714 947 714 q 873 699 907 714 q 836 685 839 685 q 829 692 829 685 q 888 732 829 711 q 967 750 939 750 q 1010 711 1010 750 z "},"":{"ha":957,"x_min":-22,"x_max":1082,"o":"m 1082 724 q 1079 718 1082 721 q 893 344 946 488 q 822 86 815 132 q 858 3 822 3 q 894 22 872 3 q 919 42 915 42 q 932 29 932 42 q 895 -10 932 11 q 839 -32 858 -32 q 774 72 774 -32 q 851 363 767 110 q 686 138 768 250 q 488 -19 558 -19 q 399 67 399 -19 q 465 286 399 140 q 572 499 519 392 q 601 603 601 561 q 499 685 601 685 q 244 602 385 685 q 58 418 104 519 q 33 331 33 364 q 82 288 33 288 q 115 292 93 288 q 146 296 136 296 q 157 289 157 296 q 118 261 157 272 q 65 254 89 254 q -22 326 -22 254 q -4 397 -22 358 q 218 619 53 519 q 517 718 379 718 q 653 607 653 718 q 614 471 653 553 q 481 192 567 379 q 447 61 447 104 q 476 21 447 21 q 675 178 549 21 q 867 456 767 293 q 925 557 888 489 q 999 703 947 608 q 1031 722 1007 714 q 1069 731 1054 731 q 1082 724 1082 731 m 679 -232 q 703 -211 686 -212 q 736 -227 704 -208 q 792 -243 768 -246 q 886 -149 857 -233 q 904 24 917 -67 l 910 32 q 936 -60 940 35 q 913 -199 932 -144 q 804 -297 882 -285 q 726 -281 776 -299 q 679 -232 671 -258 z "},"":{"ha":957,"x_min":-22,"x_max":1082,"o":"m 865 424 q 779 314 861 426 q 581 157 651 157 q 492 243 492 157 q 558 463 492 317 q 601 603 601 561 q 499 685 601 685 q 244 602 385 685 q 58 418 104 519 q 33 331 33 364 q 82 288 33 288 q 115 292 93 288 q 146 296 136 296 q 157 289 157 296 q 118 261 157 272 q 65 254 89 254 q -22 326 -22 254 q -4 397 -22 358 q 218 619 53 519 q 517 718 379 718 q 653 607 653 718 q 614 471 653 553 q 571 363 601 446 q 540 238 540 281 q 569 197 540 197 q 768 354 642 197 q 903 539 860 469 q 977 661 947 608 q 1031 722 1007 714 q 1069 731 1054 731 q 1082 724 1082 731 q 1079 718 1082 721 q 893 344 946 488 q 815 4 815 132 q 851 -79 815 -79 q 887 -60 865 -79 q 913 -40 908 -40 q 925 -53 925 -40 q 888 -92 925 -71 q 832 -114 851 -114 q 767 -10 767 -114 q 865 424 774 222 z "},"":{"ha":1269,"x_min":-22,"x_max":1414,"o":"m 946 464 q 938 448 942 456 q 928 431 933 440 q 927 428 928 429 q 926 426 926 428 q 921 417 924 419 q 873 319 900 375 q 814 192 846 264 q 781 61 781 104 q 810 21 781 21 q 1008 178 881 21 q 1101 305 1054 236 q 1199 456 1149 374 q 1224 497 1210 472 q 1257 557 1238 522 q 1286 619 1268 583 q 1331 703 1304 656 q 1363 722 1339 714 q 1401 731 1386 731 q 1414 724 1414 731 q 1411 718 1414 721 q 1324 561 1363 633 q 1258 426 1286 489 q 1240 384 1249 404 q 1225 344 1232 364 q 1154 86 1147 132 q 1190 3 1154 3 q 1225 22 1203 3 q 1251 42 1249 42 q 1264 29 1264 42 q 1226 -10 1264 11 q 1171 -32 1192 -32 q 1106 72 1106 -32 q 1185 363 1099 110 q 1101 250 1143 306 q 1019 138 1060 194 q 821 -19 892 -19 q 732 67 732 -19 q 799 286 732 140 q 803 294 801 290 q 808 304 806 299 q 747 221 776 263 q 686 138 717 179 q 488 -19 558 -19 q 399 67 399 -19 q 465 286 399 140 q 519 392 493 339 q 572 499 546 446 q 601 603 601 561 q 499 685 601 685 q 244 601 383 685 q 58 418 104 519 q 33 331 33 364 q 82 288 33 288 q 115 292 93 288 q 146 296 136 296 q 157 289 157 296 q 118 261 157 271 q 65 254 86 254 q -22 326 -22 254 q -4 397 -22 360 q 218 619 51 518 q 517 718 379 718 q 653 607 653 718 q 614 471 653 550 q 481 192 565 379 q 447 61 447 104 q 476 21 447 21 q 675 178 547 21 q 867 456 765 290 q 892 497 878 472 q 925 557 906 522 q 954 619 936 583 q 999 703 972 656 q 1031 722 1007 714 q 1069 731 1054 731 q 1082 724 1082 731 q 1079 718 1082 721 q 944 465 996 575 l 946 464 z "},"":{"ha":1269,"x_min":-22,"x_max":1414,"o":"m 946 464 q 938 448 942 456 q 928 431 933 440 q 927 428 928 429 q 926 426 926 428 q 921 417 924 419 q 873 319 900 375 q 814 192 846 264 q 781 61 781 104 q 810 21 781 21 q 1008 178 881 21 q 1101 305 1054 236 q 1199 456 1149 374 q 1224 497 1210 472 q 1257 557 1238 522 q 1286 619 1268 583 q 1331 703 1304 656 q 1363 722 1339 714 q 1401 731 1386 731 q 1414 724 1414 731 q 1411 718 1414 721 q 1324 561 1363 633 q 1258 426 1286 489 q 1240 384 1249 404 q 1225 344 1232 364 q 1154 86 1147 132 q 1190 3 1154 3 q 1225 22 1203 3 q 1251 42 1249 42 q 1264 29 1264 42 q 1226 -10 1264 11 q 1171 -32 1192 -32 q 1106 72 1106 -32 q 1185 363 1099 110 q 1101 250 1143 306 q 1019 138 1060 194 q 821 -19 892 -19 q 732 67 732 -19 q 799 286 732 140 q 803 294 801 290 q 808 304 806 299 q 747 221 776 263 q 686 138 717 179 q 488 -19 558 -19 q 399 67 399 -19 q 465 286 399 140 q 519 392 493 339 q 572 499 546 446 q 601 603 601 561 q 499 685 601 685 q 244 601 383 685 q 58 418 104 519 q 33 331 33 364 q 82 288 33 288 q 115 292 93 288 q 146 296 136 296 q 157 289 157 296 q 118 261 157 271 q 65 254 86 254 q -22 326 -22 254 q -4 397 -22 360 q 218 619 51 518 q 517 718 379 718 q 653 607 653 718 q 614 471 653 550 q 481 192 565 379 q 447 61 447 104 q 476 21 447 21 q 675 178 547 21 q 867 456 765 290 q 892 497 878 472 q 925 557 906 522 q 954 619 936 583 q 999 703 972 656 q 1031 722 1007 714 q 1069 731 1054 731 q 1082 724 1082 731 q 1079 718 1082 721 q 944 465 996 575 l 946 464 m 1010 -242 q 1033 -221 1017 -222 q 1067 -237 1035 -218 q 1122 -253 1099 -256 q 1217 -158 1188 -243 q 1235 14 1247 -76 l 1240 22 q 1267 -69 1271 25 q 1243 -208 1263 -154 q 1135 -307 1213 -294 q 1057 -290 1107 -308 q 1010 -242 1001 -268 z "},"":{"ha":815,"x_min":-7,"x_max":914,"o":"m 735 229 q 774 301 756 261 q 808 383 793 342 q 831 465 822 425 q 836 535 839 504 q 801 648 831 603 q 713 715 771 693 q 536 699 619 751 q 470 626 496 669 q 433 524 444 583 q 419 506 432 513 q 372 494 392 486 q 365 504 365 497 q 372 549 364 525 q 396 600 381 572 q 503 707 438 665 q 760 744 639 794 q 908 546 900 688 q 885 403 914 479 q 808 253 857 326 q 696 116 760 179 q 567 14 632 53 q 449 -47 507 -24 q 332 -76 390 -69 q 151 -62 236 -93 q 21 81 47 -19 q 29 283 -7 176 q 38 292 32 290 q 76 300 60 306 q 79 294 79 297 q 188 -12 17 54 q 347 -22 257 -40 q 551 51 446 -11 q 652 131 606 88 q 735 229 699 175 m 839 278 q 886 282 890 281 q 897 269 893 279 q 888 226 908 229 q 867 223 881 224 q 826 224 853 222 q 773 227 803 225 q 712 233 743 229 q 652 240 681 236 q 604 249 624 244 q 426 324 440 281 q 438 339 422 343 q 460 333 444 338 q 494 321 475 329 q 529 308 514 313 q 556 303 544 304 q 617 292 582 296 q 690 285 651 288 q 767 280 729 282 q 839 278 806 278 z "},"":{"ha":1782,"x_min":-25,"x_max":1868,"o":"m 1006 294 q 813 331 931 318 q 706 173 768 247 q 564 32 644 99 q 217 -119 383 -119 q 53 -74 121 -119 q -25 71 -25 -21 q 257 321 -25 242 q 679 374 449 374 q 726 373 704 374 q 767 371 747 372 q 839 636 839 549 q 804 690 839 690 q 758 675 786 690 q 728 660 731 660 q 719 672 719 660 q 765 708 719 689 q 832 725 807 725 q 896 635 896 725 q 829 365 896 538 q 950 342 892 357 q 1042 315 1008 326 q 1043 314 1042 314 q 1052 326 1047 321 q 1061 339 1057 332 q 1017 436 1017 374 q 1108 622 1017 535 q 1140 651 1126 639 q 1168 672 1154 663 q 1198 690 1182 681 q 1238 713 1214 700 q 1526 765 1383 765 q 1753 715 1661 765 q 1868 528 1868 650 q 1790 318 1868 429 q 1506 81 1693 175 q 1147 -14 1319 -14 q 965 132 965 -14 q 986 229 965 176 q 1003 258 994 243 q 1022 288 1011 272 q 1006 294 1008 293 m 1044 218 q 1021 132 1021 171 q 1060 46 1021 76 q 1158 15 1100 15 q 1492 115 1325 15 q 1747 353 1647 208 q 1822 549 1822 461 q 1733 694 1822 647 q 1556 733 1664 733 q 1258 671 1417 733 q 1185 634 1224 660 q 1115 576 1147 608 q 1063 506 1083 543 q 1042 436 1042 469 q 1076 357 1042 382 q 1126 412 1100 385 q 1181 467 1151 439 q 1425 633 1310 585 q 1479 651 1454 644 q 1525 660 1504 658 l 1528 660 q 1544 647 1544 661 q 1525 629 1544 633 q 1429 597 1475 621 q 1374 564 1403 583 q 1314 519 1346 544 q 1239 458 1276 492 q 1163 383 1201 424 q 1124 340 1140 361 l 1140 340 q 1336 438 1235 340 q 1375 478 1375 478 q 1382 468 1382 478 q 1274 361 1340 400 q 1132 317 1201 317 q 1118 316 1125 317 q 1104 317 1111 315 q 1094 303 1099 310 q 1086 290 1090 297 q 1131 254 1114 272 q 1147 218 1147 236 q 1140 194 1147 207 q 1122 182 1132 182 q 1106 199 1106 182 q 1110 208 1106 203 q 1114 219 1114 214 q 1100 238 1114 226 q 1068 261 1086 250 q 1044 218 1053 238 m 749 335 q 715 337 733 336 q 676 338 696 338 q 288 288 467 338 q 24 61 24 215 q 88 -51 24 -12 q 217 -86 140 -86 q 531 57 367 -86 q 749 335 671 181 z "},"":{"ha":949,"x_min":-11,"x_max":1036,"o":"m 833 340 q 747 242 781 281 q 677 174 713 204 q 597 113 642 143 q 482 40 553 83 q 394 -6 442 15 q 300 -43 347 -28 q 208 -64 253 -58 q 131 -62 164 -69 q 32 -12 68 -49 q 3 90 -11 31 q 176 274 21 186 q 224 297 197 286 q 276 313 251 307 q 316 314 300 318 q 328 293 332 310 q 306 282 325 283 q 221 258 264 275 q 142 215 178 242 q 78 153 106 189 q 42 72 51 117 q 79 -28 26 1 q 231 -33 132 -57 q 463 72 331 -10 q 740 301 596 153 q 590 273 657 268 q 475 308 522 278 q 404 387 428 338 q 385 492 381 436 q 426 604 390 547 q 533 706 461 661 q 705 760 625 764 q 842 706 785 756 q 903 578 894 658 q 861 400 913 499 q 905 432 888 414 q 938 467 922 450 q 972 498 954 485 q 1017 515 990 511 q 1036 507 1033 519 q 1031 493 1036 503 q 1008 453 1021 476 q 981 404 994 429 q 955 355 967 379 q 936 311 943 331 l 925 281 q 890 140 901 201 q 876 35 878 78 q 893 -6 875 -6 q 936 18 913 -1 q 967 38 965 39 q 985 28 985 42 q 950 -6 985 11 q 896 -31 914 -26 q 828 39 832 -39 q 871 282 828 124 q 883 330 874 297 q 906 399 893 363 q 881 376 899 392 q 833 340 864 360 m 572 683 q 514 645 542 669 q 465 590 486 621 q 434 522 444 558 q 428 449 424 486 q 454 375 432 408 q 522 326 476 342 q 636 319 567 311 q 804 369 706 328 q 862 556 864 481 q 818 669 860 631 q 709 712 776 708 q 572 683 642 715 z "},"":{"ha":400,"x_min":22,"x_max":486,"o":"m 486 156 q 478 136 486 149 q 363 10 417 38 q 313 -3 338 -3 q 228 117 228 -3 q 231 158 228 136 q 65 -7 138 -7 q 22 40 22 -7 q 92 215 22 113 q 226 339 161 317 q 272 349 250 349 q 344 314 322 349 q 349 304 349 307 q 339 300 349 303 q 325 290 329 297 q 292 128 292 236 q 335 28 292 28 q 422 95 365 28 q 482 163 478 163 q 486 156 486 163 m 282 301 q 269 303 276 303 q 154 232 214 303 q 69 64 69 129 q 89 35 69 35 q 168 99 119 35 q 282 301 236 185 z "},"":{"ha":338,"x_min":21,"x_max":646,"o":"m 638 615 q 569 569 618 589 q 421 543 521 550 q 314 503 364 540 q 215 383 264 467 q 177 317 192 343 q 153 272 163 292 q 136 233 143 251 q 122 190 129 215 q 207 310 157 253 q 325 386 274 386 q 367 326 367 386 q 313 131 367 240 q 218 0 276 56 q 76 -65 149 -65 q 21 -44 21 -65 q 29 -36 21 -36 q 49 -41 33 -36 q 76 -46 65 -46 q 200 25 139 -46 q 275 151 246 79 q 301 289 301 214 q 281 335 301 335 q 158 208 235 335 q 86 32 86 90 q 97 8 86 17 q 107 -6 107 0 q 100 -11 107 -11 q 49 64 49 -11 q 76 195 49 118 q 151 349 104 272 q 258 491 199 426 q 383 585 318 556 q 446 607 417 599 q 499 620 475 615 q 543 629 524 625 q 578 640 563 633 q 613 658 599 649 q 636 668 628 667 q 645 658 644 669 q 638 615 646 646 z "},"":{"ha":338,"x_min":21,"x_max":646,"o":"m 208 383 q 160 292 185 346 q 122 190 136 239 q 207 310 157 253 q 325 386 274 386 q 367 326 367 386 q 313 131 367 240 q 218 0 276 56 q 76 -65 149 -65 q 21 -44 21 -65 q 29 -36 21 -36 q 49 -41 33 -36 q 76 -46 65 -46 q 200 25 139 -46 q 275 151 246 79 q 301 289 301 214 q 281 335 301 335 q 158 208 235 335 q 86 32 86 90 q 97 8 86 17 q 107 -6 107 0 q 100 -11 107 -11 q 49 64 49 -11 q 74 201 49 117 q 153 393 100 285 q 307 656 197 481 q 583 926 476 926 q 646 869 646 926 q 471 590 646 769 q 208 383 358 476 m 619 844 q 596 875 619 874 q 483 814 560 875 q 251 486 349 707 q 229 428 236 449 q 460 615 329 486 q 619 844 617 767 z "},"":{"ha":357,"x_min":40,"x_max":444,"o":"m 274 197 q 239 160 253 181 q 217 118 225 139 q 207 79 210 97 q 204 49 204 61 q 250 4 204 1 q 282 11 269 6 q 318 40 294 17 l 429 189 q 440 176 444 182 q 425 160 436 171 q 328 26 372 74 q 231 -25 283 -22 q 167 -10 197 -24 q 131 39 138 4 q 135 81 125 60 q 163 126 144 103 q 208 175 182 149 q 263 233 235 201 q 284 270 285 251 q 268 299 283 289 q 228 304 253 308 q 181 274 204 300 q 159 249 168 260 q 143 226 150 238 q 129 203 136 215 q 113 176 122 192 q 47 100 63 100 q 40 106 42 100 q 43 110 42 107 q 47 121 44 114 q 81 169 64 142 q 117 224 97 196 q 160 280 136 253 q 217 328 185 307 q 301 344 268 346 q 342 325 333 343 q 335 274 351 307 q 274 197 318 242 z "},"":{"ha":364,"x_min":-353,"x_max":354,"o":"m 354 306 q 342 296 354 300 q 325 283 329 292 q 310 213 318 253 q 261 0 293 142 l 267 0 q 340 -32 340 3 q 335 -40 340 -40 q 323 -33 333 -40 q 283 -26 313 -26 q 256 -28 269 -26 q 124 -351 204 -236 q -196 -571 -26 -571 q -308 -532 -262 -571 q -353 -428 -353 -493 q -142 -143 -353 -279 q 206 -1 38 -28 q 238 158 215 51 q 72 -7 144 -7 q 29 40 29 -7 q 99 214 29 111 q 233 339 168 317 q 279 349 258 349 q 326 335 299 349 q 354 306 354 322 m 289 301 q 276 303 283 303 q 161 232 221 303 q 76 64 76 129 q 96 35 76 35 q 175 99 126 35 q 289 301 243 185 m 204 -26 q -14 -106 113 -42 q -208 -233 -140 -169 q -312 -432 -312 -333 q -278 -519 -312 -486 q -190 -551 -244 -551 q -21 -479 -104 -551 q 97 -333 46 -422 q 204 -26 171 -208 z "},"":{"ha":282,"x_min":36,"x_max":365,"o":"m 365 150 q 363 142 365 147 q 258 42 328 88 q 124 -7 185 -7 q 36 103 36 -7 q 99 261 36 175 q 236 353 165 353 q 260 340 250 353 q 271 314 271 328 q 206 210 271 271 q 99 138 147 156 q 89 79 89 103 q 140 22 89 22 q 250 63 189 22 q 340 142 303 97 q 360 156 350 156 q 365 150 365 156 m 229 297 q 213 314 229 314 q 151 250 192 314 q 108 165 117 196 q 183 219 144 181 q 229 297 229 264 z "},"":{"ha":751,"x_min":28,"x_max":833,"o":"m 57 167 q 33 150 42 150 q 28 154 28 150 q 36 169 28 158 q 69 226 51 199 q 108 275 86 254 q 155 309 129 296 q 211 322 181 322 q 314 213 314 322 q 303 158 314 186 l 308 164 q 419 288 394 224 q 419 314 424 301 q 417 324 418 319 q 418 330 415 328 q 429 330 421 332 q 456 319 438 328 q 465 218 493 304 q 460 201 464 211 q 451 181 456 192 q 443 160 447 169 q 438 144 439 150 q 424 112 429 122 q 414 83 419 101 q 488 136 467 125 q 557 247 503 188 q 700 329 635 329 q 744 294 744 329 q 724 246 744 281 q 692 213 704 213 q 686 219 686 213 q 691 238 686 225 q 696 257 696 250 q 660 286 696 286 q 569 221 610 286 q 532 108 532 160 q 607 22 532 22 q 804 151 701 22 q 828 168 818 168 q 833 164 833 168 q 825 149 833 158 q 690 19 778 79 q 585 -12 639 -12 q 482 97 482 -12 q 482 108 482 103 q 386 -4 408 54 q 390 -17 383 -11 q 400 -29 397 -22 q 403 -39 401 -35 q 401 -45 404 -43 q 389 -45 397 -47 q 364 -35 381 -43 q 354 67 326 -21 q 365 97 357 79 q 375 125 372 114 q 388 165 383 147 q 397 201 393 183 q 306 143 319 139 q 299 149 300 143 q 239 63 281 107 q 96 -19 161 -19 q 51 15 51 -19 q 72 64 51 28 q 104 97 90 97 q 110 90 110 97 q 105 72 110 85 q 100 53 100 60 q 136 24 100 24 q 226 89 186 24 q 264 201 264 149 q 189 288 264 288 q 148 279 165 288 q 116 255 131 271 q 88 217 101 239 q 60 169 75 196 l 57 167 z "},"":{"ha":467,"x_min":-240,"x_max":451,"o":"m 451 -32 q 447 -40 451 -40 q 435 -33 444 -40 q 396 -26 425 -26 q 368 -28 382 -26 q 236 -351 365 -162 q -85 -571 86 -571 q -196 -532 -151 -571 q -240 -428 -240 -493 q -29 -143 -240 -279 q 317 -1 150 -28 q 249 86 315 86 q 206 73 235 86 q 168 60 178 60 q 150 76 150 60 q 163 97 150 85 q 313 282 313 235 q 278 313 313 313 q 100 164 193 313 q 86 150 90 150 q 81 157 81 150 q 86 174 81 164 q 167 282 117 238 q 286 333 225 333 q 361 271 361 333 q 250 114 361 203 l 254 114 q 333 81 300 115 q 369 0 365 47 l 375 0 q 450 -19 440 1 q 451 -32 451 -25 m 317 -26 q 97 -106 224 -42 q -96 -233 -29 -169 q -201 -432 -201 -333 q -167 -519 -201 -486 q -78 -551 -133 -551 q 210 -333 81 -551 q 317 -26 314 -157 z "},"":{"ha":404,"x_min":28,"x_max":499,"o":"m 499 165 q 490 142 499 156 q 400 31 451 78 q 275 -31 333 -31 q 197 67 197 -31 q 218 154 197 89 q 156 67 169 83 q 74 13 110 13 q 28 90 28 13 q 57 197 28 135 q 126 269 89 269 q 147 258 147 269 q 112 195 147 257 q 76 100 76 133 q 103 56 76 56 q 263 258 147 56 q 292 313 272 278 q 313 324 301 324 q 335 313 325 324 q 346 289 346 303 q 297 196 346 290 q 247 50 247 101 q 293 1 247 1 q 382 46 332 1 q 457 129 415 75 q 494 174 492 174 q 499 165 499 174 z "},"":{"ha":404,"x_min":28,"x_max":499,"o":"m 499 165 q 490 142 499 156 q 400 31 451 78 q 275 -31 333 -31 q 197 67 197 -31 q 218 154 197 89 q 156 67 169 83 q 74 13 110 13 q 28 90 28 13 q 57 197 28 135 q 126 269 89 269 q 147 258 147 269 q 112 195 147 257 q 76 100 76 133 q 103 56 76 56 q 263 258 147 56 q 292 313 272 278 q 313 324 301 324 q 335 313 325 324 q 346 289 346 303 q 297 196 346 290 q 247 50 247 101 q 293 1 247 1 q 382 46 332 1 q 457 129 415 75 q 494 174 492 174 q 499 165 499 174 m 456 413 q 450 406 454 410 q 265 315 356 301 q 186 401 188 328 q 190 425 186 410 q 201 438 194 439 q 213 414 207 436 q 231 374 219 388 q 283 344 247 350 q 433 410 364 331 q 450 419 443 421 q 456 413 458 417 z "},"":{"ha":506,"x_min":60,"x_max":653,"o":"m 653 758 q 478 479 653 658 q 211 249 365 365 q 165 136 183 190 q 303 274 235 206 q 454 371 406 371 q 490 318 490 371 q 415 213 490 264 q 290 167 346 164 q 401 33 319 33 q 578 160 482 33 q 594 172 586 172 q 601 165 601 172 q 596 151 601 160 q 501 49 563 103 q 386 -18 428 -18 q 283 53 335 -18 q 229 172 236 117 q 164 96 196 133 q 122 0 132 54 q 90 -7 107 -7 q 60 7 60 -7 q 118 172 60 39 q 314 544 204 369 q 590 815 483 815 q 653 758 653 815 m 621 739 q 597 768 621 768 q 486 704 561 768 q 263 371 354 594 q 242 311 242 319 q 468 506 340 372 q 621 739 621 661 m 431 297 q 413 325 431 325 q 261 196 385 325 q 286 185 267 185 q 379 222 328 185 q 431 297 431 258 z "},"":{"ha":551,"x_min":38,"x_max":614,"o":"m 371 236 q 283 124 325 176 q 214 43 242 71 q 140 -6 175 6 q 82 -5 106 -17 q 48 41 58 7 q 47 129 38 75 q 63 165 51 156 q 86 175 74 175 q 108 167 99 175 q 121 150 118 160 q 99 58 99 93 q 119 17 100 24 q 171 33 138 10 q 246 114 204 56 q 277 156 254 125 q 340 232 300 188 q 367 263 354 249 q 407 307 379 276 q 429 317 417 317 q 461 285 461 317 q 456 268 461 278 q 378 65 378 140 q 428 13 378 13 q 511 53 467 13 q 576 128 542 79 q 610 168 606 168 q 614 160 614 168 q 606 136 614 150 q 410 -21 511 -21 q 331 79 331 -21 q 371 236 331 167 z "},"":{"ha":665,"x_min":38,"x_max":758,"o":"m 333 244 q 274 128 306 186 q 214 43 242 71 q 140 -6 175 6 q 82 -5 106 -17 q 48 41 58 7 q 47 129 38 75 q 63 165 51 156 q 86 175 74 175 q 108 167 99 175 q 121 150 118 160 q 99 58 99 93 q 119 17 100 24 q 171 33 138 10 q 246 114 204 56 q 281 172 261 135 q 322 281 301 210 q 396 306 374 307 q 420 288 418 306 q 410 241 422 271 q 382 178 397 211 q 353 116 367 146 q 340 68 340 86 q 356 88 344 74 q 383 123 367 103 q 420 167 400 143 q 463 214 440 190 q 549 308 490 246 q 561 318 554 314 q 574 322 568 322 q 606 290 606 322 q 600 274 606 283 q 522 71 522 146 q 572 18 522 18 q 656 58 611 18 q 721 133 686 85 q 754 174 750 174 q 758 165 758 174 q 750 142 758 156 q 554 -15 656 -15 q 475 85 475 -15 q 484 166 475 129 q 513 238 493 203 q 462 185 485 211 q 410 122 439 158 q 385 88 397 106 q 360 56 372 69 q 335 35 347 42 q 308 36 322 28 q 299 78 293 46 q 319 146 306 110 q 344 211 332 182 q 353 244 357 240 q 343 251 353 251 q 333 244 333 251 z "},"":{"ha":397,"x_min":10,"x_max":500,"o":"m 257 242 q 265 256 261 246 q 274 276 269 265 q 284 298 279 288 q 293 313 289 308 q 315 322 303 322 q 347 290 347 322 q 342 274 347 283 q 264 71 264 146 q 314 18 264 18 q 397 58 353 18 q 463 133 428 85 q 496 174 492 174 q 500 165 500 174 q 492 142 500 156 q 296 -15 397 -15 q 217 85 217 -15 q 233 189 217 140 q 165 169 200 181 q 93 143 131 158 q 86 122 90 132 q 79 100 82 111 q 54 11 68 35 q 22 -12 40 -12 q 10 13 10 -12 q 13 24 10 18 q 43 109 28 60 q 74 225 58 158 q 79 252 76 236 q 88 290 82 268 q 107 310 92 300 q 135 319 122 319 q 144 311 144 319 q 133 269 144 304 q 101 167 122 233 q 149 183 121 174 q 214 203 176 192 q 242 211 224 204 q 257 242 249 226 z "},"":{"ha":318,"x_min":33,"x_max":404,"o":"m 404 150 q 401 144 404 147 q 342 88 382 111 q 265 64 303 64 q 214 78 238 64 q 82 -24 150 -24 q 33 33 33 -24 q 103 219 33 113 q 100 250 100 235 q 133 347 100 300 q 215 394 167 394 q 267 357 247 394 q 282 290 282 325 q 224 100 282 215 q 271 88 244 88 q 357 124 317 88 q 394 160 397 160 q 404 150 404 160 m 240 256 q 231 318 240 286 q 194 363 217 363 q 144 324 163 363 q 132 257 131 293 q 176 283 154 283 q 207 269 197 283 q 207 263 207 268 q 208 256 208 258 q 194 251 208 251 q 142 199 169 251 q 206 113 160 146 q 240 256 240 200 m 194 93 q 125 164 149 124 q 83 38 83 76 q 104 10 83 10 q 156 43 124 10 q 194 93 183 69 z "},"":{"ha":386,"x_min":10,"x_max":476,"o":"m 476 165 q 468 142 476 156 q 272 -15 374 -15 q 193 85 193 -15 q 233 242 193 174 q 35 0 136 154 q 22 -12 26 -12 q 10 13 10 -12 q 13 24 10 19 q 74 225 42 94 q 88 290 78 247 q 107 310 92 300 q 135 319 122 319 q 144 311 144 319 q 79 100 144 297 q 183 218 96 122 q 269 313 213 251 q 292 322 281 322 q 324 290 324 322 q 318 274 324 283 q 240 71 240 146 q 290 18 240 18 q 374 58 329 18 q 439 133 403 83 q 472 174 468 174 q 476 165 476 174 z "},"":{"ha":454,"x_min":-169,"x_max":544,"o":"m 544 165 q 536 142 544 156 q 417 22 500 82 q 267 -44 328 -44 q 229 -43 254 -44 q 193 -43 206 -43 q 151 -33 188 -43 q 35 -267 108 -144 q -135 -436 -69 -436 q -169 -385 -169 -436 q -44 -132 -169 -317 q 135 114 44 -10 l 135 122 q 133 210 135 172 q 67 124 81 124 q 58 133 58 124 q 63 144 58 139 q 124 299 124 231 q 116 322 124 313 q 108 336 108 331 q 151 342 108 342 q 199 247 199 342 q 197 206 199 233 q 194 167 194 179 q 281 297 233 238 q 401 386 353 386 q 446 321 446 386 q 388 131 446 239 q 263 -21 331 22 q 531 167 383 -18 q 539 174 536 174 q 544 165 544 174 m 385 292 q 361 335 385 335 q 347 332 354 335 q 242 203 297 310 q 175 40 200 124 q 224 -12 189 19 q 336 119 285 14 q 385 292 385 219 m 122 39 q 119 40 121 40 q 104 26 114 40 q 4 -121 71 -24 q -69 -247 -25 -162 q -121 -375 -121 -346 q -112 -387 -121 -387 q 56 -187 -51 -387 q 115 -6 83 -135 q 114 8 114 1 q 122 39 114 25 z "},"":{"ha":306,"x_min":50,"x_max":401,"o":"m 401 164 q 393 149 401 158 q 258 19 344 78 q 153 -12 208 -12 q 50 97 50 -12 q 126 247 50 165 q 268 329 201 329 q 313 294 313 329 q 292 247 313 281 q 260 213 272 213 q 254 219 254 213 q 259 238 254 225 q 264 257 264 250 q 228 286 264 286 q 138 221 178 286 q 100 108 100 161 q 175 22 100 22 q 372 151 269 22 q 396 168 386 168 q 401 164 401 168 z "},"":{"ha":531,"x_min":0,"x_max":619,"o":"m 619 153 q 617 144 619 147 q 539 54 582 96 q 439 -1 479 -1 q 374 143 374 -1 q 375 193 374 165 q 263 33 325 149 q 217 -6 242 -6 q 204 0 208 -6 q 200 39 200 15 q 218 186 200 79 q 228 256 228 240 q 224 267 228 267 q 147 176 200 246 q 25 0 90 101 q 11 -12 17 -12 q 0 13 0 -12 q 1 24 0 19 q 67 235 33 99 q 78 290 69 254 q 97 310 81 300 q 124 319 113 319 q 133 311 133 319 q 68 100 133 297 q 171 238 118 167 q 221 304 188 260 q 264 329 242 329 q 286 304 286 329 q 276 233 286 286 q 254 76 267 179 q 375 239 293 132 q 419 265 397 265 q 440 239 440 265 q 433 173 440 217 q 426 107 426 129 q 464 35 426 35 q 599 151 517 35 q 613 165 607 165 q 619 153 619 165 z "},"":{"ha":381,"x_min":-326,"x_max":367,"o":"m 367 -32 q 363 -40 367 -40 q 350 -33 361 -40 q 310 -26 339 -26 q 283 -28 296 -26 q 151 -351 231 -236 q -169 -571 1 -571 q -281 -532 -236 -571 q -326 -428 -326 -493 q -114 -143 -326 -279 q 232 -1 64 -28 q 276 254 251 85 q 217 148 260 214 q 143 50 174 82 q 75 13 107 13 q 31 90 31 13 q 58 197 31 135 q 129 269 90 269 q 149 258 149 269 q 114 195 149 257 q 79 100 79 133 q 104 56 79 56 q 292 335 147 56 q 326 356 294 356 q 351 344 351 356 q 333 226 351 326 q 288 0 313 108 l 293 0 q 367 -32 367 3 m 231 -26 q 13 -106 139 -42 q -181 -233 -114 -169 q -286 -432 -286 -333 q -252 -519 -286 -486 q -162 -551 -218 -551 q 6 -479 -78 -551 q 124 -333 72 -422 q 231 -26 197 -208 z "},"":{"ha":563,"x_min":14,"x_max":613,"o":"m 122 -526 q 109 -477 114 -494 q 103 -447 104 -460 q 101 -424 101 -435 q 101 -392 101 -412 q 165 -93 101 -279 q 202 14 183 -37 q 243 114 221 65 q 182 51 218 83 q 57 -12 113 -12 q 14 38 14 -12 q 72 201 14 110 q 116 261 92 233 q 171 313 140 289 q 321 367 243 367 q 364 361 351 367 q 392 416 378 388 q 422 476 407 444 q 474 578 463 560 q 533 672 504 636 q 579 697 556 697 q 613 668 613 697 q 608 653 613 661 q 573 606 603 640 q 489 489 543 571 q 403 348 440 415 q 331 201 365 281 q 329 199 329 199 q 439 324 397 286 q 564 388 511 388 q 608 338 608 388 q 550 174 608 265 q 506 114 531 142 q 451 63 482 86 q 301 8 378 8 q 247 18 257 8 q 195 -121 218 -53 q 163 -253 172 -189 q 162 -378 154 -318 q 200 -492 169 -439 q 199 -529 207 -511 q 176 -556 190 -547 q 147 -559 163 -564 q 122 -526 131 -554 m 274 28 q 289 26 282 26 q 301 25 296 25 q 433 83 368 25 q 513 190 481 129 q 540 306 540 249 q 517 344 540 344 q 388 239 468 344 q 311 90 311 138 q 324 70 311 78 q 336 58 336 63 q 328 54 336 54 q 278 86 289 54 l 253 32 q 274 28 258 32 m 356 344 q 347 346 354 346 q 321 350 332 350 q 189 290 253 350 q 110 185 142 247 q 82 69 82 126 q 106 31 82 31 q 233 136 154 31 q 310 285 310 238 q 298 305 310 297 q 286 315 286 313 q 294 321 286 321 q 336 304 321 321 q 345 324 340 314 q 356 344 350 333 z "},"":{"ha":340,"x_min":4,"x_max":438,"o":"m 438 168 q 428 149 438 163 q 275 3 335 3 q 172 131 232 3 q 87 49 160 121 q 10 -22 14 -22 q 4 -17 4 -22 q 75 67 4 -6 q 161 158 153 146 q 133 221 153 192 q 102 165 129 206 q 67 124 75 124 q 58 133 58 124 q 80 170 58 135 q 101 231 101 206 q 97 253 101 232 q 96 257 96 254 q 140 281 96 281 q 185 244 161 281 q 210 188 204 214 q 300 254 213 189 q 383 306 371 306 q 389 301 389 306 q 314 238 389 294 q 224 160 235 176 q 253 94 238 128 q 299 51 274 51 q 378 112 331 51 q 433 172 425 172 q 438 168 438 172 z "},"":{"ha":335,"x_min":28,"x_max":344,"o":"m 94 -158 q 115 -143 101 -143 q 140 -157 115 -140 q 183 -172 164 -175 q 265 -103 236 -169 q 288 19 290 -47 q 221 11 247 -4 q 194 67 194 26 q 200 110 194 86 q 215 150 206 133 q 177 96 192 117 q 156 67 163 75 q 74 13 110 13 q 28 90 28 13 q 57 197 28 135 q 126 269 88 269 q 147 258 147 269 q 111 194 147 258 q 76 100 76 135 q 103 56 76 56 q 239 218 143 56 q 265 261 253 243 q 289 313 276 279 q 310 324 300 324 q 333 313 322 324 q 343 289 343 303 q 293 196 343 289 q 244 53 244 101 q 249 30 244 38 q 263 24 253 22 q 289 41 272 26 q 332 85 306 56 q 342 82 339 93 q 325 50 344 71 q 315 40 319 44 q 306 32 310 35 q 308 -35 314 14 q 299 -95 306 -68 q 282 -144 292 -122 q 192 -217 254 -210 q 129 -200 168 -217 q 94 -158 85 -176 z "},"":{"ha":410,"x_min":43,"x_max":503,"o":"m 503 165 q 494 142 503 154 q 279 -31 386 -31 q 201 60 201 -31 q 260 242 201 146 q 242 239 251 239 q 199 253 219 239 q 174 288 174 268 q 117 189 158 253 q 49 108 65 108 q 43 114 43 108 q 50 129 43 119 q 160 319 104 203 q 157 350 157 332 q 169 424 157 382 q 207 476 183 476 q 233 451 222 476 q 243 414 243 432 q 186 313 243 379 q 235 269 199 269 q 283 297 260 269 q 317 324 307 324 q 339 313 329 324 q 349 289 349 303 q 300 196 349 290 q 251 50 251 101 q 297 1 251 1 q 386 46 336 1 q 461 129 418 75 q 497 174 496 174 q 503 165 503 174 z "},"":{"ha":610,"x_min":61,"x_max":701,"o":"m 425 156 q 383 97 401 119 q 358 67 365 75 q 276 13 313 13 q 231 90 231 13 q 235 131 231 110 q 207 90 218 106 q 189 67 196 74 q 107 13 143 13 q 61 90 61 13 q 90 197 61 135 q 160 269 121 269 q 181 258 181 269 q 144 194 181 258 q 110 100 110 135 q 136 56 110 56 q 257 190 172 56 q 260 197 257 192 q 292 251 274 231 q 294 256 293 254 q 297 260 296 257 l 294 253 q 329 269 311 269 q 350 258 350 269 q 314 194 350 258 q 279 100 279 135 q 306 56 279 56 q 465 258 350 56 q 494 313 475 276 q 515 324 506 324 q 538 313 528 324 q 549 289 549 303 q 499 196 549 289 q 450 50 450 101 q 496 1 450 1 q 585 46 533 1 q 660 129 618 75 q 697 174 696 174 q 701 165 701 174 q 693 142 701 156 q 603 31 654 78 q 478 -31 535 -31 q 400 67 400 -31 q 407 101 400 78 q 425 156 414 124 z "},"":{"ha":551,"x_min":61,"x_max":550,"o":"m 531 50 q 479 13 503 22 q 438 6 456 3 q 410 26 421 10 q 400 67 400 42 q 407 101 400 78 q 425 156 414 124 q 383 97 401 119 q 358 67 365 75 q 276 13 313 13 q 231 90 231 13 q 235 131 231 110 q 207 90 218 106 q 189 67 196 74 q 107 13 143 13 q 61 90 61 13 q 90 197 61 135 q 160 269 121 269 q 181 258 181 269 q 144 194 181 258 q 110 100 110 135 q 136 56 110 56 q 257 190 172 56 q 260 197 257 192 q 292 251 274 231 q 294 256 293 254 q 297 260 296 257 l 294 253 q 329 269 311 269 q 350 258 350 269 q 314 194 350 258 q 279 100 279 135 q 306 56 279 56 q 465 258 350 56 q 494 313 475 276 q 515 324 506 324 q 538 313 528 324 q 549 289 549 303 q 499 196 549 289 q 450 53 450 101 q 454 30 450 38 q 468 24 458 22 q 494 41 478 26 q 538 85 511 56 q 547 82 544 93 q 531 50 550 71 m 300 -158 q 321 -143 307 -143 q 346 -158 321 -140 q 389 -172 371 -175 q 471 -103 442 -169 q 493 33 499 -40 l 499 39 q 514 -35 524 40 q 488 -144 507 -101 q 397 -217 460 -210 q 335 -200 374 -217 q 300 -158 290 -178 z "},"":{"ha":551,"x_min":51,"x_max":615,"o":"m 218 42 q 232 115 214 72 q 249 150 239 132 q 269 185 258 168 q 289 218 279 203 q 301 242 299 233 q 288 281 314 269 q 215 293 263 292 l 201 258 q 177 200 192 233 q 144 133 163 167 q 106 69 126 99 q 65 21 86 40 q 56 22 60 17 q 57 35 51 28 q 118 128 90 78 q 168 229 146 178 q 206 333 190 281 q 229 429 221 385 q 248 458 235 451 q 274 459 261 465 q 296 435 288 453 q 299 390 304 418 q 272 348 293 368 q 238 319 251 328 q 309 318 268 317 q 392 322 350 319 q 394 308 396 318 q 388 285 392 297 q 378 262 383 274 q 369 240 372 250 q 347 199 363 229 q 313 133 331 168 q 291 85 299 108 q 281 43 283 61 q 285 14 279 25 q 304 0 290 3 q 329 5 313 -1 q 361 29 346 11 q 394 74 381 50 q 411 115 407 99 q 416 168 421 150 q 381 185 411 186 q 379 188 378 185 q 385 192 381 190 q 394 197 389 194 q 407 196 400 199 q 439 163 426 189 q 442 108 451 138 q 404 33 432 67 q 338 -18 376 -1 q 297 -26 318 -28 q 259 -16 276 -25 q 230 8 242 -7 q 218 42 218 22 m 449 82 q 406 101 425 89 q 374 129 386 114 q 361 152 364 140 q 362 175 358 164 q 374 192 365 186 q 397 199 382 199 q 420 189 410 199 q 431 167 431 179 q 428 158 431 164 q 425 147 425 151 q 433 126 425 139 q 451 106 442 114 q 474 97 457 100 q 510 99 490 93 q 552 126 531 106 q 592 186 574 146 q 606 198 596 201 q 607 178 615 194 q 568 115 588 138 q 528 85 549 93 q 487 77 507 76 q 449 82 467 78 z "},"":{"ha":635,"x_min":54,"x_max":718,"o":"m 718 161 q 708 139 718 150 q 493 -29 582 -29 q 417 53 417 -29 q 440 156 417 89 q 342 99 396 121 q 301 53 325 74 q 250 18 278 33 q 192 -7 222 3 q 135 -19 163 -17 q 54 61 54 -28 q 68 144 54 99 q 103 237 82 190 q 149 325 124 283 q 196 396 174 367 q 211 402 201 404 q 231 394 221 400 q 247 378 240 388 q 254 363 254 369 q 249 349 254 356 q 233 324 244 342 q 208 287 221 307 q 183 249 194 267 q 167 225 171 231 q 124 128 143 178 q 104 51 104 78 q 150 3 104 3 q 216 27 179 3 q 281 83 253 51 q 220 96 244 81 q 194 156 196 111 q 204 203 192 181 q 237 242 217 226 q 281 265 257 258 q 326 266 306 272 q 358 238 346 260 q 368 174 371 215 q 360 135 367 154 q 414 167 388 149 q 460 206 440 185 q 478 241 469 225 q 497 271 488 257 q 517 283 506 283 q 540 272 529 283 q 550 249 550 261 q 544 233 550 240 q 475 53 475 124 q 511 3 475 3 q 601 47 550 3 q 637 82 618 63 q 675 128 656 101 q 711 172 711 172 q 718 161 718 172 m 314 131 q 327 179 329 161 q 313 206 325 197 q 282 214 300 215 q 249 203 264 213 q 225 178 233 194 q 225 140 217 163 q 253 113 232 118 q 304 114 275 107 q 309 122 307 118 q 314 131 311 126 z "},"":{"ha":371,"x_min":39,"x_max":474,"o":"m 151 225 q 108 128 128 178 q 89 51 89 78 q 135 3 89 3 q 201 27 164 3 q 265 83 238 51 q 205 96 229 81 q 179 156 181 111 q 189 203 176 181 q 222 242 201 226 q 266 265 242 258 q 310 266 290 272 q 343 238 331 260 q 353 174 356 215 q 344 135 351 154 q 406 172 376 150 q 456 217 435 193 l 474 213 q 453 183 468 199 q 419 151 439 167 q 375 122 399 136 q 326 99 351 108 q 286 53 310 74 q 235 18 263 33 q 177 -7 207 3 q 119 -19 147 -17 q 39 61 39 -28 q 53 144 39 99 q 88 237 67 190 q 135 326 110 283 q 182 397 160 368 q 197 403 188 404 q 217 395 207 401 q 233 380 226 389 q 239 364 239 371 q 233 349 239 356 q 217 324 229 342 q 192 287 206 307 q 167 249 179 267 q 151 225 156 231 m 299 131 q 312 179 314 161 q 297 206 310 197 q 267 214 285 215 q 233 203 249 213 q 210 178 218 194 q 210 140 201 163 q 238 113 217 118 q 289 114 260 107 q 294 122 292 118 q 299 131 296 126 z "},"":{"ha":369,"x_min":76,"x_max":389,"o":"m 186 176 q 318 181 282 182 q 321 193 318 185 q 258 285 333 278 q 216 280 235 286 q 181 259 197 274 q 147 224 164 244 q 111 179 131 204 l 108 176 q 94 165 101 168 q 82 161 86 161 q 79 167 78 163 q 88 181 79 169 q 129 234 107 208 q 176 279 151 260 q 227 309 200 299 q 286 317 254 319 q 372 200 389 308 q 274 58 361 131 q 119 -11 183 -17 q 81 26 76 -10 q 108 74 83 39 q 146 103 131 104 q 149 96 153 103 q 142 78 149 90 q 135 60 136 67 q 165 28 131 29 q 265 85 217 24 q 292 122 281 104 q 311 157 304 139 l 293 157 q 247 156 263 157 q 169 149 199 154 q 156 145 167 149 q 139 142 144 142 q 133 150 133 140 q 186 176 132 174 z "}}}
